<?xml version="1.0" encoding="utf-8"?>
<!-- Generator: Adobe Illustrator 22.0.1, SVG Export Plug-In . SVG Version: 6.00 Build 0)  -->
<svg version="1.1" id="Ebene_1" xmlns="http://www.w3.org/2000/svg" xmlns:xlink="http://www.w3.org/1999/xlink" x="0px" y="0px"
	 viewBox="0 0 100 100" style="enable-background:new 0 0 100 100;" xml:space="preserve">
<style type="text/css">
	.st0{fill:#333333;}
</style>
<g>
	<g>
		<path class="st0" d="M70,77.1c-0.6,0-1.2-0.2-1.7-0.7l-27-24.6c-0.5-0.5-0.8-1.1-0.8-1.8s0.3-1.4,0.8-1.8l27-24.6
			c0.7-0.7,1.8-0.8,2.7-0.4c0.9,0.4,1.5,1.3,1.5,2.3v49.2c0,1-0.6,1.9-1.5,2.3C70.7,77,70.4,77.1,70,77.1z"/>
	</g>
	<path class="st0" d="M30,72.2c-2.5,0-4.5-2-4.5-4.5V32.3c0-2.5,2-4.5,4.5-4.5s4.5,2,4.5,4.5v35.4C34.5,70.2,32.4,72.2,30,72.2z"/>
</g>
</svg>
