<?xml version="1.0" encoding="utf-8"?>
<!-- Generator: Adobe Illustrator 16.0.0, SVG Export Plug-In . SVG Version: 6.00 Build 0)  -->
<!DOCTYPE svg PUBLIC "-//W3C//DTD SVG 1.1//EN" "http://www.w3.org/Graphics/SVG/1.1/DTD/svg11.dtd">
<svg version="1.1" id="Layer_1" xmlns="http://www.w3.org/2000/svg" xmlns:xlink="http://www.w3.org/1999/xlink" x="0px" y="0px"
	 width="100px" height="100px" viewBox="0 0 100 100" enable-background="new 0 0 100 100" xml:space="preserve">
<path d="M89.974,37.989l-7.074,7.007c4.301,3.13,6.708,6.749,6.708,10.201c0,9.003-16.259,19.021-39.605,19.021
	c-23.346,0-39.608-10.018-39.608-19.021c0-1.381,0.388-2.795,1.13-4.188c4.439-5.751,14.893-13.545,43.294-10.989L41.033,53.667
	l6.733,6.378l18.713-18.529L73.069,35l-6.521-6.583L46.853,8.505l-6.377,6.731L52.183,27.07c-4.394-0.275-9.632-0.492-13.328-0.251
	c-16.689,0.422-30.67,6.687-36.289,19.945c-0.976,1.961-1.615,4.016-1.883,6.138c-0.011,0.046-0.022,0.08-0.028,0.125
	c-0.018,0.069-0.018,0.148-0.018,0.241c-0.069,0.639-0.114,1.276-0.114,1.928c0,16.328,21.741,29.107,49.479,29.107
	c27.739,0,49.475-12.779,49.475-29.107C99.478,48.681,95.918,42.776,89.974,37.989z"/>
</svg>
