<?xml version="1.0" encoding="utf-8"?>
<!-- Generator: Adobe Illustrator 16.0.0, SVG Export Plug-In . SVG Version: 6.00 Build 0)  -->
<!DOCTYPE svg PUBLIC "-//W3C//DTD SVG 1.1//EN" "http://www.w3.org/Graphics/SVG/1.1/DTD/svg11.dtd">
<svg version="1.1" id="Layer_1" xmlns="http://www.w3.org/2000/svg" xmlns:xlink="http://www.w3.org/1999/xlink" x="0px" y="0px"
	 width="100px" height="100px" viewBox="0 0 100 100" enable-background="new 0 0 100 100" xml:space="preserve">
<path d="M10.667,37.126l7.022,6.955c-4.27,3.108-6.66,6.7-6.66,10.126c0,8.937,16.141,18.882,39.315,18.882
	c23.173,0,39.315-9.945,39.315-18.882c0-1.371-0.386-2.775-1.122-4.156c-4.407-5.71-14.781-13.446-42.974-10.908l13.685,13.546
	l-6.684,6.331L33.988,40.626l-6.542-6.467l6.474-6.535l19.55-19.765l6.331,6.683L48.18,26.287c4.36-0.271,9.561-0.487,13.231-0.25
	c16.563,0.42,30.438,6.638,36.019,19.799c0.966,1.948,1.602,3.987,1.867,6.093c0.013,0.046,0.023,0.08,0.03,0.125
	c0.016,0.067,0.016,0.146,0.016,0.236c0.068,0.637,0.114,1.27,0.114,1.916c0,16.209-21.578,28.894-49.113,28.894
	c-27.535,0-49.112-12.685-49.112-28.894C1.232,47.739,4.766,41.878,10.667,37.126z"/>
</svg>
