<?xml version="1.0" encoding="utf-8"?>
<!-- Generator: Adobe Illustrator 25.2.2, SVG Export Plug-In . SVG Version: 6.00 Build 0)  -->
<svg version="1.1" id="Ebene_1" xmlns="http://www.w3.org/2000/svg" xmlns:xlink="http://www.w3.org/1999/xlink" x="0px" y="0px"
	 viewBox="0 0 57 25" style="enable-background:new 0 0 57 25;" xml:space="preserve">
<style type="text/css">
	.st0{fill:#FFFFFF;}
	.st1{fill:none;stroke:#B5B5B5;stroke-width:1.5;stroke-miterlimit:10;}
</style>
<g>
	<path class="st0" d="M0,0v25h57V0H0z M51.131958,19.1662598H5.868042V5.8851318h45.263916V19.1662598z"/>
</g>
<g>
	<path d="M56,1v23H1V1H56 M57,0H0v25h57V0L57,0z"/>
</g>
<line class="st1" x1="0.5" y1="24" x2="56" y2="1"/>
<g>
	<path d="M56,1v23H1V1H56 M57,0H0v25h57V0L57,0z"/>
</g>
<g>
	<g>
		<rect x="2.0081327" y="1.0080698" class="st0" width="1" height="1"/>
		<polygon points="3.0081327,1.0080698 2.0081327,1.0080698 2.0081327,2.0080698 3.0081327,2.0080698 3.0081327,1.0080698 		"/>
	</g>
	<g>
		<rect x="2.0081327" y="7.0162654" class="st0" width="1" height="1"/>
		<polygon points="3.0081327,7.0162659 2.0081327,7.0162659 2.0081327,8.0162659 3.0081327,8.0162659 3.0081327,7.0162659 		"/>
	</g>
	<g>
		<rect x="7.9999371" y="1.0080698" class="st0" width="1" height="1"/>
		<polygon points="8.9999371,1.0080698 7.9999371,1.0080698 7.9999371,2.0080698 8.9999371,2.0080698 8.9999371,1.0080698 		"/>
	</g>
	<g>
		<rect x="7.9999371" y="7.0162654" class="st0" width="1" height="1"/>
		<polygon points="8.9999371,7.0162659 7.9999371,7.0162659 7.9999371,8.0162659 8.9999371,8.0162659 8.9999371,7.0162659 		"/>
	</g>
	<g>
		<rect x="5.0081329" y="4.00807" class="st0" width="1" height="1"/>
		<polygon points="6.0081329,4.00807 5.0081329,4.00807 5.0081329,5.00807 6.0081329,5.00807 6.0081329,4.00807 		"/>
	</g>
	<g>
		<rect x="2.0081327" y="13.0162535" class="st0" width="1" height="1"/>
		<polygon points="3.0081327,13.0162535 2.0081327,13.0162535 2.0081327,14.0162535 3.0081327,14.0162535 3.0081327,13.0162535 		
			"/>
	</g>
	<g>
		<rect x="7.9999371" y="13.0162535" class="st0" width="1" height="1"/>
		<polygon points="8.9999371,13.0162535 7.9999371,13.0162535 7.9999371,14.0162535 8.9999371,14.0162535 8.9999371,13.0162535 		
			"/>
	</g>
	<g>
		<rect x="5.0081329" y="10.0080576" class="st0" width="1" height="1"/>
		<polygon points="6.0081329,10.0080576 5.0081329,10.0080576 5.0081329,11.0080576 6.0081329,11.0080576 6.0081329,10.0080576 		
			"/>
	</g>
	<g>
		<rect x="2.0081327" y="19.0162659" class="st0" width="1" height="1"/>
		<polygon points="3.0081327,19.0162659 2.0081327,19.0162659 2.0081327,20.0162659 3.0081327,20.0162659 3.0081327,19.0162659 		
			"/>
	</g>
	<g>
		<rect x="7.9999371" y="19.0162659" class="st0" width="1" height="1"/>
		<polygon points="8.9999371,19.0162659 7.9999371,19.0162659 7.9999371,20.0162659 8.9999371,20.0162659 8.9999371,19.0162659 		
			"/>
	</g>
	<g>
		<rect x="5.0081329" y="16.00807" class="st0" width="1" height="1"/>
		<polygon points="6.0081329,16.00807 5.0081329,16.00807 5.0081329,17.00807 6.0081329,17.00807 6.0081329,16.00807 		"/>
	</g>
	<g>
		<rect x="5.0081329" y="22.0080814" class="st0" width="1" height="1"/>
		<polygon points="6.0081329,22.0080814 5.0081329,22.0080814 5.0081329,23.0080814 6.0081329,23.0080814 6.0081329,22.0080814 		
			"/>
	</g>
	<g>
		<rect x="14.0321007" y="1.0080698" class="st0" width="1" height="1"/>
		<polygon points="15.0321007,1.0080698 14.0321007,1.0080698 14.0321007,2.0080698 15.0321007,2.0080698 15.0321007,1.0080698 		
			"/>
	</g>
	<g>
		<rect x="14.0321007" y="7.0162654" class="st0" width="1" height="1"/>
		<polygon points="15.0321007,7.0162659 14.0321007,7.0162659 14.0321007,8.0162659 15.0321007,8.0162659 15.0321007,7.0162659 		
			"/>
	</g>
	<g>
		<rect x="11.0402966" y="4.00807" class="st0" width="1" height="1"/>
		<polygon points="12.0402966,4.00807 11.0402966,4.00807 11.0402966,5.00807 12.0402966,5.00807 12.0402966,4.00807 		"/>
	</g>
	<g>
		<rect x="14.0321007" y="13.0162535" class="st0" width="1" height="1"/>
		<polygon points="15.0321007,13.0162535 14.0321007,13.0162535 14.0321007,14.0162535 15.0321007,14.0162535 
			15.0321007,13.0162535 		"/>
	</g>
	<g>
		<rect x="11.0402966" y="10.0080576" class="st0" width="1" height="1"/>
		<polygon points="12.0402966,10.0080576 11.0402966,10.0080576 11.0402966,11.0080576 12.0402966,11.0080576 
			12.0402966,10.0080576 		"/>
	</g>
	<g>
		<rect x="14.0321007" y="19.0162659" class="st0" width="1" height="1"/>
		<polygon points="15.0321007,19.0162659 14.0321007,19.0162659 14.0321007,20.0162659 15.0321007,20.0162659 
			15.0321007,19.0162659 		"/>
	</g>
	<g>
		<rect x="11.0402966" y="16.00807" class="st0" width="1" height="1"/>
		<polygon points="12.0402966,16.00807 11.0402966,16.00807 11.0402966,17.00807 12.0402966,17.00807 12.0402966,16.00807 		"/>
	</g>
	<g>
		<rect x="11.0402966" y="22.0080814" class="st0" width="1" height="1"/>
		<polygon points="12.0402966,22.0080814 11.0402966,22.0080814 11.0402966,23.0080814 12.0402966,23.0080814 
			12.0402966,22.0080814 		"/>
	</g>
	<g>
		<rect x="19.9958401" y="1.0080698" class="st0" width="1" height="1"/>
		<polygon points="20.9958401,1.0080698 19.9958401,1.0080698 19.9958401,2.0080698 20.9958401,2.0080698 20.9958401,1.0080698 		
			"/>
	</g>
	<g>
		<rect x="19.9958401" y="7.0162654" class="st0" width="1" height="1"/>
		<polygon points="20.9958401,7.0162659 19.9958401,7.0162659 19.9958401,8.0162659 20.9958401,8.0162659 20.9958401,7.0162659 		
			"/>
	</g>
	<g>
		<rect x="17.004034" y="4.00807" class="st0" width="1" height="1"/>
		<polygon points="18.004034,4.00807 17.004034,4.00807 17.004034,5.00807 18.004034,5.00807 18.004034,4.00807 		"/>
	</g>
	<g>
		<rect x="19.9958401" y="13.0162535" class="st0" width="1" height="1"/>
		<polygon points="20.9958401,13.0162535 19.9958401,13.0162535 19.9958401,14.0162535 20.9958401,14.0162535 
			20.9958401,13.0162535 		"/>
	</g>
	<g>
		<rect x="17.004034" y="10.0080576" class="st0" width="1" height="1"/>
		<polygon points="18.004034,10.0080576 17.004034,10.0080576 17.004034,11.0080576 18.004034,11.0080576 18.004034,10.0080576 		
			"/>
	</g>
	<g>
		<rect x="19.9958401" y="19.0162659" class="st0" width="1" height="1"/>
		<polygon points="20.9958401,19.0162659 19.9958401,19.0162659 19.9958401,20.0162659 20.9958401,20.0162659 
			20.9958401,19.0162659 		"/>
	</g>
	<g>
		<rect x="17.004034" y="16.00807" class="st0" width="1" height="1"/>
		<polygon points="18.004034,16.00807 17.004034,16.00807 17.004034,17.00807 18.004034,17.00807 18.004034,16.00807 		"/>
	</g>
	<g>
		<rect x="17.004034" y="22.0080814" class="st0" width="1" height="1"/>
		<polygon points="18.004034,22.0080814 17.004034,22.0080814 17.004034,23.0080814 18.004034,23.0080814 18.004034,22.0080814 		
			"/>
	</g>
	<g>
		<rect x="25.9771214" y="1.0080698" class="st0" width="1" height="1"/>
		<polygon points="26.9771214,1.0080698 25.9771214,1.0080698 25.9771214,2.0080698 26.9771214,2.0080698 26.9771214,1.0080698 		
			"/>
	</g>
	<g>
		<rect x="25.9771214" y="7.0162654" class="st0" width="1" height="1"/>
		<polygon points="26.9771214,7.0162659 25.9771214,7.0162659 25.9771214,8.0162659 26.9771214,8.0162659 26.9771214,7.0162659 		
			"/>
	</g>
	<g>
		<rect x="22.9853172" y="4.00807" class="st0" width="1" height="1"/>
		<polygon points="23.9853172,4.00807 22.9853172,4.00807 22.9853172,5.00807 23.9853172,5.00807 23.9853172,4.00807 		"/>
	</g>
	<g>
		<rect x="25.9771214" y="13.0162535" class="st0" width="1" height="1"/>
		<polygon points="26.9771214,13.0162535 25.9771214,13.0162535 25.9771214,14.0162535 26.9771214,14.0162535 
			26.9771214,13.0162535 		"/>
	</g>
	<g>
		<rect x="22.9853172" y="10.0080576" class="st0" width="1" height="1"/>
		<polygon points="23.9853172,10.0080576 22.9853172,10.0080576 22.9853172,11.0080576 23.9853172,11.0080576 
			23.9853172,10.0080576 		"/>
	</g>
	<g>
		<rect x="25.9771214" y="19.0162659" class="st0" width="1" height="1"/>
		<polygon points="26.9771214,19.0162659 25.9771214,19.0162659 25.9771214,20.0162659 26.9771214,20.0162659 
			26.9771214,19.0162659 		"/>
	</g>
	<g>
		<rect x="22.9853172" y="16.00807" class="st0" width="1" height="1"/>
		<polygon points="23.9853172,16.00807 22.9853172,16.00807 22.9853172,17.00807 23.9853172,17.00807 23.9853172,16.00807 		"/>
	</g>
	<g>
		<rect x="22.9853172" y="22.0080814" class="st0" width="1" height="1"/>
		<polygon points="23.9853172,22.0080814 22.9853172,22.0080814 22.9853172,23.0080814 23.9853172,23.0080814 
			23.9853172,22.0080814 		"/>
	</g>
	<g>
		<rect x="31.9958401" y="1.0080698" class="st0" width="1" height="1"/>
		<polygon points="32.9958382,1.0080698 31.9958382,1.0080698 31.9958382,2.0080698 32.9958382,2.0080698 32.9958382,1.0080698 		
			"/>
	</g>
	<g>
		<rect x="31.9958401" y="7.0162654" class="st0" width="1" height="1"/>
		<polygon points="32.9958382,7.0162659 31.9958382,7.0162659 31.9958382,8.0162659 32.9958382,8.0162659 32.9958382,7.0162659 		
			"/>
	</g>
	<g>
		<rect x="29.004034" y="4.00807" class="st0" width="1" height="1"/>
		<polygon points="30.004034,4.00807 29.004034,4.00807 29.004034,5.00807 30.004034,5.00807 30.004034,4.00807 		"/>
	</g>
	<g>
		<rect x="31.9958401" y="13.0162535" class="st0" width="1" height="1"/>
		<polygon points="32.9958382,13.0162535 31.9958382,13.0162535 31.9958382,14.0162535 32.9958382,14.0162535 
			32.9958382,13.0162535 		"/>
	</g>
	<g>
		<rect x="29.004034" y="10.0080576" class="st0" width="1" height="1"/>
		<polygon points="30.004034,10.0080576 29.004034,10.0080576 29.004034,11.0080576 30.004034,11.0080576 30.004034,10.0080576 		
			"/>
	</g>
	<g>
		<rect x="31.9958401" y="19.0162659" class="st0" width="1" height="1"/>
		<polygon points="32.9958382,19.0162659 31.9958382,19.0162659 31.9958382,20.0162659 32.9958382,20.0162659 
			32.9958382,19.0162659 		"/>
	</g>
	<g>
		<rect x="29.004034" y="16.00807" class="st0" width="1" height="1"/>
		<polygon points="30.004034,16.00807 29.004034,16.00807 29.004034,17.00807 30.004034,17.00807 30.004034,16.00807 		"/>
	</g>
	<g>
		<rect x="29.004034" y="22.0080814" class="st0" width="1" height="1"/>
		<polygon points="30.004034,22.0080814 29.004034,22.0080814 29.004034,23.0080814 30.004034,23.0080814 30.004034,22.0080814 		
			"/>
	</g>
	<g>
		<rect x="37.9958382" y="1.0080698" class="st0" width="1" height="1"/>
		<polygon points="38.9958382,1.0080698 37.9958382,1.0080698 37.9958382,2.0080698 38.9958382,2.0080698 38.9958382,1.0080698 		
			"/>
	</g>
	<g>
		<rect x="37.9958382" y="7.0162654" class="st0" width="1" height="1"/>
		<polygon points="38.9958382,7.0162659 37.9958382,7.0162659 37.9958382,8.0162659 38.9958382,8.0162659 38.9958382,7.0162659 		
			"/>
	</g>
	<g>
		<rect x="35.0040359" y="4.00807" class="st0" width="1" height="1"/>
		<polygon points="36.0040359,4.00807 35.0040359,4.00807 35.0040359,5.00807 36.0040359,5.00807 36.0040359,4.00807 		"/>
	</g>
	<g>
		<rect x="37.9958382" y="13.0162535" class="st0" width="1" height="1"/>
		<polygon points="38.9958382,13.0162535 37.9958382,13.0162535 37.9958382,14.0162535 38.9958382,14.0162535 
			38.9958382,13.0162535 		"/>
	</g>
	<g>
		<rect x="35.0040359" y="10.0080576" class="st0" width="1" height="1"/>
		<polygon points="36.0040359,10.0080576 35.0040359,10.0080576 35.0040359,11.0080576 36.0040359,11.0080576 
			36.0040359,10.0080576 		"/>
	</g>
	<g>
		<rect x="37.9958382" y="19.0162659" class="st0" width="1" height="1"/>
		<polygon points="38.9958382,19.0162659 37.9958382,19.0162659 37.9958382,20.0162659 38.9958382,20.0162659 
			38.9958382,19.0162659 		"/>
	</g>
	<g>
		<rect x="35.0040359" y="16.00807" class="st0" width="1" height="1"/>
		<polygon points="36.0040359,16.00807 35.0040359,16.00807 35.0040359,17.00807 36.0040359,17.00807 36.0040359,16.00807 		"/>
	</g>
	<g>
		<rect x="35.0040359" y="22.0080814" class="st0" width="1" height="1"/>
		<polygon points="36.0040359,22.0080814 35.0040359,22.0080814 35.0040359,23.0080814 36.0040359,23.0080814 
			36.0040359,22.0080814 		"/>
	</g>
	<g>
		<rect x="43.9958382" y="1.0080698" class="st0" width="1" height="1"/>
		<polygon points="44.9958382,1.0080698 43.9958382,1.0080698 43.9958382,2.0080698 44.9958382,2.0080698 44.9958382,1.0080698 		
			"/>
	</g>
	<g>
		<rect x="43.9958382" y="7.0162654" class="st0" width="1" height="1"/>
		<polygon points="44.9958382,7.0162659 43.9958382,7.0162659 43.9958382,8.0162659 44.9958382,8.0162659 44.9958382,7.0162659 		
			"/>
	</g>
	<g>
		<rect x="41.0040359" y="4.00807" class="st0" width="1" height="1"/>
		<polygon points="42.0040359,4.00807 41.0040359,4.00807 41.0040359,5.00807 42.0040359,5.00807 42.0040359,4.00807 		"/>
	</g>
	<g>
		<rect x="43.9958382" y="13.0162535" class="st0" width="1" height="1"/>
		<polygon points="44.9958382,13.0162535 43.9958382,13.0162535 43.9958382,14.0162535 44.9958382,14.0162535 
			44.9958382,13.0162535 		"/>
	</g>
	<g>
		<rect x="41.0040359" y="10.0080576" class="st0" width="1" height="1"/>
		<polygon points="42.0040359,10.0080576 41.0040359,10.0080576 41.0040359,11.0080576 42.0040359,11.0080576 
			42.0040359,10.0080576 		"/>
	</g>
	<g>
		<rect x="43.9958382" y="19.0162659" class="st0" width="1" height="1"/>
		<polygon points="44.9958382,19.0162659 43.9958382,19.0162659 43.9958382,20.0162659 44.9958382,20.0162659 
			44.9958382,19.0162659 		"/>
	</g>
	<g>
		<rect x="41.0040359" y="16.00807" class="st0" width="1" height="1"/>
		<polygon points="42.0040359,16.00807 41.0040359,16.00807 41.0040359,17.00807 42.0040359,17.00807 42.0040359,16.00807 		"/>
	</g>
	<g>
		<rect x="41.0040359" y="22.0080814" class="st0" width="1" height="1"/>
		<polygon points="42.0040359,22.0080814 41.0040359,22.0080814 41.0040359,23.0080814 42.0040359,23.0080814 
			42.0040359,22.0080814 		"/>
	</g>
	<g>
		<rect x="50.000515" y="1.0080698" class="st0" width="1" height="1"/>
		<polygon points="51.000515,1.0080698 50.000515,1.0080698 50.000515,2.0080698 51.000515,2.0080698 51.000515,1.0080698 		"/>
	</g>
	<g>
		<rect x="50.000515" y="7.0162654" class="st0" width="1" height="1"/>
		<polygon points="51.000515,7.0162659 50.000515,7.0162659 50.000515,8.0162659 51.000515,8.0162659 51.000515,7.0162659 		"/>
	</g>
	<g>
		<rect x="47.008709" y="4.00807" class="st0" width="1" height="1"/>
		<polygon points="48.008709,4.00807 47.008709,4.00807 47.008709,5.00807 48.008709,5.00807 48.008709,4.00807 		"/>
	</g>
	<g>
		<rect x="50.000515" y="13.0162535" class="st0" width="1" height="1"/>
		<polygon points="51.000515,13.0162535 50.000515,13.0162535 50.000515,14.0162535 51.000515,14.0162535 51.000515,13.0162535 		
			"/>
	</g>
	<g>
		<rect x="47.008709" y="10.0080576" class="st0" width="1" height="1"/>
		<polygon points="48.008709,10.0080576 47.008709,10.0080576 47.008709,11.0080576 48.008709,11.0080576 48.008709,10.0080576 		
			"/>
	</g>
	<g>
		<rect x="50.000515" y="19.0162659" class="st0" width="1" height="1"/>
		<polygon points="51.000515,19.0162659 50.000515,19.0162659 50.000515,20.0162659 51.000515,20.0162659 51.000515,19.0162659 		
			"/>
	</g>
	<g>
		<rect x="47.008709" y="16.00807" class="st0" width="1" height="1"/>
		<polygon points="48.008709,16.00807 47.008709,16.00807 47.008709,17.00807 48.008709,17.00807 48.008709,16.00807 		"/>
	</g>
	<g>
		<rect x="47.008709" y="22.0080814" class="st0" width="1" height="1"/>
		<polygon points="48.008709,22.0080814 47.008709,22.0080814 47.008709,23.0080814 48.008709,23.0080814 48.008709,22.0080814 		
			"/>
	</g>
	<g>
		<rect x="53.013382" y="4.00807" class="st0" width="1" height="1"/>
		<polygon points="54.013382,4.00807 53.013382,4.00807 53.013382,5.00807 54.013382,5.00807 54.013382,4.00807 		"/>
	</g>
	<g>
		<rect x="53.013382" y="10.0080576" class="st0" width="1" height="1"/>
		<polygon points="54.013382,10.0080576 53.013382,10.0080576 53.013382,11.0080576 54.013382,11.0080576 54.013382,10.0080576 		
			"/>
	</g>
	<g>
		<rect x="53.013382" y="16.00807" class="st0" width="1" height="1"/>
		<polygon points="54.013382,16.00807 53.013382,16.00807 53.013382,17.00807 54.013382,17.00807 54.013382,16.00807 		"/>
	</g>
	<g>
		<rect x="53.013382" y="22.0080814" class="st0" width="1" height="1"/>
		<polygon points="54.013382,22.0080814 53.013382,22.0080814 53.013382,23.0080814 54.013382,23.0080814 54.013382,22.0080814 		
			"/>
	</g>
</g>
</svg>
