<?xml version="1.0" encoding="UTF-8"?>
<svg xmlns="http://www.w3.org/2000/svg" xmlns:xlink="http://www.w3.org/1999/xlink" width="1024px" height="1024px" viewBox="0 0 1024 1024" version="1.1">
<g id="surface1">
<path style=" stroke:none;fill-rule:evenodd;fill:rgb(88.627451%,88.627451%,88.627451%);fill-opacity:1;" d="M 372.148438 339.898438 C 371.648438 340.25 370.851562 342.050781 369.75 345.5 C 367.351562 352.800781 366.449219 355.148438 364.699219 358.648438 C 359.75 368.601562 352.898438 374.851562 342.25 379.148438 C 334.449219 382.25 326.050781 383.75 315.949219 383.75 C 312.398438 383.75 312.199219 383.800781 311.25 384.699219 L 310.25 385.648438 L 310.25 788.75 L 311.050781 789.648438 C 311.851562 790.550781 311.851562 790.550781 319.300781 790.898438 C 330.050781 791.351562 343.601562 792.949219 361 795.851562 C 385.75 799.949219 421.601562 808.699219 457.398438 819.351562 C 468.550781 822.648438 469.75 822.949219 473.101562 823.101562 L 476.699219 823.25 L 477.800781 822.148438 C 478.898438 821.050781 478.898438 821 478.800781 817.851562 C 478.699219 815.148438 478.75 814.699219 479.199219 814.800781 C 482.449219 815.648438 486.75 815.300781 487.949219 814.101562 C 488.648438 813.398438 488.75 812.898438 488.75 811 L 488.75 808.75 L 492.5 808.898438 C 498.5 809.148438 499.25 808.449219 498.898438 802.949219 C 498.398438 795.5 497.199219 769.75 495.800781 736.898438 C 495.050781 720.199219 495 714.050781 495 677.800781 C 495 634 494.949219 635.949219 497.148438 615.851562 C 498.699219 601.800781 500.050781 592.300781 504.050781 567.75 C 507.601562 545.949219 508.601562 539.148438 509.898438 529.601562 C 512.148438 512.898438 515.550781 481.25 515.300781 480.050781 C 515 478.851562 513.101562 477.75 511.351562 477.75 L 509.898438 477.75 L 507.449219 472.351562 C 498.5 452.5 483.5 422 478.300781 413.148438 C 469.300781 397.851562 462.800781 389.148438 453.199219 379.949219 C 442.648438 369.800781 430.601562 361.300781 416.800781 354.300781 C 404.351562 348 394.648438 344.398438 380.050781 340.75 C 373.851562 339.199219 373.25 339.148438 372.148438 339.898438 M 251.351562 339.648438 C 248.050781 340.199219 238 342.949219 232.351562 344.898438 C 210.550781 352.25 190.898438 363.648438 175.050781 378.25 C 163.398438 388.949219 153.800781 402.25 143.5 421.898438 C 138.050781 432.300781 126.800781 455.398438 121.050781 467.949219 C 118.699219 473.101562 116.550781 477.449219 116.300781 477.601562 C 116.050781 477.75 115.351562 477.898438 114.75 477.898438 C 114.148438 477.898438 113.101562 478.25 112.449219 478.75 L 111.25 479.550781 L 111.300781 482.550781 C 111.398438 486.101562 114.800781 517 116.550781 530.199219 C 117.851562 540 119.148438 548.449219 122.949219 571.800781 C 127.101562 597.5 128.898438 610.949219 130.800781 631.601562 C 131.351562 637.75 131.449219 642.75 131.449219 676.699219 C 131.449219 702.199219 131.300781 718.449219 131 725.699219 C 130.75 731.648438 130.199219 744.050781 129.851562 753.199219 C 129.050781 772.449219 128.25 789.800781 127.75 797.949219 C 127.25 806.449219 127.25 806.75 128.351562 808.050781 L 129.300781 809.199219 L 133.449219 809.101562 L 137.601562 809 L 137.398438 811 C 137.199219 812.898438 137.300781 813.101562 138.25 814.050781 C 139.101562 814.898438 139.699219 815.148438 141.601562 815.351562 C 142.851562 815.5 144.699219 815.449219 145.75 815.25 L 147.601562 814.898438 L 147.601562 818.199219 C 147.601562 822.851562 147.851562 823.148438 152.25 823.300781 C 156.050781 823.398438 155.699219 823.5 174.199219 818.101562 C 202.148438 809.949219 226.898438 803.699219 251.148438 798.75 C 270.300781 794.851562 293.351562 791.648438 307.101562 791.101562 C 313.300781 790.851562 314.25 790.75 315.101562 790.101562 L 316.050781 789.398438 L 316.050781 385.398438 L 315.101562 384.648438 C 314.25 384.050781 313.351562 383.898438 308 383.648438 C 298.101562 383.199219 292.75 382.25 286.199219 379.851562 C 271 374.25 263.449219 365.75 257.550781 347.851562 C 254.75 339.101562 254.699219 339.050781 251.351562 339.648438 "/>
<path style=" stroke:none;fill-rule:evenodd;fill:rgb(88.627451%,88.627451%,88.627451%);fill-opacity:1;" d="M 769.300781 328.148438 C 747.199219 337.75 722.75 351.101562 702.5 364.648438 C 674.449219 383.398438 656.351562 402.75 641.800781 429.648438 C 635.199219 441.898438 628.449219 459.148438 625.148438 472.148438 C 623.851562 477.351562 623.601562 477.851562 622.5 477.851562 C 621.199219 477.851562 619.449219 478.601562 619.050781 479.300781 C 618.5 480.351562 618.601562 483.101562 619.800781 494.398438 C 622.648438 522.648438 624.300781 535.5 627.800781 557.398438 C 635.5 605.300781 637 617.199219 638.648438 641.898438 C 639.25 650.949219 638.898438 712.300781 638.148438 729.25 C 636.550781 765.300781 636.25 772.601562 634.5 805.5 L 633.898438 817.300781 L 634.648438 818.300781 C 635.199219 819.050781 635.851562 819.351562 637.101562 819.601562 C 643 820.601562 644 820.898438 644 821.75 C 644 824.699219 645.351562 826.199219 648 826.199219 C 648.75 826.199219 650.449219 826.449219 651.800781 826.75 L 654.25 827.300781 L 654.398438 829.449219 C 654.5 830.648438 654.75 831.800781 655.050781 832.101562 C 655.351562 832.398438 656.851562 832.75 658.601562 833 C 667.5 834.101562 695.25 841.550781 714.851562 848.050781 C 750.648438 860 777.25 865.351562 812.601562 867.800781 C 818.601562 868.199219 819.898438 868.199219 829.050781 867.449219 C 845.648438 866.101562 860.148438 864.101562 874.449219 861.148438 C 890.148438 857.949219 901.898438 854.699219 921.351562 848.25 C 939.351562 842.25 967.648438 834.550781 977.101562 833.101562 C 981.851562 832.351562 982.300781 832 982.300781 829.300781 L 982.300781 827.398438 L 984.148438 827 C 985.199219 826.800781 987.148438 826.449219 988.5 826.199219 C 991.699219 825.699219 992.25 825.199219 992.25 822.851562 L 992.25 821 L 994.300781 820.550781 C 995.398438 820.300781 997.351562 819.949219 998.648438 819.800781 C 1001.449219 819.449219 1002.550781 818.449219 1002.550781 816.25 C 1002.550781 815.449219 1002 804.351562 1001.351562 791.5 C 1000.148438 769 999.75 760.550781 998.398438 729.148438 C 997.5 707.699219 997.5 644.449219 998.398438 633.851562 C 1000.300781 612.101562 1001.648438 601.550781 1007.050781 568.199219 C 1011.699219 539.351562 1013.25 527.949219 1015.5 506.449219 C 1017.300781 489.25 1018 481.199219 1017.699219 480.050781 C 1017.449219 478.949219 1015.75 478.050781 1014.101562 478.050781 C 1012.949219 478.050781 1012.800781 477.699219 1011.300781 472 C 1005.75 450.949219 996.550781 430.699219 984.5 413 C 976.199219 400.800781 966 389.648438 954.101562 379.699219 C 933.800781 362.699219 897.699219 341.398438 866.5 328 C 861.199219 325.75 860.648438 325.75 859.199219 328.050781 C 858.648438 328.898438 858.101562 329.851562 857.898438 330.148438 C 857.648438 330.601562 856.300781 330.898438 852.75 331.300781 C 848.601562 331.851562 844.148438 331.898438 818.648438 331.898438 C 796.800781 331.898438 788.351562 331.800781 785.449219 331.449219 C 778.5 330.648438 778.949219 330.800781 778 328.898438 C 777.101562 327.148438 775.949219 326.101562 775 326.101562 C 774.699219 325.949219 772.101562 326.949219 769.300781 328.148438 "/>
<path style=" stroke:none;fill-rule:evenodd;fill:rgb(88.627451%,88.627451%,88.627451%);fill-opacity:1;" d="M 510.101562 91.199219 L 507.101562 98.5 L 505.699219 97.949219 L 500.25 111.300781 L 498 116.5 L 495.351562 122.25 L 493.449219 126.449219 L 485.648438 137.101562 L 473.050781 151.75 L 459.300781 165.351562 L 444.449219 177.75 L 432.800781 186.050781 L 420.699219 193.601562 L 408.148438 200.300781 L 390 208.300781 L 371.351562 215.300781 L 344.050781 224.601562 L 313.300781 233.75 L 315.648438 242.851562 L 319.101562 244.648438 L 321.050781 245.851562 L 322.800781 247.101562 L 324.199219 248.449219 L 325.199219 249.800781 L 326.050781 251.398438 L 326.898438 253.699219 L 326.800781 258.601562 L 326.75 261.898438 L 326.699219 268.601562 L 326.449219 274.050781 L 325.800781 281.851562 L 341.5 284 L 353.898438 286.398438 L 366.199219 289.398438 L 377.351562 292.75 L 388.25 296.648438 L 398.851562 301.199219 L 414.25 309.25 L 428.949219 318.601562 L 443 329 L 456.449219 340.351562 L 469.148438 352.5 L 481 365.398438 L 491.601562 378.550781 L 491.800781 378.851562 L 495.25 385.148438 L 499.199219 393.050781 L 506.050781 408 L 507.148438 407.550781 L 510.398438 414.699219 L 523.851562 409.398438 L 534.5 405.851562 L 545.25 402.898438 L 556.199219 400.398438 L 566.101562 398.5 L 576 397 L 588.949219 395.851562 L 601.949219 395.550781 L 620.449219 396.050781 L 620.449219 110.101562 L 601.949219 110.550781 L 587.550781 110.101562 L 573.25 108.699219 L 560.601562 106.550781 L 548.050781 103.800781 L 538.398438 101.351562 L 528.898438 98.5 L 521.050781 95.699219 Z M 510.101562 91.199219 "/>
<path style=" stroke:none;fill-rule:evenodd;fill:rgb(88.627451%,88.627451%,88.627451%);fill-opacity:1;" d="M 116.351562 91.199219 L 105.449219 95.648438 L 97.550781 98.449219 L 88.050781 101.300781 L 78.398438 103.75 L 65.851562 106.5 L 53.199219 108.648438 L 38.898438 110.050781 L 24.5 110.5 L 6 110.050781 L 6 396.050781 L 24.5 395.550781 L 37.5 395.851562 L 50.449219 397 L 60.351562 398.5 L 70.25 400.398438 L 81.199219 402.898438 L 92 406 L 102.648438 409.550781 L 116.101562 414.851562 L 119.351562 407.699219 L 120.449219 408.148438 L 127.300781 393.199219 L 131.25 385.300781 L 134.699219 379 L 134.898438 378.699219 L 145.5 365.550781 L 157.351562 352.648438 L 170.050781 340.5 L 183.5 329.148438 L 197.550781 318.699219 L 212.25 309.351562 L 227.648438 301.300781 L 238.25 296.75 L 249.148438 292.851562 L 260.300781 289.5 L 272.601562 286.5 L 285 284.101562 L 300.800781 281.949219 L 300.148438 274.148438 L 299.898438 268.699219 L 299.851562 262 L 299.800781 258.75 L 299.699219 253.800781 L 300.550781 251.5 L 301.398438 249.898438 L 302.398438 248.550781 L 303.800781 247.199219 L 305.550781 245.949219 L 307.5 244.75 L 310.949219 242.949219 L 313.300781 233.851562 L 282.550781 224.699219 L 255.25 215.398438 L 236.601562 208.398438 L 218.449219 200.398438 L 205.898438 193.699219 L 193.800781 186.148438 L 182.148438 177.851562 L 167.300781 165.449219 L 153.550781 151.851562 L 140.949219 137.199219 L 133 126.5 L 131.101562 122.300781 L 128.449219 116.550781 L 126.199219 111.300781 L 120.75 97.949219 L 119.351562 98.5 Z M 116.351562 91.199219 "/>
<path style=" stroke:none;fill-rule:evenodd;fill:rgb(88.627451%,88.627451%,88.627451%);fill-opacity:1;" d="M 152.449219 54.050781 L 152.449219 62.449219 L 159.050781 88.949219 L 152.5 115.449219 L 152.5 123.851562 L 474.101562 123.851562 L 474.101562 115.449219 L 467.550781 88.949219 L 474.101562 62.449219 L 474.101562 54.050781 Z M 308.851562 304.851562 L 304 305.5 L 299.398438 306.851562 L 295.148438 309.351562 L 292.449219 312.351562 L 290.601562 315.75 L 289.351562 319.300781 L 288.351562 323.851562 L 288 328.449219 L 288.300781 332.5 L 288 336.550781 L 288.351562 341.148438 L 289.351562 345.699219 L 290.601562 349.25 L 292.449219 352.648438 L 295.148438 355.648438 L 299.398438 358.148438 L 304 359.5 L 308.851562 360.101562 L 313.25 359.898438 L 317.648438 360.101562 L 322.5 359.5 L 327.101562 358.148438 L 331.351562 355.648438 L 334.050781 352.648438 L 335.898438 349.25 L 337.148438 345.699219 L 338.148438 341.148438 L 338.5 336.550781 L 338.199219 332.5 L 338.5 328.449219 L 338.148438 323.851562 L 337.148438 319.300781 L 335.898438 315.75 L 334.050781 312.351562 L 331.351562 309.351562 L 327.101562 306.851562 L 322.5 305.5 L 317.648438 304.898438 L 313.25 305.101562 Z M 308.851562 304.851562 "/>
<path style=" stroke:none;fill-rule:nonzero;fill:rgb(0%,34.117647%,71.764706%);fill-opacity:1;" d="M 217.148438 84.050781 L 227.851562 84.050781 L 227.851562 123.800781 L 217.148438 123.800781 Z M 217.148438 84.050781 "/>
<path style=" stroke:none;fill-rule:nonzero;fill:rgb(63.137255%,0%,61.176471%);fill-opacity:1;" d="M 206.449219 84.101562 L 217.148438 84.101562 L 217.148438 123.851562 L 206.449219 123.851562 Z M 206.449219 84.101562 "/>
<path style=" stroke:none;fill-rule:nonzero;fill:rgb(55.294118%,62.745098%,9.411765%);fill-opacity:1;" d="M 227.800781 84.101562 L 238.5 84.101562 L 238.5 123.851562 L 227.800781 123.851562 Z M 227.800781 84.101562 "/>
<path style=" stroke:none;fill-rule:evenodd;fill:rgb(88.627451%,88.627451%,88.627451%);fill-opacity:1;" d="M 940.800781 296.199219 L 631.148438 296.199219 L 631.949219 280.25 L 632.25 273.601562 L 632.550781 267.648438 L 632.851562 260.800781 L 633.800781 238.050781 L 634.351562 221.648438 L 634.699219 209.648438 L 635 193.550781 L 635.101562 185.851562 L 635.148438 179.148438 L 635.148438 148.351562 L 993.699219 148.351562 L 993.699219 179.148438 L 993.75 185.851562 L 993.851562 193.550781 L 994.148438 209.648438 L 994.5 221.648438 L 995.050781 238.050781 L 996 260.800781 L 996.300781 267.648438 L 996.601562 273.601562 L 996.949219 280.25 L 997.75 296.199219 Z M 940.800781 296.199219 "/>
<path style=" stroke:none;fill-rule:evenodd;fill:rgb(88.627451%,88.627451%,88.627451%);fill-opacity:1;" d="M 776.398438 324.351562 L 754.449219 334.148438 L 735.898438 343.699219 L 717.800781 354.101562 L 701.800781 364.148438 L 686.449219 375.199219 L 672.199219 387.648438 L 662.949219 397.550781 L 654.550781 408.148438 L 647 419.398438 L 640.300781 431.199219 L 634.75 442.851562 L 630 454.851562 L 626.050781 467.101562 L 623.800781 476.148438 L 1012.949219 476.148438 L 1010.699219 467.101562 L 1006.75 454.851562 L 1002 442.851562 L 996.449219 431.199219 L 989.75 419.398438 L 982.199219 408.148438 L 973.800781 397.550781 L 964.550781 387.648438 L 950.300781 375.199219 L 934.949219 364.148438 L 918.949219 354.101562 L 900.851562 343.699219 L 882.300781 334.148438 L 860.351562 324.351562 L 857.699219 329.898438 L 853.648438 330.5 L 847.851562 331.050781 L 843.25 331.300781 L 838.648438 331.398438 L 828.800781 331.449219 L 818.550781 331.550781 L 808.300781 331.449219 L 798.449219 331.398438 L 793.851562 331.300781 L 789.25 331.050781 L 783.449219 330.5 L 779.398438 329.898438 Z M 255 338.101562 L 237.300781 342.5 L 222.898438 347.5 L 209 353.851562 L 195.699219 361.5 L 186 368.199219 L 176.851562 375.648438 L 168.398438 383.851562 L 160.699219 392.800781 L 150.898438 407.101562 L 142.5 422.25 L 134.851562 437.648438 L 124.898438 458.148438 L 116.351562 477.101562 L 111.75 477.601562 L 308.5 477.601562 L 308.5 383.300781 L 304.648438 383.300781 L 298.699219 382.699219 L 292.800781 381.550781 L 287 379.800781 L 280.898438 377.300781 L 275.300781 374.148438 L 270.351562 370.25 L 267.101562 366.648438 L 264.25 362.550781 L 261.800781 358.148438 L 259.199219 352.101562 L 257.25 345.648438 Z M 371.5 338.101562 L 369.148438 345.648438 L 367.199219 352.101562 L 364.601562 358.148438 L 362.148438 362.550781 L 359.300781 366.648438 L 356.050781 370.25 L 351.101562 374.148438 L 345.5 377.300781 L 339.398438 379.800781 L 333.601562 381.550781 L 327.699219 382.699219 L 321.75 383.300781 L 317.898438 383.300781 L 317.898438 477.699219 L 514.648438 477.699219 L 510.050781 477.199219 L 501.5 458.25 L 491.550781 437.75 L 483.898438 422.300781 L 475.5 407.148438 L 465.699219 392.851562 L 458 383.898438 L 449.550781 375.699219 L 440.398438 368.25 L 430.699219 361.5 L 417.398438 353.898438 L 403.5 347.550781 L 389.101562 342.550781 Z M 371.5 338.101562 "/>
<path style=" stroke:none;fill-rule:evenodd;fill:rgb(66.666667%,0%,65.882353%);fill-opacity:1;" d="M 42.550781 109.75 L 38.898438 110.148438 L 24.5 110.601562 L 6 110.148438 L 6 396.148438 L 24.5 395.648438 L 37.5 395.949219 L 42.5 396.449219 Z M 584.851562 109.75 L 584.851562 396.5 L 588.949219 396 L 601.949219 395.699219 L 620.449219 396.199219 L 620.449219 110.101562 L 601.949219 110.550781 L 587.550781 110.101562 Z M 584.851562 109.75 "/>
<path style=" stroke:none;fill-rule:evenodd;fill:rgb(13.72549%,12.156863%,12.54902%);fill-opacity:1;" d="M 0 0 L 0 6.699219 L 6.699219 6.699219 L 6.699219 0 Z M 1016.351562 865.398438 L 1016.351562 872.101562 L 1023.050781 872.101562 L 1023.050781 865.398438 Z M 1016.351562 865.398438 "/>
<path style=" stroke:none;fill-rule:nonzero;fill:rgb(88.627451%,88.627451%,88.627451%);fill-opacity:1;" d="M 608.898438 847.5 L 609 847.449219 L 608.199219 840.800781 L 608.300781 840.800781 L 607.5 834.148438 L 607.601562 834.148438 L 606.75 827.449219 L 606.851562 827.449219 L 606.050781 820.800781 L 606.148438 820.800781 L 604.648438 808.398438 L 603.550781 799.75 L 602.601562 792.449219 L 601.398438 782.851562 L 601 779.101562 L 600.101562 769.351562 L 599.050781 755.949219 L 597.300781 728.351562 L 595.75 696.449219 L 595.25 673.699219 L 595.050781 655.300781 L 595.050781 636.851562 L 595.300781 618.398438 L 595.601562 599.949219 L 596.199219 558.25 L 596.5 552.75 L 596.25 550.351562 L 596.351562 531.351562 L 596.300781 514.300781 L 596.199219 500.351562 L 596.101562 478.5 L 586.351562 478.601562 L 582.449219 483.851562 L 579.148438 487.199219 L 577.351562 488.648438 L 575.449219 489.898438 L 573.351562 490.898438 L 571 491.699219 L 568 492.5 L 565.101562 493 L 561.800781 492.949219 L 558.25 492.699219 L 555.101562 492.351562 L 552.25 491.75 L 549.699219 490.648438 L 547.199219 489.148438 L 543.898438 486.550781 L 540.949219 483.550781 L 537.351562 478.601562 L 527.550781 478.648438 L 527.699219 496.800781 L 527.800781 512.851562 L 527.851562 531.851562 L 527.800781 549.898438 L 528 552.75 L 526.800781 587.050781 L 526.25 611.699219 L 525.699219 634.25 L 525.550781 648.75 L 525.550781 663.25 L 526 684.898438 L 526.75 706.5 L 527.75 726.101562 L 529 745.699219 L 530.601562 765.449219 L 532.449219 785.199219 L 534.75 807.601562 L 535 809.550781 L 535.5 814.25 L 535.699219 816.25 L 536.199219 820.949219 L 539.199219 846.601562 L 546.699219 845.699219 L 601.25 855.199219 L 609.699219 854.148438 Z M 608.898438 847.5 "/>
<path style=" stroke:none;fill-rule:nonzero;fill:rgb(88.627451%,88.627451%,88.627451%);fill-opacity:1;" d="M 103.800781 631.398438 L 103.300781 619.648438 L 102.300781 601.398438 L 101.25 581.449219 L 99.699219 557.601562 L 99.550781 553.050781 L 99.699219 552.699219 L 99.898438 549.898438 L 99.699219 549.851562 L 99.648438 540.25 L 99.648438 531.851562 L 99.699219 512.851562 L 99.800781 496.800781 L 99.949219 478.699219 L 90.148438 478.648438 L 86.550781 483.601562 L 83.601562 486.601562 L 80.25 489.199219 L 77.75 490.699219 L 75.199219 491.75 L 72.351562 492.398438 L 69.199219 492.75 L 65.648438 493 L 62.351562 493.050781 L 59.449219 492.550781 L 56.398438 491.75 L 54.050781 490.949219 L 51.949219 489.949219 L 50.050781 488.699219 L 48.25 487.25 L 44.949219 483.898438 L 41.050781 478.648438 L 31.398438 478.5 L 31.300781 500.351562 L 31.25 514.351562 L 31.199219 531.351562 L 31.25 550.351562 L 31.449219 550.449219 L 31.25 552.800781 C 31.25 552.800781 31.300781 552.851562 31.351562 552.949219 L 31.199219 552.851562 L 31.351562 558.25 L 32.148438 597.949219 L 32.550781 615.5 L 32.851562 633.050781 L 32.949219 650.601562 L 32.898438 668.148438 L 32.550781 689.800781 L 30.949219 721.699219 L 29.25 749.25 L 28.199219 762.699219 L 27 776.148438 L 25.75 788.101562 L 24 802.851562 L 22.851562 812.449219 L 21.898438 819.75 L 20.800781 828.449219 L 19.25 840.851562 L 19.351562 840.851562 L 18.550781 847.5 L 18.648438 847.5 L 17.851562 854.148438 L 26.351562 855.199219 L 80.898438 845.75 L 88.398438 846.648438 L 91.398438 821 L 91.898438 816.300781 L 92.148438 814.351562 L 92.648438 809.648438 L 92.898438 807.699219 L 93.398438 803 L 93.648438 801.050781 L 94.148438 796.351562 L 94.398438 794.398438 L 94.898438 789.699219 L 95.148438 787.75 L 97.5 765.351562 L 99.351562 745.601562 L 100.949219 725.851562 L 102.199219 706.25 L 103.199219 686.648438 L 103.949219 665.050781 L 104.398438 643.351562 Z M 103.800781 631.398438 "/>
<path style=" stroke:none;fill-rule:nonzero;fill:rgb(0%,34.117647%,71.764706%);fill-opacity:1;" d="M 120.851562 570.699219 L 310.25 570.699219 L 310.25 586.601562 L 120.851562 586.601562 Z M 120.851562 570.699219 "/>
<path style=" stroke:none;fill-rule:nonzero;fill:rgb(0%,34.117647%,71.764706%);fill-opacity:1;" d="M 316.101562 570.699219 L 505.5 570.699219 L 505.5 586.601562 L 316.101562 586.601562 Z M 316.101562 570.699219 "/>
<path style=" stroke:none;fill-rule:nonzero;fill:rgb(63.137255%,0%,61.176471%);fill-opacity:1;" d="M 120.851562 554.800781 L 310.25 554.800781 L 310.25 570.699219 L 120.851562 570.699219 Z M 120.851562 554.800781 "/>
<path style=" stroke:none;fill-rule:nonzero;fill:rgb(63.137255%,0%,61.176471%);fill-opacity:1;" d="M 316.101562 554.800781 L 505.5 554.800781 L 505.5 570.699219 L 316.101562 570.699219 Z M 316.101562 554.800781 "/>
<path style=" stroke:none;fill-rule:nonzero;fill:rgb(55.294118%,62.745098%,9.411765%);fill-opacity:1;" d="M 120.851562 538.898438 L 310.25 538.898438 L 310.25 554.800781 L 120.851562 554.800781 Z M 120.851562 538.898438 "/>
<path style=" stroke:none;fill-rule:nonzero;fill:rgb(55.294118%,62.745098%,9.411765%);fill-opacity:1;" d="M 316.101562 538.898438 L 505.5 538.898438 L 505.5 554.800781 L 316.101562 554.800781 Z M 316.101562 538.898438 "/>
<path style=" stroke:none;fill-rule:nonzero;fill:rgb(0%,34.117647%,71.764706%);fill-opacity:1;" d="M 620.449219 570.699219 L 1012.949219 570.699219 L 1012.949219 586.601562 L 620.449219 586.601562 Z M 620.449219 570.699219 "/>
<path style=" stroke:none;fill-rule:nonzero;fill:rgb(63.137255%,0%,61.176471%);fill-opacity:1;" d="M 620.449219 554.800781 L 1012.949219 554.800781 L 1012.949219 570.699219 L 620.449219 570.699219 Z M 620.449219 554.800781 "/>
<path style=" stroke:none;fill-rule:nonzero;fill:rgb(55.294118%,62.745098%,9.411765%);fill-opacity:1;" d="M 620.449219 538.898438 L 1012.949219 538.898438 L 1012.949219 554.800781 L 620.449219 554.800781 Z M 620.449219 538.898438 "/>
<path style=" stroke:none;fill-rule:evenodd;fill:rgb(94.901961%,94.901961%,94.901961%);fill-opacity:1;" d="M 300.800781 352 L 325.550781 352 L 325.550781 908 L 300.800781 908 Z M 300.800781 352 "/>
</g>
</svg>
