<?xml version="1.0" encoding="UTF-8"?>
<svg xmlns="http://www.w3.org/2000/svg" xmlns:xlink="http://www.w3.org/1999/xlink" width="512px" height="512px" viewBox="0 0 512 512" version="1.1">
<g id="surface1">
<path style=" stroke:none;fill-rule:evenodd;fill:rgb(88.627451%,88.627451%,88.627451%);fill-opacity:1;" d="M 186.074219 169.949219 C 185.824219 170.125 185.425781 171.023438 184.875 172.75 C 183.675781 176.398438 183.226562 177.574219 182.351562 179.324219 C 179.875 184.300781 176.449219 187.425781 171.125 189.574219 C 167.226562 191.125 163.023438 191.875 157.976562 191.875 C 156.199219 191.875 156.101562 191.898438 155.625 192.351562 L 155.125 192.824219 L 155.125 394.375 L 155.523438 394.824219 C 155.925781 395.273438 155.925781 395.273438 159.648438 395.449219 C 165.023438 395.675781 171.800781 396.476562 180.5 397.925781 C 192.875 399.976562 210.800781 404.351562 228.699219 409.675781 C 234.273438 411.324219 234.875 411.476562 236.550781 411.550781 L 238.351562 411.625 L 238.898438 411.074219 C 239.449219 410.523438 239.449219 410.5 239.398438 408.925781 C 239.351562 407.574219 239.375 407.351562 239.601562 407.398438 C 241.226562 407.824219 243.375 407.648438 243.976562 407.050781 C 244.324219 406.699219 244.375 406.449219 244.375 405.5 L 244.375 404.375 L 246.25 404.449219 C 249.25 404.574219 249.625 404.226562 249.449219 401.476562 C 249.199219 397.75 248.601562 384.875 247.898438 368.449219 C 247.523438 360.101562 247.5 357.023438 247.5 338.898438 C 247.5 317 247.476562 317.976562 248.574219 307.925781 C 249.351562 300.898438 250.023438 296.148438 252.023438 283.875 C 253.800781 272.976562 254.300781 269.574219 254.949219 264.800781 C 256.074219 256.449219 257.773438 240.625 257.648438 240.023438 C 257.5 239.425781 256.550781 238.875 255.675781 238.875 L 254.949219 238.875 L 253.726562 236.175781 C 249.25 226.25 241.75 211 239.148438 206.574219 C 234.648438 198.925781 231.398438 194.574219 226.601562 189.976562 C 221.324219 184.898438 215.300781 180.648438 208.398438 177.148438 C 202.175781 174 197.324219 172.199219 190.023438 170.375 C 186.925781 169.601562 186.625 169.574219 186.074219 169.949219 M 125.675781 169.824219 C 124.023438 170.101562 119 171.476562 116.175781 172.449219 C 105.273438 176.125 95.449219 181.824219 87.523438 189.125 C 81.699219 194.476562 76.898438 201.125 71.75 210.949219 C 69.023438 216.148438 63.398438 227.699219 60.523438 233.976562 C 59.351562 236.550781 58.273438 238.726562 58.148438 238.800781 C 58.023438 238.875 57.675781 238.949219 57.375 238.949219 C 57.074219 238.949219 56.550781 239.125 56.226562 239.375 L 55.625 239.773438 L 55.648438 241.273438 C 55.699219 243.050781 57.398438 258.5 58.273438 265.101562 C 58.925781 270 59.574219 274.226562 61.476562 285.898438 C 63.550781 298.75 64.449219 305.476562 65.398438 315.800781 C 65.675781 318.875 65.726562 321.375 65.726562 338.351562 C 65.726562 351.101562 65.648438 359.226562 65.5 362.851562 C 65.375 365.824219 65.101562 372.023438 64.925781 376.601562 C 64.523438 386.226562 64.125 394.898438 63.875 398.976562 C 63.625 403.226562 63.625 403.375 64.175781 404.023438 L 64.648438 404.601562 L 66.726562 404.550781 L 68.800781 404.5 L 68.699219 405.5 C 68.601562 406.449219 68.648438 406.550781 69.125 407.023438 C 69.550781 407.449219 69.851562 407.574219 70.800781 407.675781 C 71.425781 407.75 72.351562 407.726562 72.875 407.625 L 73.800781 407.449219 L 73.800781 409.101562 C 73.800781 411.425781 73.925781 411.574219 76.125 411.648438 C 78.023438 411.699219 77.851562 411.75 87.101562 409.050781 C 101.074219 404.976562 113.449219 401.851562 125.574219 399.375 C 135.148438 397.425781 146.675781 395.824219 153.550781 395.550781 C 156.648438 395.425781 157.125 395.375 157.550781 395.050781 L 158.023438 394.699219 L 158.023438 192.699219 L 157.550781 192.324219 C 157.125 192.023438 156.675781 191.949219 154 191.824219 C 149.050781 191.601562 146.375 191.125 143.101562 189.925781 C 135.5 187.125 131.726562 182.875 128.773438 173.925781 C 127.375 169.550781 127.351562 169.523438 125.675781 169.824219 "/>
<path style=" stroke:none;fill-rule:evenodd;fill:rgb(88.627451%,88.627451%,88.627451%);fill-opacity:1;" d="M 384.648438 164.074219 C 373.601562 168.875 361.375 175.550781 351.25 182.324219 C 337.226562 191.699219 328.175781 201.375 320.898438 214.824219 C 317.601562 220.949219 314.226562 229.574219 312.574219 236.074219 C 311.925781 238.675781 311.800781 238.925781 311.25 238.925781 C 310.601562 238.925781 309.726562 239.300781 309.523438 239.648438 C 309.25 240.175781 309.300781 241.550781 309.898438 247.199219 C 311.324219 261.324219 312.148438 267.75 313.898438 278.699219 C 317.75 302.648438 318.5 308.601562 319.324219 320.949219 C 319.625 325.476562 319.449219 356.148438 319.074219 364.625 C 318.273438 382.648438 318.125 386.300781 317.25 402.75 L 316.949219 408.648438 L 317.324219 409.148438 C 317.601562 409.523438 317.925781 409.675781 318.550781 409.800781 C 321.5 410.300781 322 410.449219 322 410.875 C 322 412.351562 322.675781 413.101562 324 413.101562 C 324.375 413.101562 325.226562 413.226562 325.898438 413.375 L 327.125 413.648438 L 327.199219 414.726562 C 327.25 415.324219 327.375 415.898438 327.523438 416.050781 C 327.675781 416.199219 328.425781 416.375 329.300781 416.5 C 333.75 417.050781 347.625 420.773438 357.425781 424.023438 C 375.324219 430 388.625 432.675781 406.300781 433.898438 C 409.300781 434.101562 409.949219 434.101562 414.523438 433.726562 C 422.824219 433.050781 430.074219 432.050781 437.226562 430.574219 C 445.074219 428.976562 450.949219 427.351562 460.675781 424.125 C 469.675781 421.125 483.824219 417.273438 488.550781 416.550781 C 490.925781 416.175781 491.148438 416 491.148438 414.648438 L 491.148438 413.699219 L 492.074219 413.5 C 492.601562 413.398438 493.574219 413.226562 494.25 413.101562 C 495.851562 412.851562 496.125 412.601562 496.125 411.425781 L 496.125 410.5 L 497.148438 410.273438 C 497.699219 410.148438 498.675781 409.976562 499.324219 409.898438 C 500.726562 409.726562 501.273438 409.226562 501.273438 408.125 C 501.273438 407.726562 501 402.175781 500.675781 395.75 C 500.074219 384.5 499.875 380.273438 499.199219 364.574219 C 498.75 353.851562 498.75 322.226562 499.199219 316.925781 C 500.148438 306.050781 500.824219 300.773438 503.523438 284.101562 C 505.851562 269.675781 506.625 263.976562 507.75 253.226562 C 508.648438 244.625 509 240.601562 508.851562 240.023438 C 508.726562 239.476562 507.875 239.023438 507.050781 239.023438 C 506.476562 239.023438 506.398438 238.851562 505.648438 236 C 502.875 225.476562 498.273438 215.351562 492.25 206.5 C 488.101562 200.398438 483 194.824219 477.050781 189.851562 C 466.898438 181.351562 448.851562 170.699219 433.25 164 C 430.601562 162.875 430.324219 162.875 429.601562 164.023438 C 429.324219 164.449219 429.050781 164.925781 428.949219 165.074219 C 428.824219 165.300781 428.148438 165.449219 426.375 165.648438 C 424.300781 165.925781 422.074219 165.949219 409.324219 165.949219 C 398.398438 165.949219 394.175781 165.898438 392.726562 165.726562 C 389.25 165.324219 389.476562 165.398438 389 164.449219 C 388.550781 163.574219 387.976562 163.050781 387.5 163.050781 C 387.351562 162.976562 386.050781 163.476562 384.648438 164.074219 "/>
<path style=" stroke:none;fill-rule:evenodd;fill:rgb(88.627451%,88.627451%,88.627451%);fill-opacity:1;" d="M 255.050781 45.601562 L 253.550781 49.25 L 252.851562 48.976562 L 250.125 55.648438 L 249 58.25 L 247.675781 61.125 L 246.726562 63.226562 L 242.824219 68.550781 L 236.523438 75.875 L 229.648438 82.675781 L 222.226562 88.875 L 216.398438 93.023438 L 210.351562 96.800781 L 204.074219 100.148438 L 195 104.148438 L 185.675781 107.648438 L 172.023438 112.300781 L 156.648438 116.875 L 157.824219 121.425781 L 159.550781 122.324219 L 160.523438 122.925781 L 161.398438 123.550781 L 162.101562 124.226562 L 162.601562 124.898438 L 163.023438 125.699219 L 163.449219 126.851562 L 163.398438 129.300781 L 163.375 130.949219 L 163.351562 134.300781 L 163.226562 137.023438 L 162.898438 140.925781 L 170.75 142 L 176.949219 143.199219 L 183.101562 144.699219 L 188.675781 146.375 L 194.125 148.324219 L 199.425781 150.601562 L 207.125 154.625 L 214.476562 159.300781 L 221.5 164.5 L 228.226562 170.175781 L 234.574219 176.25 L 240.5 182.699219 L 245.800781 189.273438 L 245.898438 189.425781 L 247.625 192.574219 L 249.601562 196.523438 L 253.023438 204 L 253.574219 203.773438 L 255.199219 207.351562 L 261.925781 204.699219 L 267.25 202.925781 L 272.625 201.449219 L 278.101562 200.199219 L 283.050781 199.25 L 288 198.5 L 294.476562 197.925781 L 300.976562 197.773438 L 310.226562 198.023438 L 310.226562 55.050781 L 300.976562 55.273438 L 293.773438 55.050781 L 286.625 54.351562 L 280.300781 53.273438 L 274.023438 51.898438 L 269.199219 50.675781 L 264.449219 49.25 L 260.523438 47.851562 Z M 255.050781 45.601562 "/>
<path style=" stroke:none;fill-rule:evenodd;fill:rgb(88.627451%,88.627451%,88.627451%);fill-opacity:1;" d="M 58.175781 45.601562 L 52.726562 47.824219 L 48.773438 49.226562 L 44.023438 50.648438 L 39.199219 51.875 L 32.925781 53.25 L 26.601562 54.324219 L 19.449219 55.023438 L 12.25 55.25 L 3 55.023438 L 3 198.023438 L 12.25 197.773438 L 18.75 197.925781 L 25.226562 198.5 L 30.175781 199.25 L 35.125 200.199219 L 40.601562 201.449219 L 46 203 L 51.324219 204.773438 L 58.050781 207.425781 L 59.675781 203.851562 L 60.226562 204.074219 L 63.648438 196.601562 L 65.625 192.648438 L 67.351562 189.5 L 67.449219 189.351562 L 72.75 182.773438 L 78.675781 176.324219 L 85.023438 170.25 L 91.75 164.574219 L 98.773438 159.351562 L 106.125 154.675781 L 113.824219 150.648438 L 119.125 148.375 L 124.574219 146.425781 L 130.148438 144.75 L 136.300781 143.25 L 142.5 142.050781 L 150.398438 140.976562 L 150.074219 137.074219 L 149.949219 134.351562 L 149.925781 131 L 149.898438 129.375 L 149.851562 126.898438 L 150.273438 125.75 L 150.699219 124.949219 L 151.199219 124.273438 L 151.898438 123.601562 L 152.773438 122.976562 L 153.75 122.375 L 155.476562 121.476562 L 156.648438 116.925781 L 141.273438 112.351562 L 127.625 107.699219 L 118.300781 104.199219 L 109.226562 100.199219 L 102.949219 96.851562 L 96.898438 93.074219 L 91.074219 88.925781 L 83.648438 82.726562 L 76.773438 75.925781 L 70.476562 68.601562 L 66.5 63.25 L 65.550781 61.148438 L 64.226562 58.273438 L 63.101562 55.648438 L 60.375 48.976562 L 59.675781 49.25 Z M 58.175781 45.601562 "/>
<path style=" stroke:none;fill-rule:evenodd;fill:rgb(88.627451%,88.627451%,88.627451%);fill-opacity:1;" d="M 76.226562 27.023438 L 76.226562 31.226562 L 79.523438 44.476562 L 76.25 57.726562 L 76.25 61.925781 L 237.050781 61.925781 L 237.050781 57.726562 L 233.773438 44.476562 L 237.050781 31.226562 L 237.050781 27.023438 Z M 154.425781 152.425781 L 152 152.75 L 149.699219 153.425781 L 147.574219 154.675781 L 146.226562 156.175781 L 145.300781 157.875 L 144.675781 159.648438 L 144.175781 161.925781 L 144 164.226562 L 144.148438 166.25 L 144 168.273438 L 144.175781 170.574219 L 144.675781 172.851562 L 145.300781 174.625 L 146.226562 176.324219 L 147.574219 177.824219 L 149.699219 179.074219 L 152 179.75 L 154.425781 180.050781 L 156.625 179.949219 L 158.824219 180.050781 L 161.25 179.75 L 163.550781 179.074219 L 165.675781 177.824219 L 167.023438 176.324219 L 167.949219 174.625 L 168.574219 172.851562 L 169.074219 170.574219 L 169.25 168.273438 L 169.101562 166.25 L 169.25 164.226562 L 169.074219 161.925781 L 168.574219 159.648438 L 167.949219 157.875 L 167.023438 156.175781 L 165.675781 154.675781 L 163.550781 153.425781 L 161.25 152.75 L 158.824219 152.449219 L 156.625 152.550781 Z M 154.425781 152.425781 "/>
<path style=" stroke:none;fill-rule:nonzero;fill:rgb(0%,34.117647%,71.764706%);fill-opacity:1;" d="M 108.574219 42.023438 L 113.925781 42.023438 L 113.925781 61.898438 L 108.574219 61.898438 Z M 108.574219 42.023438 "/>
<path style=" stroke:none;fill-rule:nonzero;fill:rgb(63.137255%,0%,61.176471%);fill-opacity:1;" d="M 103.226562 42.050781 L 108.574219 42.050781 L 108.574219 61.925781 L 103.226562 61.925781 Z M 103.226562 42.050781 "/>
<path style=" stroke:none;fill-rule:nonzero;fill:rgb(55.294118%,62.745098%,9.411765%);fill-opacity:1;" d="M 113.898438 42.050781 L 119.25 42.050781 L 119.25 61.925781 L 113.898438 61.925781 Z M 113.898438 42.050781 "/>
<path style=" stroke:none;fill-rule:evenodd;fill:rgb(88.627451%,88.627451%,88.627451%);fill-opacity:1;" d="M 470.398438 148.101562 L 315.574219 148.101562 L 315.976562 140.125 L 316.125 136.800781 L 316.273438 133.824219 L 316.425781 130.398438 L 316.898438 119.023438 L 317.175781 110.824219 L 317.351562 104.824219 L 317.5 96.773438 L 317.550781 92.925781 L 317.574219 89.574219 L 317.574219 74.175781 L 496.851562 74.175781 L 496.851562 89.574219 L 496.875 92.925781 L 496.925781 96.773438 L 497.074219 104.824219 L 497.25 110.824219 L 497.523438 119.023438 L 498 130.398438 L 498.148438 133.824219 L 498.300781 136.800781 L 498.476562 140.125 L 498.875 148.101562 Z M 470.398438 148.101562 "/>
<path style=" stroke:none;fill-rule:evenodd;fill:rgb(88.627451%,88.627451%,88.627451%);fill-opacity:1;" d="M 388.199219 162.175781 L 377.226562 167.074219 L 367.949219 171.851562 L 358.898438 177.050781 L 350.898438 182.074219 L 343.226562 187.601562 L 336.101562 193.824219 L 331.476562 198.773438 L 327.273438 204.074219 L 323.5 209.699219 L 320.148438 215.601562 L 317.375 221.425781 L 315 227.425781 L 313.023438 233.550781 L 311.898438 238.074219 L 506.476562 238.074219 L 505.351562 233.550781 L 503.375 227.425781 L 501 221.425781 L 498.226562 215.601562 L 494.875 209.699219 L 491.101562 204.074219 L 486.898438 198.773438 L 482.273438 193.824219 L 475.148438 187.601562 L 467.476562 182.074219 L 459.476562 177.050781 L 450.425781 171.851562 L 441.148438 167.074219 L 430.175781 162.175781 L 428.851562 164.949219 L 426.824219 165.25 L 423.925781 165.523438 L 421.625 165.648438 L 419.324219 165.699219 L 414.398438 165.726562 L 409.273438 165.773438 L 404.148438 165.726562 L 399.226562 165.699219 L 396.925781 165.648438 L 394.625 165.523438 L 391.726562 165.25 L 389.699219 164.949219 Z M 127.5 169.050781 L 118.648438 171.25 L 111.449219 173.75 L 104.5 176.925781 L 97.851562 180.75 L 93 184.101562 L 88.425781 187.824219 L 84.199219 191.925781 L 80.351562 196.398438 L 75.449219 203.550781 L 71.25 211.125 L 67.425781 218.824219 L 62.449219 229.074219 L 58.175781 238.550781 L 55.875 238.800781 L 154.25 238.800781 L 154.25 191.648438 L 152.324219 191.648438 L 149.351562 191.351562 L 146.398438 190.773438 L 143.5 189.898438 L 140.449219 188.648438 L 137.648438 187.074219 L 135.175781 185.125 L 133.550781 183.324219 L 132.125 181.273438 L 130.898438 179.074219 L 129.601562 176.050781 L 128.625 172.824219 Z M 185.75 169.050781 L 184.574219 172.824219 L 183.601562 176.050781 L 182.300781 179.074219 L 181.074219 181.273438 L 179.648438 183.324219 L 178.023438 185.125 L 175.550781 187.074219 L 172.75 188.648438 L 169.699219 189.898438 L 166.800781 190.773438 L 163.851562 191.351562 L 160.875 191.648438 L 158.949219 191.648438 L 158.949219 238.851562 L 257.324219 238.851562 L 255.023438 238.601562 L 250.75 229.125 L 245.773438 218.875 L 241.949219 211.148438 L 237.75 203.574219 L 232.851562 196.425781 L 229 191.949219 L 224.773438 187.851562 L 220.199219 184.125 L 215.351562 180.75 L 208.699219 176.949219 L 201.75 173.773438 L 194.550781 171.273438 Z M 185.75 169.050781 "/>
<path style=" stroke:none;fill-rule:evenodd;fill:rgb(66.666667%,0%,65.882353%);fill-opacity:1;" d="M 21.273438 54.875 L 19.449219 55.074219 L 12.25 55.300781 L 3 55.074219 L 3 198.074219 L 12.25 197.824219 L 18.75 197.976562 L 21.25 198.226562 Z M 292.425781 54.875 L 292.425781 198.25 L 294.476562 198 L 300.976562 197.851562 L 310.226562 198.101562 L 310.226562 55.050781 L 300.976562 55.273438 L 293.773438 55.050781 Z M 292.425781 54.875 "/>
<path style=" stroke:none;fill-rule:evenodd;fill:rgb(13.72549%,12.156863%,12.54902%);fill-opacity:1;" d="M 0 0 L 0 3.351562 L 3.351562 3.351562 L 3.351562 0 Z M 508.175781 432.699219 L 508.175781 436.050781 L 511.523438 436.050781 L 511.523438 432.699219 Z M 508.175781 432.699219 "/>
<path style=" stroke:none;fill-rule:nonzero;fill:rgb(88.627451%,88.627451%,88.627451%);fill-opacity:1;" d="M 304.449219 423.75 L 304.5 423.726562 L 304.101562 420.398438 L 304.148438 420.398438 L 303.75 417.074219 L 303.800781 417.074219 L 303.375 413.726562 L 303.425781 413.726562 L 303.023438 410.398438 L 303.074219 410.398438 L 302.324219 404.199219 L 301.773438 399.875 L 301.300781 396.226562 L 300.699219 391.425781 L 300.5 389.550781 L 300.050781 384.675781 L 299.523438 377.976562 L 298.648438 364.175781 L 297.875 348.226562 L 297.625 336.851562 L 297.523438 327.648438 L 297.523438 318.425781 L 297.648438 309.199219 L 297.800781 299.976562 L 298.101562 279.125 L 298.25 276.375 L 298.125 275.175781 L 298.175781 265.675781 L 298.148438 257.148438 L 298.101562 250.175781 L 298.050781 239.25 L 293.175781 239.300781 L 291.226562 241.925781 L 289.574219 243.601562 L 288.675781 244.324219 L 287.726562 244.949219 L 286.675781 245.449219 L 285.5 245.851562 L 284 246.25 L 282.550781 246.5 L 280.898438 246.476562 L 279.125 246.351562 L 277.550781 246.175781 L 276.125 245.875 L 274.851562 245.324219 L 273.601562 244.574219 L 271.949219 243.273438 L 270.476562 241.773438 L 268.675781 239.300781 L 263.773438 239.324219 L 263.851562 248.398438 L 263.898438 256.425781 L 263.925781 265.925781 L 263.898438 274.949219 L 264 276.375 L 263.398438 293.523438 L 263.125 305.851562 L 262.851562 317.125 L 262.773438 324.375 L 262.773438 331.625 L 263 342.449219 L 263.375 353.25 L 263.875 363.050781 L 264.5 372.851562 L 265.300781 382.726562 L 266.226562 392.601562 L 267.375 403.800781 L 267.5 404.773438 L 267.75 407.125 L 267.851562 408.125 L 268.101562 410.476562 L 269.601562 423.300781 L 273.351562 422.851562 L 300.625 427.601562 L 304.851562 427.074219 Z M 304.449219 423.75 "/>
<path style=" stroke:none;fill-rule:nonzero;fill:rgb(88.627451%,88.627451%,88.627451%);fill-opacity:1;" d="M 51.898438 315.699219 L 51.648438 309.824219 L 51.148438 300.699219 L 50.625 290.726562 L 49.851562 278.800781 L 49.773438 276.523438 L 49.851562 276.351562 L 49.949219 274.949219 L 49.851562 274.925781 L 49.824219 270.125 L 49.824219 265.925781 L 49.851562 256.425781 L 49.898438 248.398438 L 49.976562 239.351562 L 45.074219 239.324219 L 43.273438 241.800781 L 41.800781 243.300781 L 40.125 244.601562 L 38.875 245.351562 L 37.601562 245.875 L 36.175781 246.199219 L 34.601562 246.375 L 32.824219 246.5 L 31.175781 246.523438 L 29.726562 246.273438 L 28.199219 245.875 L 27.023438 245.476562 L 25.976562 244.976562 L 25.023438 244.351562 L 24.125 243.625 L 22.476562 241.949219 L 20.523438 239.324219 L 15.699219 239.25 L 15.648438 250.175781 L 15.625 257.175781 L 15.601562 265.675781 L 15.625 275.175781 L 15.726562 275.226562 L 15.625 276.398438 C 15.625 276.398438 15.648438 276.425781 15.675781 276.476562 L 15.601562 276.425781 L 15.675781 279.125 L 16.074219 298.976562 L 16.273438 307.75 L 16.425781 316.523438 L 16.476562 325.300781 L 16.449219 334.074219 L 16.273438 344.898438 L 15.476562 360.851562 L 14.625 374.625 L 14.101562 381.351562 L 13.5 388.074219 L 12.875 394.050781 L 12 401.425781 L 11.425781 406.226562 L 10.949219 409.875 L 10.398438 414.226562 L 9.625 420.425781 L 9.675781 420.425781 L 9.273438 423.75 L 9.324219 423.75 L 8.925781 427.074219 L 13.175781 427.601562 L 40.449219 422.875 L 44.199219 423.324219 L 45.699219 410.5 L 45.949219 408.148438 L 46.074219 407.175781 L 46.324219 404.824219 L 46.449219 403.851562 L 46.699219 401.5 L 46.824219 400.523438 L 47.074219 398.175781 L 47.199219 397.199219 L 47.449219 394.851562 L 47.574219 393.875 L 48.75 382.675781 L 49.675781 372.800781 L 50.476562 362.925781 L 51.101562 353.125 L 51.601562 343.324219 L 51.976562 332.523438 L 52.199219 321.675781 Z M 51.898438 315.699219 "/>
<path style=" stroke:none;fill-rule:nonzero;fill:rgb(0%,34.117647%,71.764706%);fill-opacity:1;" d="M 60.425781 285.351562 L 155.125 285.351562 L 155.125 293.300781 L 60.425781 293.300781 Z M 60.425781 285.351562 "/>
<path style=" stroke:none;fill-rule:nonzero;fill:rgb(0%,34.117647%,71.764706%);fill-opacity:1;" d="M 158.050781 285.351562 L 252.75 285.351562 L 252.75 293.300781 L 158.050781 293.300781 Z M 158.050781 285.351562 "/>
<path style=" stroke:none;fill-rule:nonzero;fill:rgb(63.137255%,0%,61.176471%);fill-opacity:1;" d="M 60.425781 277.398438 L 155.125 277.398438 L 155.125 285.351562 L 60.425781 285.351562 Z M 60.425781 277.398438 "/>
<path style=" stroke:none;fill-rule:nonzero;fill:rgb(63.137255%,0%,61.176471%);fill-opacity:1;" d="M 158.050781 277.398438 L 252.75 277.398438 L 252.75 285.351562 L 158.050781 285.351562 Z M 158.050781 277.398438 "/>
<path style=" stroke:none;fill-rule:nonzero;fill:rgb(55.294118%,62.745098%,9.411765%);fill-opacity:1;" d="M 60.425781 269.449219 L 155.125 269.449219 L 155.125 277.398438 L 60.425781 277.398438 Z M 60.425781 269.449219 "/>
<path style=" stroke:none;fill-rule:nonzero;fill:rgb(55.294118%,62.745098%,9.411765%);fill-opacity:1;" d="M 158.050781 269.449219 L 252.75 269.449219 L 252.75 277.398438 L 158.050781 277.398438 Z M 158.050781 269.449219 "/>
<path style=" stroke:none;fill-rule:nonzero;fill:rgb(0%,34.117647%,71.764706%);fill-opacity:1;" d="M 310.226562 285.351562 L 506.476562 285.351562 L 506.476562 293.300781 L 310.226562 293.300781 Z M 310.226562 285.351562 "/>
<path style=" stroke:none;fill-rule:nonzero;fill:rgb(63.137255%,0%,61.176471%);fill-opacity:1;" d="M 310.226562 277.398438 L 506.476562 277.398438 L 506.476562 285.351562 L 310.226562 285.351562 Z M 310.226562 277.398438 "/>
<path style=" stroke:none;fill-rule:nonzero;fill:rgb(55.294118%,62.745098%,9.411765%);fill-opacity:1;" d="M 310.226562 269.449219 L 506.476562 269.449219 L 506.476562 277.398438 L 310.226562 277.398438 Z M 310.226562 269.449219 "/>
<path style=" stroke:none;fill-rule:evenodd;fill:rgb(94.901961%,94.901961%,94.901961%);fill-opacity:1;" d="M 150.398438 176 L 162.773438 176 L 162.773438 454 L 150.398438 454 Z M 150.398438 176 "/>
</g>
</svg>
