<?xml version="1.0" encoding="utf-8"?>
<!-- Generator: Adobe Illustrator 26.0.3, SVG Export Plug-In . SVG Version: 6.00 Build 0)  -->
<svg version="1.1" id="Layer_1" xmlns="http://www.w3.org/2000/svg" xmlns:xlink="http://www.w3.org/1999/xlink" x="0px" y="0px"
	 viewBox="0 0 1024 1024" style="enable-background:new 0 0 1024 1024;" xml:space="preserve">
<style type="text/css">
	.st0{fill-rule:evenodd;clip-rule:evenodd;fill:#F2F2F2;}
	.st1{fill-rule:evenodd;clip-rule:evenodd;fill:#8DA018;}
	.st2{fill:#55AFDF;}
	.st3{fill:#0F4D5F;}
</style>
<path id="color-2" class="st0" d="M338.5,328.4l-0.3,4.1l0.3,4.1l-0.4,4.6l-1,4.6l-1.2,3.6l-1.8,3.4l-2.7,3l-4.2,2.5l-1.6,0.5V908
	h-24.8V358.6l-1.4-0.4l-4.2-2.5l-2.7-3l-1.8-3.4l-1.2-3.6l-1-4.6l-0.4-4.6l0.3-4.1l-0.3-4.1l0.4-4.6l1-4.6l1.2-3.6l1.8-3.4l2.7-3
	l4.2-2.5l4.6-1.4l4.9-0.6l4.4,0.2l4.4-0.2l4.9,0.6l4.6,1.4l4.2,2.5l2.7,3l1.8,3.4l1.2,3.6l1,4.6L338.5,328.4z M152.4,62.4l6.6,26.5
	l-6.6,26.5v8.4h321.6v-8.4l-6.6-26.5l6.6-26.5v-8.4H152.4V62.4z M608.9,847.5l0.1-0.1l-0.8-6.6h0.1l-0.8-6.7h0.1l-0.9-6.7h0.1
	l-0.4-2.8l-0.4-3.8h0.1l-1.5-12.4l-1.1-8.6l-0.9-7.3l-1.2-9.6l-0.4-3.8l-0.9-9.8l-1.1-13.4l-1.8-27.6l-1.6-31.9l-0.5-22.8l-0.2-18.4
	v-18.4l0.2-18.5l0.3-18.4l0.6-41.7l0.3-5.5l-0.2-2.4l0.1-19l-0.1-17.1l-0.1-13.9l-0.1-21.9l-9.8,0.1l-3.9,5.2l-3.3,3.3l-1.8,1.4
	l-1.9,1.2l-2.1,1l-2.4,0.8l-3,0.8l-2.9,0.5l-3.3-0.1l-3.6-0.2l-3.1-0.3l-2.9-0.6l-2.6-1.1l-2.5-1.5l-3.3-2.6l-2.9-3l-3.6-4.9l-9.8,0
	l0.1,18.2l0.1,16.1l0.1,19l-0.1,18l0.2,2.9l-1.2,34.3l-0.6,24.6l-0.6,22.6l-0.1,14.5v14.5l0.4,21.6l0.8,21.6l1,19.6l1.2,19.6
	l1.6,19.8l1.8,19.8l2.3,22.4l0.2,1.9l0.5,4.7l0.2,2l0.5,4.7l3,25.7l7.5-0.9l54.6,9.5l8.4-1.1L608.9,847.5z M103.3,619.6l-1-18.2
	l-1.1-19.9l-1.6-23.8l-0.1-4.6l0.1-0.4l0.2-2.8l-0.2,0l-0.1-9.6v-8.4l0.1-19l0.1-16.1l0.1-18.1l-9.8-0.1l-3.6,5l-2.9,3l-3.4,2.6
	l-2.5,1.5l-2.6,1.1l-2.8,0.6l-3.2,0.4l-3.6,0.2l-3.3,0.1l-2.9-0.5l-3.1-0.8l-2.3-0.8l-2.1-1l-1.9-1.2l-1.8-1.4l-3.3-3.4l-3.9-5.2
	l-9.7-0.1l-0.1,21.9l-0.1,14l-0.1,17l0.1,19l0.2,0.1l-0.2,2.4c0,0,0.1,0.1,0.1,0.1l-0.2-0.1l0.2,5.4l0.8,39.7l0.4,17.6l0.3,17.6
	l0.1,17.6l-0.1,17.5l-0.3,21.7l-1.6,31.9l-1.7,27.6l-1.1,13.4L27,776.1l-1.2,12L24,802.9l-1.1,9.6l-1,7.3l-1.1,8.7l-1.6,12.4h0.1
	l-0.8,6.6h0.1l-0.8,6.6l8.5,1.1l54.5-9.4l7.5,0.9l3-25.6l0.5-4.7l0.2-1.9l0.5-4.7l0.2-1.9l0.5-4.7l0.2-1.9l0.5-4.7l0.2-2l0.5-4.7
	l0.2-1.9l2.4-22.4l1.9-19.8l1.6-19.8l1.2-19.6l1-19.6l0.8-21.6l0.4-21.7l-0.6-12L103.3,619.6z"/>
<path id="base" class="st1" d="M22.5,815.4l-1.4,0.2l-0.3,11.9h0.1l-0.8,6.7H20l-0.8,6.6h0.1l0,0l-0.8,6.6h0l0.1,0l-0.8,6.7l8.5,1h0
	l54.5-9.5l7.5,0.9l3-25.6l0.5-4.7l1.3-12L22.5,815.4z M608.9,847.5L608.9,847.5l-0.7-6.7h0.1l-0.8-6.6h0.1l-0.8-6.7h0.1l-0.3-11.9
	l-1-0.2l-71.1-11.2l0,0.2l0.4,4.1l0.8,7.8l0.5,4.7l3,25.6l7.5-0.9l54.5,9.5l8.5-1L608.9,847.5z M997,280.2l-0.4-6.7l-0.3-5.9
	l-0.3-6.9l-1-22.8l-0.5-16.4l-0.3-12l-0.3-16.1l-0.1-7.7l0-6.7v-30.8H635.2v30.8l-0.1,6.7l-0.1,7.7l-0.3,16.1l-0.4,12l-0.5,16.4
	l-1,22.8l-0.3,6.9l-0.3,5.9l-0.3,6.7l-0.8,16h366.6L997,280.2z M282.5,224.7l-27.3-9.3l-18.7-7l-18.1-8l-12.5-6.7l-12.1-7.5
	l-11.6-8.3l-14.9-12.4l-13.8-13.6L141,137.2l-8-10.7l-1.9-4.2l-2.6-5.8l-2.2-5.2L120.8,98l-1.4,0.5l-3-7.3l-10.9,4.5l-7.9,2.8
	l-9.5,2.8l-9.6,2.5l-12.6,2.8l-12.6,2.2L38.9,110l-14.4,0.5L6,110v286l18.5-0.5l13,0.3l13,1.2l9.9,1.5l9.9,1.9l11,2.5L92,406
	l10.7,3.5l13.4,5.3l3.2-7.1l1.1,0.5l6.8-15l4-7.9l3.5-6.3l0.2-0.3l10.6-13.2l11.8-12.9l12.7-12.2l13.5-11.3l14-10.5l14.7-9.4l15.4-8
	l10.6-4.5l10.9-3.9l11.1-3.3l12.3-3l12.4-2.4l15.8-2.1l-0.6-7.8l-0.2-5.5l-0.1-6.7l0-3.2l-0.1-5l0.8-2.3l0.9-1.6l1-1.4l1.4-1.3
	l1.8-1.2l2-1.2l3.5-1.8l2.3-9.1L282.5,224.7z M602,110.5l-14.4-0.5l-14.3-1.4l-12.7-2.2l-12.5-2.8l-9.6-2.5l-9.5-2.8l-7.9-2.8
	l-11-4.5l-3,7.3l-1.4-0.5l-5.5,13.3l-2.2,5.2l-2.7,5.8l-1.9,4.2l-7.8,10.6L473,151.8l-13.8,13.6l-14.8,12.4l-11.7,8.3l-12.1,7.5
	l-12.5,6.7l-18.2,8l-18.7,7l-27.3,9.3l-30.8,9.2l2.4,9.1l3.4,1.8l2,1.2l1.8,1.2l1.4,1.4l1,1.3l0.8,1.6l0.9,2.3l-0.1,4.9l0,3.3l0,6.7
	l-0.2,5.5l-0.7,7.8l15.7,2.2l12.4,2.4l12.3,3l11.1,3.3l10.9,3.9l10.6,4.5l15.4,8l14.7,9.3l14,10.4l13.5,11.3l12.7,12.2l11.8,12.9
	l10.6,13.1l0.2,0.3l3.5,6.3l4,7.9l6.8,15l1.1-0.5l3.2,7.2l13.4-5.3l10.7-3.6l10.8-2.9l11-2.5l9.9-1.9l9.9-1.5l13-1.2l13-0.3
	l18.5,0.5v-286L602,110.5z M1017.7,480c-0.2-1.1-2-2-3.6-2c-0.8,0-1.1-0.2-1.6-1.9h0.5l-2.2-9.1l-4-12.2l-4.8-12l-5.5-11.6
	l-6.7-11.8l-7.5-11.2l-8.4-10.6l-9.2-9.9l-14.2-12.5l-15.3-11l-16-10.1l-18.1-10.4l-18.5-9.5l-22-9.8l-2.6,5.6l-4,0.6l-5.8,0.5
	l-4.6,0.2l-4.6,0.1l-9.9,0l-10.2,0.1l-10.2-0.1l-9.8,0l-4.6-0.1l-4.6-0.2l-5.8-0.5l-4-0.6l-3-5.6l-22,9.8l-18.5,9.5l-18.1,10.4
	l-16,10.1l-15.3,11l-14.2,12.5l-9.2,9.9l-8.4,10.6l-7.5,11.2l-6.7,11.8l-5.5,11.6l-4.8,12l-4,12.2l-2.2,9.1h0.3
	c-0.5,1.5-0.9,1.7-1.6,1.7c-1.3,0-3,0.8-3.5,1.5c-0.5,1-0.5,3.8,0.8,15.1c2.9,28.2,4.5,41.1,8,63c7.7,47.9,9.2,59.8,10.9,84.5
	c0.6,9,0.2,70.4-0.5,87.3c-1.6,36-1.9,43.3-3.7,76.2l-0.6,11.8l0.8,1c0.5,0.8,1.2,1,2.4,1.3c5.9,1,6.9,1.3,6.9,2.2
	c0,3,1.3,4.5,4,4.5c0.8,0,2.5,0.2,3.8,0.5l2.5,0.5l0.2,2.2c0.1,1.2,0.3,2.3,0.6,2.6c0.3,0.3,1.8,0.7,3.5,0.9
	c8.9,1.1,36.7,8.5,56.2,15c35.8,12,62.4,17.3,97.8,19.8c6,0.4,7.3,0.4,16.5-0.3c16.6-1.4,31.1-3.4,45.4-6.3
	c15.7-3.2,27.5-6.5,46.9-12.9c18-6,46.3-13.7,55.8-15.2c4.8-0.8,5.2-1.1,5.2-3.8v-1.9l1.9-0.4c1-0.2,3-0.5,4.3-0.8
	c3.2-0.5,3.8-1,3.8-3.4V821l2-0.5c1.1-0.2,3-0.6,4.4-0.8c2.8-0.3,3.9-1.3,3.9-3.5c0-0.8-0.5-11.9-1.2-24.8
	c-1.2-22.5-1.6-31-2.9-62.3c-0.9-21.5-0.9-84.7,0-95.3c1.9-21.8,3.2-32.3,8.6-65.6c4.7-28.9,6.2-40.2,8.5-61.8
	C1017.3,489.2,1018,481.2,1017.7,480z M298.7,382.7l-5.9-1.2l-5.8-1.8l-6.1-2.5l-5.6-3.1l-5-3.9l-3.2-3.6l-2.8-4.1l-2.5-4.4
	l-2.6-6.1l-2-6.4l-2.2-7.6l-17.7,4.4l-14.4,5l-13.9,6.3l-13.3,7.7l-9.7,6.7l-9.2,7.5l-8.4,8.2l-7.7,9l-9.8,14.3l-8.4,15.2l-7.7,15.4
	l-9.9,20.5l-8.6,18.9l-4.6,0.5h4.5c-0.2,0.2-1,0.3-1.5,0.3s-1.7,0.3-2.3,0.8l-1.2,0.8l0,3c0.1,3.5,3.5,34.5,5.2,47.7
	c1.3,9.8,2.6,18.2,6.4,41.6c4.1,25.7,6,39.2,7.8,59.8c0.5,6.2,0.7,11.2,0.7,45.1c0,25.5-0.2,41.8-0.5,49c-0.2,6-0.8,18.3-1.2,27.5
	c-0.8,19.2-1.6,36.6-2.1,44.8c-0.5,8.5-0.5,8.8,0.6,10.1l1,1.2l4.2-0.1l4.1-0.1l-0.2,2c-0.2,1.9-0.1,2.1,0.8,3
	c0.8,0.9,1.5,1.1,3.3,1.3c1.2,0.2,3.1,0.1,4.2-0.1l1.8-0.3v3.3c0,4.6,0.2,5,4.7,5.1c3.8,0.1,3.5,0.2,22-5.2
	c28-8.1,52.7-14.4,77-19.3c16.5-3.3,35.8-6.2,49.6-7.3V382.9L298.7,382.7z M515.3,480c-0.3-1.2-2.2-2.3-4-2.3h-1.4l0,0h4.8l-4.6-0.5
	l-8.5-19l-10-20.5l-7.6-15.5l-8.4-15.1l-9.8-14.3l-7.7-8.9l-8.5-8.2l-9.1-7.5l-9.7-6.8l-13.3-7.6l-13.9-6.4l-14.4-5l-17.6-4.5
	l-2.3,7.6l-2,6.4l-2.6,6.1l-2.4,4.4l-2.9,4.1l-3.2,3.6l-5,3.9l-5.6,3.1l-6.1,2.5l-5.8,1.8l-5.9,1.2l-2.2,0.2v408.3
	c9.6,0.7,21.3,2.2,35.5,4.6c24.8,4.1,60.6,12.9,96.4,23.5c11.1,3.3,12.3,3.6,15.7,3.8l3.6,0.2l1.1-1.1c1.1-1.1,1.1-1.2,1-4.3
	c-0.1-2.7,0-3.1,0.4-3c3.2,0.9,7.5,0.5,8.8-0.7c0.7-0.7,0.8-1.2,0.8-3.1v-2.2l3.8,0.2c6,0.2,6.8-0.5,6.4-6c-0.5-7.5-1.7-33.2-3.1-66
	c-0.8-16.7-0.8-22.9-0.8-59.1c0-43.8,0-41.8,2.2-62c1.5-14,2.9-23.5,6.9-48.1c3.5-21.8,4.5-28.6,5.9-38.2
	C512.2,512.9,515.5,481.2,515.3,480z"/>
<path id="stripe-2" class="st2" d="M217.1,84.1h10.7v39.8h-10.7V84.1z"/>
<path id="stripe-1" class="st3" d="M206.4,84.1h10.7v39.8h-10.7V84.1z M227.8,123.9h10.7V84.1h-10.7V123.9z M24.5,110.6L6,110.1v286
	l18.5-0.5l13,0.3l5,0.5l0.1-286.7l-3.7,0.4L24.5,110.6z M601.9,110.6l-14.4-0.4l-2.7-0.4v286.8l4.1-0.5l13-0.3l18.5,0.5V110.1
	L601.9,110.6z"/>
</svg>
