<?xml version="1.0" encoding="utf-8"?>
<!-- Generator: Adobe Illustrator 26.0.3, SVG Export Plug-In . SVG Version: 6.00 Build 0)  -->
<svg version="1.1" id="Layer_1" xmlns="http://www.w3.org/2000/svg" xmlns:xlink="http://www.w3.org/1999/xlink" x="0px" y="0px"
	 viewBox="0 0 2048 2048" style="enable-background:new 0 0 2048 2048;" xml:space="preserve">
<style type="text/css">
	.st0{fill-rule:evenodd;clip-rule:evenodd;fill:#0057B7;}
	.st1{fill-rule:evenodd;clip-rule:evenodd;fill:#0057B7;stroke:#000000;stroke-width:6.301250e-02;stroke-miterlimit:10;}
	.st2{fill-rule:evenodd;clip-rule:evenodd;fill:#003865;}
	.st3{fill-rule:evenodd;clip-rule:evenodd;fill:#231F20;}
	.st4{fill:#B3D5E7;}
	.st5{fill:#FFFFFF;}
	.st6{fill:#313850;}
</style>
<g id="surface1">
	<path class="st0" d="M745,680.4c-1,0.7-2.6,4.3-4.8,11.2c-4.8,14.6-6.6,19.3-10.1,26.4c-9.9,19.9-23.6,32.5-45,41
		c-15.6,6.3-32.4,9.2-52.6,9.2c-7.1,0-7.5,0.1-9.4,1.9l-2,1.9v806.9l1.6,1.8c1.6,1.8,1.6,1.8,16.5,2.5c21.5,0.9,48.6,4.1,83.5,9.9
		c49.5,8.2,121.3,25.8,192.9,47.1c22.3,6.6,24.7,7.2,31.4,7.5l7.2,0.3l2.2-2.2c2.2-2.2,2.2-2.3,2-8.6c-0.2-5.4-0.1-6.3,0.8-6.1
		c6.5,1.7,15.1,1,17.6-1.4c1.4-1.4,1.6-2.4,1.6-6.2v-4.6l7.5,0.3c12,0.5,13.5-0.9,12.8-11.9c-1-14.9-3.4-66.5-6.2-132.2
		c-1.5-33.4-1.6-45.7-1.6-118.3c0-87.7-0.1-83.7,4.3-124c3.1-28.1,5.8-47.1,13.8-96.3c7.1-43.6,9.1-57.2,11.7-76.4
		c4.5-33.5,11.3-96.8,10.8-99.2c-0.6-2.4-4.4-4.6-7.9-4.6h-2.9l-4.9-10.8c-17.9-39.7-47.9-100.8-58.3-118.5
		c-18-30.7-31.1-48-50.2-66.5c-21.1-20.4-45.3-37.4-72.9-51.4c-24.9-12.6-44.4-19.8-73.6-27.1C748.3,679,747.1,678.9,745,680.4
		 M503.1,679.8c-6.6,1.1-26.7,6.6-38,10.5c-43.6,14.7-82.9,37.5-114.7,66.7c-23.3,21.5-42.6,48.1-63.1,87.4
		c-10.9,20.9-33.4,67-44.9,92.2c-4.7,10.3-9,19-9.5,19.3c-0.5,0.3-1.9,0.6-3.1,0.6c-1.2,0-3.3,0.8-4.6,1.7l-2.4,1.6l0.1,6
		c0.2,7.1,7,69,10.5,95.4c2.6,19.6,5.2,36.5,12.8,83.3c8.4,51.5,11.9,78.4,15.7,119.7c1.1,12.3,1.3,22.3,1.3,90.3
		c0,51.1-0.3,83.6-0.9,98.1c-0.5,11.9-1.6,36.7-2.3,55.1c-1.6,38.6-3.2,73.2-4.2,89.5c-1,17.1-1,17.7,1.2,20.3l1.9,2.3l8.3-0.3
		l8.3-0.2l-0.4,4.1c-0.4,3.8-0.2,4.2,1.7,6.1c1.7,1.7,2.9,2.2,6.7,2.6c2.5,0.3,6.2,0.2,8.3-0.2l3.7-0.7v6.6c0,9.3,0.5,9.9,9.3,10.2
		c7.6,0.2,6.9,0.4,44-10.4c55.9-16.3,105.5-28.8,154-38.8c38.3-7.9,84.5-14.2,112-15.3c12.4-0.5,14.3-0.8,16-2l1.9-1.4V771.5
		l-1.9-1.5c-1.7-1.2-3.5-1.5-14.2-2c-19.8-0.9-30.5-2.8-43.6-7.6c-30.4-11.2-45.5-28.2-57.3-64.1C510,678.8,509.9,678.7,503.1,679.8
		"/>
	<path class="st1" d="M1540,656.9c-44.2,19.2-93.2,45.9-133.7,73c-56.2,37.5-92.4,76.3-121.5,130.1c-13.2,24.5-26.8,59.1-33.3,85.1
		c-2.6,10.4-3.1,11.4-5.3,11.4c-2.6,0-6.1,1.5-6.9,2.9c-1.1,2.1-0.9,7.6,1.5,30.2c5.7,56.5,9,82.3,16,126.1
		c15.4,95.9,18.4,119.7,21.7,169.1c1.2,18.1,0.5,140.9-1,174.8c-3.2,72.1-3.8,86.8-7.3,152.6l-1.2,23.6l1.5,2
		c1.1,1.5,2.4,2.1,4.9,2.6c11.8,2,13.8,2.6,13.8,4.3c0,5.9,2.7,8.9,8,8.9c1.5,0,4.9,0.5,7.6,1.1l4.9,1.1l0.3,4.3
		c0.2,2.4,0.7,4.7,1.4,5.3c0.6,0.6,3.6,1.4,7.1,1.8c17.8,2.2,73.3,17.1,112.6,30.2c71.7,23.9,124.9,34.7,195.7,39.6
		c12,0.8,14.6,0.8,32.9-0.7c33.2-2.7,62.3-6.7,90.9-12.6c31.5-6.4,54.9-12.9,93.8-25.9c36.1-12,92.7-27.4,111.6-30.3
		c9.5-1.5,10.4-2.2,10.4-7.6v-3.8l3.7-0.8c2.1-0.4,6-1.1,8.7-1.6c6.4-1,7.5-2,7.5-6.7v-3.7l4.1-0.9c2.2-0.5,6.1-1.2,8.7-1.5
		c5.7-0.7,7.8-2.7,7.8-7.1c0-1.6-1.1-23.8-2.4-49.5c-2.4-45-3.2-61.9-5.9-124.9c-1.8-42.9-1.8-169.6,0-190.8
		c3.8-43.6,6.5-64.7,17.3-131.5c9.3-57.7,12.4-80.5,17-123.7c3.6-34.4,5-50.6,4.4-52.8c-0.5-2.2-3.9-4.1-7.2-4.1
		c-2.3,0-2.6-0.7-5.6-12.2c-11.2-42.1-29.6-82.6-53.7-118.1c-16.6-24.4-37-46.8-60.8-66.7c-40.7-34-112.9-76.6-175.4-103.5
		c-10.6-4.6-11.7-4.6-14.6,0.1c-1.1,1.7-2.2,3.6-2.6,4.2c-0.5,0.9-3.2,1.5-10.3,2.3c-8.4,1.1-17.2,1.2-68.2,1.2
		c-43.7,0-60.6-0.2-66.4-0.9c-13.9-1.6-13-1.4-15-5.2c-1.8-3.5-4.1-5.6-6-5.6C1550.8,652.4,1545.6,654.4,1540,656.9"/>
	<path class="st0" d="M1021.2,182.6l-6,14.6l-2.8-1.1l-10.9,26.7l-4.6,10.3l-5.3,11.5l-3.8,8.4l-15.6,21.4L947,303.8L919.4,331
		l-29.7,24.8l-23.3,16.6l-24.3,15.1L817,400.9l-36.3,16l-37.3,14l-54.6,18.7l-61.6,18.3l4.7,18.3l6.9,3.6l3.9,2.4l3.5,2.5l2.8,2.7
		l2,2.7l1.7,3.2l1.7,4.6l-0.2,9.8l-0.1,6.6l-0.1,13.4l-0.5,10.9l-1.4,15.6l31.6,4.3l24.9,4.8l24.6,6l22.3,6.7l21.8,7.8l21.3,9.1
		l30.8,16.1l29.4,18.7l28.1,20.9l26.9,22.7l25.4,24.3l23.8,25.9l21.2,26.4l0.4,0.6l6.9,12.6l7.9,15.9l13.7,30l2.2-0.9l6.5,14.3
		l27-10.6l21.3-7.1l21.6-5.9l21.9-5l19.8-3.8l19.8-3l25.9-2.3l26-0.6l37.1,1V220.4l-37.1,0.9l-28.8-0.9l-28.6-2.8l-25.3-4.3
		l-25.2-5.5l-19.3-4.9l-19-5.7l-15.7-5.6L1021.2,182.6z"/>
	<path class="st0" d="M232.9,182.6l-21.8,9l-15.8,5.6l-19,5.7l-19.3,4.9l-25.2,5.5l-25.3,4.3l-28.6,2.8l-28.8,0.9L12,220.4V793
		l37.1-1l26,0.6l25.9,2.3l19.8,3l19.8,3.8l21.9,5l21.6,5.9l21.3,7.1l27,10.6l6.5-14.3l2.2,0.9l13.7-30l7.9-15.9l6.9-12.6l0.4-0.6
		l21.2-26.4l23.8-25.9l25.4-24.3l26.9-22.7l28.1-20.9l29.4-18.7l30.8-16.1l21.2-9.1l21.9-7.8l22.3-6.7l24.6-6l24.9-4.8l31.6-4.3
		l-1.3-15.6l-0.5-10.9l-0.1-13.4l-0.1-6.5l-0.2-9.9l1.7-4.6l1.7-3.2l2-2.7l2.8-2.7l3.5-2.5l3.9-2.5l6.9-3.6l4.7-18.3l-61.6-18.3
		l-54.6-18.7l-37.3-14l-36.3-16L412,387.6l-24.3-15.1l-23.3-16.6L334.7,331l-27.6-27.2l-25.3-29.3l-15.6-21.3l-3.8-8.4l-5.3-11.5
		l-4.5-10.5L241.7,196l-2.8,1.1L232.9,182.6z"/>
	<path class="st0" d="M62.9,957.9l-0.2,43.7l-0.1,28l-0.1,34l0.1,38.1l16,6.6l12.6,3.9l12.9,2.8l16.8,1.8l16.8-0.2l14.9-1.8l14.6-3
		l14.3-4.1l18-6.8l-0.1-19.3l0-16.8l0.1-38l0.2-32.2l0.3-36.2l-19.6-0.1l-7.2,9.9l-5.9,6l-6.7,5.2l-5,3l-5.2,2.1l-5.7,1.3l-6.3,0.7
		l-7.1,0.5l-6.6,0.1l-5.8-1l-6.1-1.6l-4.7-1.6l-4.2-2l-3.8-2.5l-3.6-2.9l-6.6-6.7l-7.8-10.5L62.9,957.9z M1193.2,957.9l-19.5,0.1
		l-7.8,10.5l-6.6,6.7l-3.6,2.9l-3.8,2.5l-4.2,2l-4.7,1.6l-6.1,1.6l-5.8,1l-6.6-0.1l-7.1-0.5l-6.3-0.7l-5.7-1.3l-5.2-2.1l-5-3
		l-6.7-5.2l-5.9-6l-7.2-9.9l-19.6,0.1l0.3,36.3l0.2,32.2l0.1,38l-0.1,36.2l18.1,6.7l14.3,4.1l14.6,3.1l14.9,1.8l16.8,0.2l16.8-1.8
		l12.9-2.8l12.6-3.9l16-6.6l0.1-38l-0.1-34.1l-0.1-28L1193.2,957.9z M199.3,1106.4l-24.3,10l-15.6,4.8l-12,2.6l-12,1.5l-12.8,0.2
		l-12.7-1.3l-12.9-2.8l-12.5-4.3l-22.1-10.4l0.3,10.8l1.6,79.5l0.8,35.2l0.6,35.1l0.3,35.1l-0.1,35.1l-0.7,43.3l-3.2,63.9l-3.4,55.2
		l-2.1,26.9l-2.4,26.9l-2.5,24l-3.5,29.5l-2.3,19.2l-1.9,14.6l-2.2,17.4l-3.1,24.8l0.2,0l-1.6,13.3l0.2,0l-1.6,13.3l17,2.1
		l109.2-18.9l15,1.8l6-51.4l1-9.4l0.5-3.9l1-9.4l0.5-3.9l1-9.4l0.5-3.9l1-9.4l0.5-3.9l1-9.4l0.5-3.9l4.7-44.8l3.7-39.5l3.2-39.6
		l2.5-39.2l2-39.2l1.5-43.3l0.9-43.4l-0.7-23.7l-1-23.6l-2-36.5l-2.1-40l-3.1-47.7L199.3,1106.4z M1056.9,1106.4l-2.4,68.7
		l-1.1,49.4l-1.1,45.1l-0.3,29.1v29.1l0.9,43.3l1.5,43.3l2,39.2l2.5,39.2l3.2,39.6l3.7,39.5l4.7,44.8l0.5,3.9l1,9.4l0.5,3.9l1,9.4
		l6,51.4l15-1.8l109.2,18.9l17-2.1l-1.6-13.3l0.2,0l-1.6-13.3l0.2,0l-1.6-13.3l0.2,0l-1.6-13.3l0.2,0l-1.6-13.3l0.2,0l-3.1-24.8
		l-2.2-17.4l-1.9-14.6l-2.3-19.2l-0.9-7.5l-1.8-19.5l-2.1-26.9l-3.4-55.2l-3.2-63.9l-1-45.5l-0.4-36.9l0-36.9l0.5-36.9l0.6-37
		l1.2-83.4l0.5-11l-22.4,10.5l-12.5,4.3l-12.9,2.8l-12.7,1.3l-12.8-0.2l-12-1.5l-12-2.6l-15.6-4.8L1056.9,1106.4z"/>
	<path class="st0" d="M305.2,108.2V125l13.2,53L305.2,231v16.8H949V231L935.8,178l13.2-53v-16.8L305.2,108.2L305.2,108.2z
		 M618.2,610.3l-9.7,1.2l-9.2,2.7l-8.5,5l-5.4,6l-3.7,6.8l-2.5,7.1l-2,9.1l-0.7,9.2l0.6,8.1l-0.6,8.1l0.7,9.2l2,9.1l2.5,7.1l3.7,6.8
		l5.4,6l8.5,5l9.2,2.7l9.7,1.2l8.8-0.4l8.8,0.4l9.7-1.2l9.2-2.7l8.5-5l5.4-6l3.7-6.8l2.5-7.1l2-9.1l0.7-9.2l-0.6-8.1l0.6-8.1
		l-0.7-9.2l-2-9.1l-2.5-7.1l-3.7-6.8l-5.4-6l-8.5-5l-9.2-2.7l-9.7-1.2l-8.8,0.4L618.2,610.3z"/>
	<path class="st0" d="M1883.3,592.9h-619.8l1.6-31.9l0.6-13.3l0.6-11.9l0.6-13.7l1.9-45.5l1.1-32.9l0.7-24.1l0.6-32.3l0.2-15.4
		l0.1-13.4v-61.7h717.8v61.6l0.1,13.4l0.2,15.4l0.6,32.3l0.7,24.1l1.1,32.9l1.9,45.6l0.6,13.7l0.6,11.9l0.7,13.3l1.6,31.9
		L1883.3,592.9L1883.3,592.9z"/>
	<path class="st0" d="M1554.2,649.3l-44,19.7l-37.1,19.2l-36.3,20.9l-32,20.2l-30.8,22.1l-28.6,24.9l-18.5,19.8l-16.8,21.2
		l-15.1,22.6l-13.4,23.6l-11.2,23.3l-9.6,24l-7.9,24.6l-4.6,18.2h779l-4.5-18.2l-7.9-24.6l-9.6-24l-11.2-23.3l-13.4-23.6l-15.1-22.6
		l-16.8-21.2l-18.5-19.8l-28.6-24.9l-30.8-22.1l-32-20.2l-36.3-20.9l-37.1-19.2l-44-19.7l-5.3,11.2l-8.1,1.2l-11.6,1.1l-9.2,0.5
		l-9.2,0.3l-19.7,0.1l-20.5,0.2l-20.5-0.2l-19.8-0.1l-9.2-0.3l-9.2-0.5l-11.6-1.1l-8.1-1.2L1554.2,649.3z M510.5,676.8l-35.4,8.8
		l-28.8,10.1l-27.9,12.7l-26.6,15.2l-19.5,13.5L354,752l-17,16.4l-15.4,17.9L302.1,815l-16.8,30.3L270,876.2l-19.9,41.1l-17.1,37.9
		l-9.2,1h393.9V767.3h-7.7l-11.9-1.2l-11.8-2.3l-11.6-3.5l-12.2-5l-11.2-6.3l-9.9-7.9l-6.5-7.2l-5.7-8.2l-4.9-8.8l-5.2-12.1
		l-3.9-12.9L510.5,676.8z M743.6,676.8l-4.7,15.1l-3.9,12.9l-5.2,12.1l-4.9,8.8l-5.7,8.2l-6.5,7.2l-9.9,7.9l-11.2,6.3l-12.2,5
		l-11.6,3.5l-11.8,2.3l-11.9,1.2h-7.7v188.9h393.9l-9.2-1l-17.1-37.9l-19.9-41l-15.3-30.9L951.9,815l-19.6-28.6l-15.4-17.9L900,752
		l-18.3-15l-19.5-13.5l-26.6-15.2l-27.9-12.7l-28.8-10.1L743.6,676.8z"/>
	<path class="st2" d="M85.9,219.6l-8,0.8l-28.8,0.9L12,220.4V793l37.1-1l26,0.6l10.8,1V219.6z M1168.2,219.6v574.1l10.8-1l26-0.6
		l37.1,1V220.4l-37.1,0.9l-28.8-0.9L1168.2,219.6z"/>
	<path class="st3" d="M0,0v13.4h13.4V0H0z M2034.6,1732.4v13.4h13.4v-13.4H2034.6z"/>
	<path class="st4" d="M421.2,1030.2h199.9l0.4,153H467.8c-3.6,0-6.7-2.2-7.9-5.7c-7.9-22.7-36.2-106.1-46.5-136.5
		C411.5,1035.8,415.6,1030.2,421.2,1030.2z"/>
	<path class="st5" d="M425.7,1029.4h195.4l0.4,153H471.2c-3.4,0-6.7-2.2-7.7-5.7c-7.7-22.7-35.4-106.1-45.5-136.5
		C416.2,1035.2,420,1029.4,425.7,1029.4z"/>
	<path class="st5" d="M388.6,958.8H621l0.2,50H405.1c-2.4,0-4.7-1.4-5.9-3.6c-4-7.7-11.9-26.1-16.6-37.2
		C380.7,963.6,383.7,958.8,388.6,958.8z"/>
	<path class="st4" d="M841,1041.1c-10.3,30.3-38.6,113.8-46.5,136.5c-1.2,3.4-4.2,5.7-7.9,5.7H632.9l0.4-153h199.9
		C838.8,1030.2,842.9,1035.8,841,1041.1z"/>
	<path class="st5" d="M836.4,1040.3c-10.1,30.3-37.8,113.8-45.5,136.5c-1,3.4-4.2,5.7-7.7,5.7H632.9l0.4-153h195.4
		C834.4,1029.4,838.2,1035.2,836.4,1040.3z"/>
	<path class="st5" d="M871.8,968.1c-4.7,11.1-12.5,29.5-16.6,37.2c-1.2,2.2-3.4,3.6-5.9,3.6h-216l0.2-50h232.3
		C870.6,958.8,873.6,963.6,871.8,968.1z"/>
	<path class="st4" d="M1420.6,1214.6H1836c1.8-0.8,15.7-19.3,21.8-27.4c1.3-1.8-0.5-3.8-3.3-3.8h-448.2c-2.8,0-4.6,1.8-3.3,3.6
		L1420.6,1214.6z"/>
	<path class="st5" d="M1420.6,1220.4H1836c1.8-0.8,13.2-19.6,18.3-27.7c1-1.8-0.8-3.6-3.6-3.6h-440.8c-2.5,0-4.3,1.8-3.6,3.3
		L1420.6,1220.4z"/>
	<path class="st5" d="M374.3,575.1l59.6-129.6l-69.7-35.2l-93.3,186L374.3,575.1z"/>
	<path class="st5" d="M223.5,601.6l96.2-209.4l-83.1-31.4L123.9,606.5L223.5,601.6z"/>
	<path class="st5" d="M471.3,560.8l36.3-93.6l-47.8-13.8l-55,118.4L471.3,560.8z"/>
	<path class="st6" d="M232,601.6l96.5-209.4l-83.4-31.4L132.6,606.5L232,601.6z"/>
	<path class="st6" d="M478.4,560.8l36.7-93.6l-48.7-11.9l-55.3,116.5L478.4,560.8z"/>
	<path class="st5" d="M973.1,599.9l-93.3-186l-69.7,35.2l59.6,129.6L973.1,599.9z"/>
	<path class="st5" d="M1120.1,610.2l-112.6-245.7l-83.2,31.4l96.2,209.4L1120.1,610.2z"/>
	<path class="st5" d="M839.3,575.5l-54.9-118.4l-47.9,13.8l36.3,93.6L839.3,575.5z"/>
	<path class="st6" d="M1111.4,610.2L998.9,364.5l-83.3,31.4l96.4,209.4L1111.4,610.2z"/>
	<path class="st6" d="M833,575.5L777.6,459l-48.7,11.9l36.7,93.6L833,575.5z"/>
	<path class="st5" d="M39.1,958.8l-2,370l186.3-76.6l-15-187.9v-139H62.5L39.1,958.8z"/>
	<path class="st5" d="M280.7,854.7l120.9,336.7l-145.1,60.1l-73-267.6L280.7,854.7z"/>
	<path class="st5" d="M1211.7,958.8l2.1,370l-186.4-76.6l15.1-187.9v-139h145.9L1211.7,958.8z"/>
	<path class="st5" d="M970.3,854.7l-120.9,336.7l143.6,53.8l74.5-261.3L970.3,854.7z"/>
	<path class="st6" d="M399.6,1237l1.1,177L239.5,1481l6.9-152.1L399.6,1237z"/>
	<path class="st6" d="M210.3,1303.2l-1.2,166.9L46.9,1552L57.2,1395L210.3,1303.2z"/>
	<path class="st6" d="M849.2,1237l-1.1,177l161.1,67.1l-7-152.1L849.2,1237z"/>
	<path class="st6" d="M1038.4,1303.2l1.1,166.9l162.2,81.9l-10.3-156.9L1038.4,1303.2z"/>
</g>
</svg>
