<?xml version="1.0" encoding="utf-8"?>
<!-- Generator: Adobe Illustrator 26.0.3, SVG Export Plug-In . SVG Version: 6.00 Build 0)  -->
<svg version="1.1" id="ts" xmlns:svg="http://www.w3.org/2000/svg"
	 xmlns="http://www.w3.org/2000/svg" xmlns:xlink="http://www.w3.org/1999/xlink" x="0px" y="0px" viewBox="0 0 2048 2048"
	 style="enable-background:new 0 0 2048 2048;" xml:space="preserve">
<style type="text/css">
	.st0{fill-rule:evenodd;clip-rule:evenodd;fill:#E2E2E2;}
	.st1{fill:#0057B7;}
	.st2{fill:#A1009C;}
	.st3{fill:#8DA018;}
	.st4{fill-rule:evenodd;clip-rule:evenodd;fill:#AA00A8;}
	.st5{display:none;fill:none;stroke:#838A8F;stroke-width:0.2382;stroke-linejoin:bevel;stroke-miterlimit:3.55;}
	.st6{fill-rule:evenodd;clip-rule:evenodd;fill:#231F20;}
	.st7{fill:#E2E2E2;}
	.st8{fill-rule:evenodd;clip-rule:evenodd;fill:#F2F2F2;}
</style>
<path id="c1" class="st0" d="M744.3,679.8c-1,0.7-2.6,4.3-4.8,11.2c-4.8,14.6-6.6,19.3-10.1,26.3c-9.9,19.9-23.6,32.4-44.9,41
	c-15.6,6.2-32.4,9.2-52.6,9.2c-7.1,0-7.5,0.1-9.4,1.9l-2,1.9v403.1v403.1l1.6,1.8c1.6,1.8,1.6,1.8,16.5,2.5
	c21.5,0.9,48.6,4.1,83.4,9.9c49.5,8.2,121.2,25.7,192.8,47c22.3,6.6,24.7,7.2,31.4,7.5l7.2,0.3l2.2-2.2c2.2-2.2,2.2-2.3,2-8.6
	c-0.2-5.4-0.1-6.3,0.8-6.1c6.5,1.7,15.1,1,17.5-1.4c1.4-1.4,1.6-2.4,1.6-6.2v-4.5l7.5,0.3c12,0.5,13.5-0.9,12.8-11.9
	c-1-14.9-3.4-66.4-6.2-132.1c-1.5-33.4-1.6-45.7-1.6-118.2c0-87.6-0.1-83.7,4.3-123.9c3.1-28.1,5.8-47.1,13.8-96.2
	c7.1-43.6,9.1-57.2,11.7-76.3c4.5-33.4,11.3-96.7,10.8-99.1c-0.6-2.4-4.4-4.6-7.9-4.6h-2.9l-4.9-10.8C997,905,967,844,956.6,826.3
	c-18-30.6-31-48-50.2-66.4c-21.1-20.3-45.2-37.3-72.8-51.3c-24.9-12.6-44.3-19.8-73.5-27.1C747.7,678.4,746.5,678.3,744.3,679.8
	 M502.7,679.3c-6.6,1.1-26.7,6.6-38,10.5c-43.6,14.7-82.9,37.5-114.6,66.7c-23.3,21.4-42.5,48-63.1,87.3
	c-10.9,20.8-33.4,67-44.9,92.1c-4.7,10.3-9,19-9.5,19.3s-1.9,0.6-3.1,0.6s-3.3,0.7-4.6,1.7l-2.4,1.6l0.1,6c0.2,7.1,7,68.9,10.5,95.3
	c2.6,19.6,5.2,36.5,12.8,83.2c8.3,51.4,11.9,78.3,15.7,119.6c1.1,12.3,1.3,22.3,1.3,90.2c0,51-0.3,83.5-0.9,98
	c-0.5,11.9-1.6,36.7-2.3,55c-1.6,38.5-3.2,73.2-4.2,89.5c-1,17-1,17.6,1.2,20.2l1.9,2.3l8.3-0.2l8.3-0.2l-0.4,4
	c-0.4,3.8-0.2,4.2,1.7,6.1c1.7,1.7,2.9,2.2,6.7,2.6c2.5,0.3,6.2,0.2,8.3-0.2l3.7-0.7v6.6c0,9.3,0.5,9.9,9.3,10.2
	c7.6,0.2,6.9,0.4,43.9-10.4c55.9-16.3,105.4-28.8,153.9-38.7c38.3-7.8,84.4-14.2,111.9-15.3c12.4-0.5,14.3-0.7,16-2l1.9-1.4v-403.9
	V770.8l-1.9-1.5c-1.7-1.2-3.5-1.5-14.2-2c-19.8-0.9-30.5-2.8-43.6-7.6c-30.4-11.2-45.5-28.2-57.3-64
	C509.5,678.2,509.4,678.1,502.7,679.3"/>
<path id="c9" class="st0" d="M1538.6,656.3c-44.2,19.2-93.1,45.9-133.6,73c-56.1,37.5-92.3,76.2-121.4,130
	c-13.2,24.5-26.7,59-33.3,85c-2.6,10.4-3.1,11.4-5.3,11.4c-2.6,0-6.1,1.5-6.9,2.9c-1.1,2.1-0.9,7.6,1.5,30.2c5.7,56.5,9,82.2,16,126
	c15.4,95.8,18.4,119.6,21.7,169c1.2,18.1,0.5,140.8-1,174.7c-3.2,72.1-3.8,86.7-7.3,152.5l-1.2,23.6l1.5,2c1.1,1.5,2.4,2.1,4.9,2.6
	c11.8,2,13.8,2.6,13.8,4.3c0,5.9,2.7,8.9,8,8.9c1.5,0,4.9,0.5,7.6,1.1l4.9,1.1l0.3,4.3c0.2,2.4,0.7,4.7,1.3,5.3
	c0.6,0.6,3.6,1.3,7.1,1.8c17.8,2.2,73.3,17.1,112.5,30.1c71.6,23.9,124.8,34.6,195.5,39.5c12,0.8,14.6,0.8,32.9-0.7
	c33.2-2.7,62.2-6.7,90.8-12.6c31.4-6.4,54.9-12.9,93.8-25.8c36-12,92.6-27.4,111.5-30.3c9.5-1.5,10.4-2.2,10.4-7.6v-3.8l3.7-0.8
	c2.1-0.4,6-1.1,8.7-1.6c6.4-1,7.5-2,7.5-6.7v-3.7l4.1-0.9c2.2-0.5,6.1-1.2,8.7-1.5c5.6-0.7,7.8-2.7,7.8-7.1c0-1.6-1.1-23.8-2.4-49.5
	c-2.4-45-3.2-61.9-5.9-124.7c-1.8-42.9-1.8-169.4,0-190.6c3.8-43.5,6.5-64.6,17.3-131.3c9.3-57.7,12.4-80.5,16.9-123.5
	c3.6-34.4,5-50.5,4.4-52.8c-0.5-2.2-3.9-4-7.2-4c-2.3,0-2.6-0.7-5.6-12.1c-11.1-42.1-29.5-82.6-53.6-118
	c-16.6-24.4-37-46.7-60.8-66.6c-40.6-34-112.8-76.6-175.2-103.4c-10.6-4.5-11.7-4.5-14.6,0.1c-1.1,1.7-2.2,3.6-2.6,4.2
	c-0.5,0.9-3.2,1.5-10.3,2.3c-8.3,1.1-17.2,1.2-68.2,1.2c-43.7,0-60.6-0.2-66.4-0.9c-13.9-1.6-13-1.3-14.9-5.1
	c-1.8-3.5-4.1-5.6-6-5.6C1549.4,651.9,1544.2,653.9,1538.6,656.3"/>
<path id="c2" class="st0" d="M1020.2,182.4l-6,14.6l-2.8-1.1l-10.9,26.7L996,233l-5.3,11.5l-3.8,8.4l-15.6,21.3l-25.2,29.3
	l-27.5,27.2l-29.7,24.8l-23.3,16.6l-24.2,15.1l-25.1,13.4l-36.3,16l-37.3,14l-54.6,18.6l-61.5,18.3l4.7,18.2l6.9,3.6l3.9,2.4
	l3.5,2.5l2.8,2.7l2,2.7l1.7,3.2l1.7,4.6l-0.2,9.8l-0.1,6.6l-0.1,13.4l-0.5,10.9l-1.3,15.6L683,568l24.8,4.8l24.6,6l22.3,6.7
	l21.8,7.8l21.2,9.1l30.8,16.1l29.4,18.7L886,658l26.9,22.7l25.4,24.3l23.7,25.8l21.2,26.3l0.4,0.6l6.9,12.6l7.9,15.8l13.7,29.9
	l2.2-0.9l6.5,14.3l26.9-10.6l21.3-7.1l21.5-5.9l21.9-5l19.8-3.8l19.8-3l25.9-2.3l26-0.6l37,1v-478v-93.9l-37,0.9l-28.8-0.9
	l-28.6-2.8l-25.3-4.3l-25.1-5.5l-19.3-4.9l-19-5.7l-15.7-5.6L1020.2,182.4z"/>
<path id="c3" class="st0" d="M232.7,182.4l-21.8,8.9l-15.8,5.6l-19,5.7l-19.3,4.9l-25.1,5.5l-25.3,4.3l-28.6,2.8L49,221l-37-0.9
	v478.1v93.9l37-1l26,0.6l25.9,2.3l19.8,3l19.8,3.8l21.9,5L184,812l21.3,7.1l26.9,10.6l6.5-14.3l2.2,0.9l13.7-29.9l7.9-15.8l6.9-12.6
	l0.4-0.6l21.2-26.3l23.7-25.8l25.4-24.3l26.9-22.7l28.1-20.9l29.4-18.7l30.8-16.1l21.2-9.1l21.8-7.8l22.3-6.7l24.6-6l24.8-4.8
	l31.6-4.3l-1.3-15.6l-0.5-10.9l-0.1-13.4l-0.1-6.5l-0.2-9.9l1.7-4.6l1.7-3.2l2-2.7l2.8-2.7l3.5-2.5l3.9-2.4l6.9-3.6l4.7-18.2
	l-61.5-18.3l-54.6-18.6l-37.3-14l-36.3-16l-25.1-13.4l-24.2-15.1l-23.3-16.6l-29.7-24.8l-27.5-27.2l-25.2-29.3L266,253l-3.8-8.4
	l-5.3-11.5l-4.5-10.5l-10.9-26.7l-2.8,1.1L232.7,182.4z"/>
<path id="c5" class="st0" d="M304.9,108.1v16.8l13.2,53l-13.1,53v16.8h643.2v-16.8l-13.1-53l13.1-53v-16.8H356.6L304.9,108.1
	L304.9,108.1z M617.7,609.7L608,611l-9.2,2.7l-8.5,5l-5.4,6l-3.7,6.8l-2.5,7.1l-2,9.1l-0.7,9.2l0.6,8.1l-0.6,8.1l0.7,9.2l2,9.1
	l2.5,7.1l3.7,6.8l5.4,6l8.5,5l9.2,2.7l9.7,1.2l8.8-0.4l8.8,0.4l9.7-1.2l9.2-2.7l8.5-5l5.4-6l3.7-6.8l2.5-7.1l2-9.1l0.7-9.2l-0.6-8.1
	l0.6-8.1l-0.7-9.2l-2-9.1l-2.5-7.1l-3.7-6.8l-5.4-6l-8.5-5L645,611l-9.7-1.2l-8.8,0.4L617.7,609.7z"/>
<rect x="434.3" y="168.1" class="st1" width="21.4" height="79.5"/>
<rect x="412.9" y="168.2" class="st2" width="21.4" height="79.5"/>
<rect x="455.6" y="168.2" class="st3" width="21.4" height="79.5"/>
<path id="c6" class="st0" d="M1881.6,592.4h-619.3l1.6-31.9l0.6-13.3l0.6-11.9l0.6-13.7l1.9-45.5l1.1-32.8l0.7-24l0.6-32.2l0.2-15.4
	l0.1-13.4v-11.5v-13.2v-36.9h717.1v36.9v13.2v11.5l0.1,13.4l0.2,15.4l0.6,32.2l0.7,24l1.1,32.8l1.9,45.5l0.6,13.7l0.6,11.9l0.7,13.3
	l1.6,31.9H1881.6L1881.6,592.4z"/>
<path id="c7" class="st0" d="M1552.8,648.7l-43.9,19.6l-37.1,19.1l-36.2,20.8l-32,20.1l-30.7,22.1l-28.5,24.9l-18.5,19.8l-16.8,21.2
	l-15.1,22.5l-13.4,23.6l-11.1,23.3l-9.5,24l-7.9,24.5l-4.5,18.1h778.3l-4.5-18.1l-7.9-24.5l-9.5-24l-11.1-23.3l-13.4-23.6
	l-15.1-22.5l-16.8-21.2l-18.5-19.8l-28.5-24.9l-30.7-22.1l-32-20.1l-36.2-20.8l-37.1-19.1l-43.9-19.6l-5.3,11.1l-8.1,1.2l-11.6,1.1
	l-9.2,0.5l-9.2,0.2l-19.7,0.1l-20.5,0.2l-20.5-0.2l-19.7-0.1l-9.2-0.2l-9.2-0.5l-11.6-1.1l-8.1-1.2L1552.8,648.7z M510,676.2
	l-35.4,8.8l-28.8,10L418,707.7L391.4,723L372,736.4l-18.3,14.9l-16.9,16.4l-15.4,17.9l-19.6,28.6L285,844.5l-15.3,30.8l-19.9,41
	l-17.1,37.9l-9.2,1H617V766.6h-7.7l-11.9-1.2l-11.8-2.3l-11.6-3.5l-12.2-5l-11.2-6.3l-9.9-7.8l-6.5-7.2l-5.7-8.2l-4.9-8.8l-5.2-12.1
	l-3.9-12.9L510,676.2z M743,676.2l-4.7,15.1l-3.9,12.9l-5.2,12.1l-4.9,8.8l-5.7,8.2l-6.5,7.2l-9.9,7.8l-11.2,6.3l-12.2,5l-11.6,3.5
	l-11.8,2.3l-11.9,1.2h-7.7v188.8h393.5l-9.2-1l-17.1-37.9l-19.9-41l-15.3-30.9L951,814.3l-19.6-28.6L916,767.8l-16.9-16.4
	l-18.3-14.9L861.4,723l-26.6-15.2L807,695.1l-28.8-10L743,676.2z"/>
<path id="c8" class="st4" d="M85.1,219.5l-7.3,0.8L49,221.2l-37-0.9v478.1v93.9l37-1l26,0.6l10,1L85.1,219.5L85.1,219.5z
	 M1169.7,219.5V793l8.2-1l26-0.6l37,1V314.1v-93.9l-37,0.9l-28.8-0.9L1169.7,219.5z"/>
<path id="shapes" class="st5" d="M626.5,713.1l8.5,0.4l8.6-1.1l7.9-2.3l6.9-4l4.2-4.7l3.1-5.6l2.2-6.2l1.8-8.2l0.6-8.2l-0.6-8.1
	l0.6-8.1l-0.6-8.2l-1.8-8.2l-2.2-6.2l-3.1-5.6l-4.2-4.7l-6.9-4l-7.9-2.3l-8.6-1.1l-8.5,0.4V665V713.1L626.5,713.1z M626.5,713.1
	l8.5,0.4l8.6-1.1l7.9-2.3l6.9-4l4.2-4.7l3.1-5.6l2.2-6.2l1.8-8.2l0.6-8.2l-0.6-8.1l0.6-8.1l-0.6-8.2l-1.8-8.2l-2.2-6.2l-3.1-5.6
	l-4.2-4.7l-6.9-4l-7.9-2.3l-8.6-1.1l-8.5,0.4V665V713.1L626.5,713.1z M626.5,713.1l8.5,0.4l8.6-1.1l7.9-2.3l6.9-4l4.2-4.7l3.1-5.6
	l2.2-6.2l1.8-8.2l0.6-8.2l-0.6-8.1l0.6-8.1l-0.6-8.2l-1.8-8.2l-2.2-6.2l-3.1-5.6l-4.2-4.7l-6.9-4l-7.9-2.3l-8.6-1.1l-8.5,0.4V665
	V713.1L626.5,713.1z M626.5,713.1l8.5,0.4l8.6-1.1l7.9-2.3l6.9-4l4.2-4.7l3.1-5.6l2.2-6.2l1.8-8.2l0.6-8.2l-0.6-8.1l0.6-8.1
	l-0.6-8.2l-1.8-8.2l-2.2-6.2l-3.1-5.6l-4.2-4.7l-6.9-4l-7.9-2.3l-8.6-1.1l-8.5,0.4V665V713.1L626.5,713.1z M626.5,713.1l8.5,0.4
	l8.6-1.1l7.9-2.3l6.9-4l4.2-4.7l3.1-5.6l2.2-6.2l1.8-8.2l0.6-8.2l-0.6-8.1l0.6-8.1l-0.6-8.2l-1.8-8.2l-2.2-6.2l-3.1-5.6l-4.2-4.7
	l-6.9-4l-7.9-2.3l-8.6-1.1l-8.5,0.4V665V713.1L626.5,713.1z M626.5,713.1l8.5,0.4l8.6-1.1l7.9-2.3l6.9-4l4.2-4.7l3.1-5.6l2.2-6.2
	l1.8-8.2l0.6-8.2l-0.6-8.1l0.6-8.1l-0.6-8.2l-1.8-8.2l-2.2-6.2l-3.1-5.6l-4.2-4.7l-6.9-4l-7.9-2.3l-8.6-1.1l-8.5,0.4V665V713.1
	L626.5,713.1z M626.5,713.1l8.5,0.4l8.6-1.1l7.9-2.3l6.9-4l4.2-4.7l3.1-5.6l2.2-6.2l1.8-8.2l0.6-8.2l-0.6-8.1l0.6-8.1l-0.6-8.2
	l-1.8-8.2l-2.2-6.2l-3.1-5.6l-4.2-4.7l-6.9-4l-7.9-2.3l-8.6-1.1l-8.5,0.4V665V713.1L626.5,713.1z M626.5,713.1l8.5,0.4l8.6-1.1
	l7.9-2.3l6.9-4l4.2-4.7l3.1-5.6l2.2-6.2l1.8-8.2l0.6-8.2l-0.6-8.1l0.6-8.1l-0.6-8.2l-1.8-8.2l-2.2-6.2l-3.1-5.6l-4.2-4.7l-6.9-4
	l-7.9-2.3l-8.6-1.1l-8.5,0.4V665V713.1L626.5,713.1z M1980.9,303.3v30.2v13.2v11.5l0.1,13.5l0.2,15.4l0.6,32.3l0.7,24.1l1.1,32.9
	l1.9,45.6l0.6,13.7l0.6,11.9l0.7,13.3l1.2,24.9h-245.2H1629h-114.4h-245.2l1.2-24.9l0.6-13.3l0.6-11.9l0.6-13.7l1.9-45.6l1.1-32.9
	l0.7-24.1l0.6-32.3l0.2-15.4l0.1-13.5v-11.5v-13.2v-30.2h237.5H1629h114.4H1980.9L1980.9,303.3z M1960.7,303.3v30.2v13.2v11.5
	l0.1,13.5l0.2,15.4l0.6,32.3l0.7,24.1l1.1,32.9l1.9,45.6l0.6,13.7l0.6,11.9l0.7,13.3l1.2,24.9h-231.8H1629h-107.7h-231.8l1.2-24.9
	l0.6-13.3l0.6-11.9l0.6-13.7l1.9-45.5l1.1-32.9l0.7-24.1l0.6-32.3l0.2-15.4l0.1-13.5v-11.5v-13.2v-30.2h224H1629h107.7L1960.7,303.3
	L1960.7,303.3z M1940.6,303.3v30.2v13.2v11.5l0.1,13.5l0.2,15.4l0.6,32.3l0.7,24.1l1.1,32.9l1.9,45.5l0.6,13.7l0.6,11.9l0.7,13.3
	l1.2,24.8H1730h-101h-101h-218.4l1.2-24.8l0.6-13.3l0.6-11.9l0.6-13.7l1.9-45.5l1.1-32.9l0.7-24.1l0.6-32.3l0.2-15.4l0.1-13.5v-11.5
	v-13.2v-30.2H1528h101h101L1940.6,303.3L1940.6,303.3z M1866.8,303.3v30.2v13.2v11.5l0.1,13.5l0.2,15.4l0.6,32.3l0.7,24.1l1.1,32.9
	l1.9,45.5l0.6,13.7l0.6,11.9l0.7,13.3l1.2,24.8h-169h-76.6h-76.6h-169l1.2-24.8l0.6-13.3l0.6-11.9l0.6-13.7l1.9-45.5l1.1-32.9
	l0.7-24.1l0.6-32.3l0.2-15.4l0.1-13.5v-11.5v-13.2v-30.2h161.2h76.6h76.6L1866.8,303.3L1866.8,303.3z M1920.5,303.3v30.2v13.2v11.5
	l0.1,13.5l0.2,15.4l0.6,32.3l0.7,24.1l1.1,32.9l1.9,45.5l0.6,13.7l0.6,11.9l0.7,13.3l1.2,24.8h-204.9H1629h-94.3h-204.9l1.2-24.8
	l0.6-13.3l0.6-11.9l0.6-13.7l1.9-45.5l1.1-32.9l0.7-24.1l0.6-32.3l0.2-15.4l0.1-13.5v-11.5v-13.2v-30.2h197.2h94.3h94.3
	L1920.5,303.3L1920.5,303.3z M1880.3,303.3v30.2v13.2v11.5l0.1,13.5l0.2,15.4l0.6,32.3l0.7,24.1l1.1,32.9l1.9,45.6l0.6,13.7
	l0.6,11.9l0.7,13.3l1.2,24.9h-178h-81h-81h-178l1.2-24.9l0.6-13.3l0.6-11.9l0.6-13.7l1.9-45.6l1.1-32.9l0.7-24.1l0.6-32.3l0.2-15.4
	l0.1-13.5v-11.5v-13.2v-30.2H1548h81h81H1880.3L1880.3,303.3z M1893.6,303.3v30.2v13.2v11.5l0.1,13.5l0.2,15.4l0.6,32.3l0.7,24.1
	l1.1,32.9l1.9,45.6l0.6,13.7l0.6,11.9l0.7,13.3l1.2,24.9h-186.9H1629h-85.4h-186.9l1.2-24.9l0.6-13.3l0.6-11.9l0.6-13.7l1.9-45.6
	l1.1-32.9l0.7-24.1l0.6-32.3l0.2-15.4l0.1-13.5v-11.5v-13.2v-30.2h179.2h85.4h85.4H1893.6L1893.6,303.3z M1907.1,303.3v30.2v13.2
	v11.5l0.1,13.5l0.2,15.4l0.6,32.3l0.7,24.1l1.1,32.9l1.9,45.6l0.6,13.7l0.6,11.9l0.7,13.3l1.2,24.9h-196H1629h-89.9h-196l1.2-24.9
	l0.6-13.3l0.6-11.9l0.6-13.7l1.9-45.6l1.1-32.9l0.7-24.1l0.6-32.3l0.2-15.4l0.1-13.5v-11.5v-13.2v-30.2h188.2h89.9h89.9H1907.1
	L1907.1,303.3z M1209.1,1675.8l-2.2-18.1l-2.2-17.3l-1.9-14.6l-2.3-19.2l-3.9-33.4l-3.5-33.5l-2.4-26.9l-2.1-27l-3.4-55.2l-3.2-64
	l-0.4-41.3l0.1-33.4l0.4-33.4l0.8-33.4l1-33.4l2-75.4l-12.6,5.9l-13.2,4.5l-13.6,3l-13.5,1.4l-13.5-0.2l-12.7-1.6l-12.5-2.7
	l-16.1-4.9l-15.5-6.4l-2.1,59l-1.1,49.2l-1.1,45l-0.3,28.9v28.9l0.9,43.2l1.5,43.1l1.9,39.1l2.5,39.1l3.2,39.4l3.7,39.4l4.7,44.7
	l5.2,44.6l9.3-1.1l109.1,18.9L1209.1,1675.8L1209.1,1675.8z M1210.5,1689.1l-2.2-18.1l-2.2-17.3l-1.9-14.6l-2.3-19.2l-3.9-33.4
	l-3.5-33.5l-2.4-26.9l-2.1-27l-3.4-55.2l-3.2-64l-0.7-43.5l-0.2-35.2l0.2-35.1l0.6-35.1l0.8-35.1l1.6-79.4l-12.6,5.9l-13.2,4.5
	l-13.6,3l-13.5,1.4l-13.5-0.2l-12.7-1.6l-12.5-2.7l-16.1-4.9l-15.5-6.4l-1.7,62.7l-0.8,52.4l-0.8,47.8l-0.1,30.8l0.2,30.8l0.9,43.2
	l1.5,43.1l1.9,39.1l2.5,39l3.2,39.4l3.7,39.4l4.7,44.7l5.2,44.6l9.3-1.1l109.1,18.9L1210.5,1689.1z M1212,1702.4l-2.2-18.1
	l-2.2-17.3l-1.9-14.6l-2.3-19.2l-3.9-33.4l-3.5-33.5l-2.4-26.9l-2.1-27l-3.4-55.2l-3.2-64l-1-45.7l-0.4-37v-37l0.5-37l0.6-36.9
	l1.2-83.5l-12.6,5.9l-13.2,4.5l-13.6,3l-13.5,1.4l-13.5-0.2l-12.7-1.6l-12.5-2.7l-16.1-4.9l-15.5-6.4l-1.4,66.5l-0.5,55.5l-0.5,50.7
	l0.1,32.6l0.5,32.6l0.9,43.2l1.5,43.1l1.9,39.1l2.5,39l3.2,39.4l3.7,39.4l4.7,44.7l5.2,44.6l9.3-1.1l109.1,18.9L1212,1702.4z
	 M1204.8,1635.7l-2.2-18.1l-2.2-17.3l-1.9-14.6l-2.3-19.2l-3.9-33.4l-3.5-33.5l-2.4-26.9l-2.1-27l-3.4-55.2l-3.2-64l0.5-34.7l0.7-28
	l1-28l2.8-56.1l3.2-63.3l-12.6,5.9l-13.2,4.5l-13.6,3l-13.5,1.4l-13.5-0.2l-12.7-1.6l-12.5-2.7l-16.1-4.9l-15.5-6.4l-3.1,47.8
	l-2.1,39.9l-2,36.5l-1,23.5l-0.7,23.5l0.9,43.2l1.5,43.1l1.9,39.1l2.5,39l3.2,39.4l3.7,39.4l4.7,44.7l5.2,44.6l9.3-1.1l109.1,18.9
	L1204.8,1635.7z M1210.5,1689.1l-2.2-18.1l-2.2-17.3l-1.9-14.6l-2.3-19.2l-3.9-33.4l-3.5-33.5l-2.4-26.9l-2.1-27l-3.4-55.2l-3.2-64
	l-0.7-43.5l-0.2-35.2l0.2-35.1l0.6-35.1l0.8-35.1l1.6-79.4l-12.6,5.9l-13.2,4.5l-13.6,3l-13.5,1.4l-13.5-0.2l-12.7-1.6l-12.5-2.7
	l-16.1-4.9l-15.5-6.4l-1.7,62.7l-0.8,52.4l-0.8,47.8l-0.1,30.8l0.2,30.8l0.9,43.2l1.5,43.1l1.9,39.1l2.5,39l3.2,39.4l3.7,39.4
	l4.7,44.7l5.2,44.6l9.3-1.1l109.1,18.9L1210.5,1689.1z M1206.2,1649.1l-2.2-18.1l-2.2-17.3l-1.9-14.6l-2.3-19.2l-3.9-33.4l-3.5-33.5
	l-2.4-26.9l-2.1-27l-3.4-55.2l-3.2-64l0.2-36.9l0.5-29.8l0.8-29.8l2.4-59.6l2.8-67.3l-12.6,5.9l-13.2,4.5l-13.6,3l-13.5,1.4
	l-13.5-0.2l-12.7-1.6l-12.5-2.7l-16.1-4.9l-15.5-6.4l-2.8,51.5l-1.8,43l-1.7,39.3l-0.7,25.3l-0.5,25.3l0.9,43.2l1.5,43.1l1.9,39.1
	l2.5,39.1l3.2,39.4l3.7,39.4l4.7,44.7l5.2,44.6l9.3-1.1l109.1,18.9L1206.2,1649.1z M1207.6,1662.4l-2.2-18.1l-2.2-17.3l-1.9-14.6
	l-2.3-19.2l-3.9-33.4l-3.5-33.5l-2.4-26.9l-2.1-27l-3.4-55.2l-3.2-64l-0.1-39.1l0.3-31.6l0.6-31.6l2.1-63.2l2.4-71.4l-12.6,5.9
	l-13.2,4.5l-13.6,3l-13.5,1.4l-13.5-0.2l-12.7-1.6l-12.5-2.7l-16.1-4.9l-15.5-6.4l-2.4,55.3l-1.5,46.1l-1.4,42.1l-0.5,27.1
	l-0.2,27.1l0.9,43.2l1.5,43.1l1.9,39.1l2.5,39l3.2,39.4l3.7,39.4l4.7,44.7l5.2,44.6l9.3-1.1l109.1,18.9L1207.6,1662.4z
	 M1209.1,1675.8l-2.2-18.1l-2.2-17.3l-1.9-14.6l-2.3-19.2l-3.9-33.4l-3.5-33.5l-2.4-26.9l-2.1-27l-3.4-55.2l-3.2-64l-0.4-41.3
	l0.1-33.4l0.4-33.4l0.8-33.4l1-33.4l2-75.4l-12.6,5.9l-13.2,4.5l-13.6,3l-13.5,1.4l-13.5-0.2l-12.7-1.6l-12.5-2.7l-16.1-4.9
	l-15.5-6.4l-2.1,59l-1.1,49.2l-1.1,45l-0.3,28.9v28.9l0.9,43.2l1.5,43.1l1.9,39.1l2.5,39.1l3.2,39.4l3.7,39.4l4.7,44.7l5.2,44.6
	l9.3-1.1l109.1,18.9L1209.1,1675.8L1209.1,1675.8z M1062.4,1095.2l13.4,5l13.8,4l14.1,2.9l14.2,1.7l16.1,0.2l16-1.7l12.3-2.6l12-3.7
	l11.6-4.8l0.1-33.5l-0.1-34l-0.1-28l-0.2-37h-9.4l-6.1,8.2l-7.2,7.3l-4.2,3.4l-4.5,2.9l-5,2.3l-5.2,1.8l-6.6,1.7l-6.7,1.2l-7.4-0.1
	l-7.4-0.5l-6.8-0.7l-6.6-1.5l-6.1-2.6l-5.8-3.4l-7.4-5.8l-6.5-6.7l-5.5-7.5l-9.4,0.1l0.2,29.5l0.2,32.2l0.1,38L1062.4,1095.2z
	 M1062.4,1095.2l13.4,5l13.8,4l14.1,2.9l14.2,1.7l16.1,0.2l16-1.7l12.3-2.6l12-3.7l11.6-4.8l0.1-33.5l-0.1-34l-0.1-28l-0.2-37h-9.4
	l-6.1,8.2l-7.2,7.3l-4.2,3.4l-4.5,2.9l-5,2.3l-5.2,1.8l-6.6,1.7l-6.7,1.2l-7.4-0.1l-7.4-0.5l-6.8-0.7l-6.6-1.5l-6.1-2.6l-5.8-3.4
	l-7.4-5.8l-6.5-6.7l-5.5-7.5l-9.4,0.1l0.2,29.5l0.2,32.2l0.1,38L1062.4,1095.2z M1062.4,1095.2l13.4,5l13.8,4l14.1,2.9l14.2,1.7
	l16.1,0.2l16-1.7l12.3-2.6l12-3.7l11.6-4.8l0.1-33.5l-0.1-34l-0.1-28l-0.2-37h-9.4l-6.1,8.2l-7.2,7.3l-4.2,3.4l-4.5,2.9l-5,2.3
	l-5.2,1.8l-6.6,1.7l-6.7,1.2l-7.4-0.1l-7.4-0.5l-6.8-0.7l-6.6-1.5l-6.1-2.6l-5.8-3.4l-7.4-5.8l-6.5-6.7l-5.5-7.5l-9.4,0.1l0.2,29.5
	l0.2,32.2l0.1,38L1062.4,1095.2z M1062.4,1095.2l13.4,5l13.8,4l14.1,2.9l14.2,1.7l16.1,0.2l16-1.7l12.3-2.6l12-3.7l11.6-4.8
	l0.1-33.5l-0.1-34l-0.1-28l-0.2-37h-9.4l-6.1,8.2l-7.2,7.3l-4.2,3.4l-4.5,2.9l-5,2.3l-5.2,1.8l-6.6,1.7l-6.7,1.2l-7.4-0.1l-7.4-0.5
	l-6.8-0.7l-6.6-1.5l-6.1-2.6l-5.8-3.4l-7.4-5.8l-6.5-6.7l-5.5-7.5l-9.4,0.1l0.2,29.5l0.2,32.2l0.1,38L1062.4,1095.2z M1062.4,1095.2
	l13.4,5l13.8,4l14.1,2.9l14.2,1.7l16.1,0.2l16-1.7l12.3-2.6l12-3.7l11.6-4.8l0.1-33.5l-0.1-34l-0.1-28l-0.2-37h-9.4l-6.1,8.2
	l-7.2,7.3l-4.2,3.4l-4.5,2.9l-5,2.3l-5.2,1.8l-6.6,1.7l-6.7,1.2l-7.4-0.1l-7.4-0.5l-6.8-0.7l-6.6-1.5l-6.1-2.6l-5.8-3.4l-7.4-5.8
	l-6.5-6.7l-5.5-7.5l-9.4,0.1l0.2,29.5l0.2,32.2l0.1,38L1062.4,1095.2z M1062.4,1095.2l13.4,5l13.8,4l14.1,2.9l14.2,1.7l16.1,0.2
	l16-1.7l12.3-2.6l12-3.7l11.6-4.8l0.1-33.5l-0.1-34l-0.1-28l-0.2-37h-9.4l-6.1,8.2l-7.2,7.3l-4.2,3.4l-4.5,2.9l-5,2.3l-5.2,1.8
	l-6.6,1.7l-6.7,1.2l-7.4-0.1l-7.4-0.5l-6.8-0.7l-6.6-1.5l-6.1-2.6l-5.8-3.4l-7.4-5.8l-6.5-6.7l-5.5-7.5l-9.4,0.1l0.2,29.5l0.2,32.2
	l0.1,38L1062.4,1095.2z M1062.4,1095.2l13.4,5l13.8,4l14.1,2.9l14.2,1.7l16.1,0.2l16-1.7l12.3-2.6l12-3.7l11.6-4.8l0.1-33.5l-0.1-34
	l-0.1-28l-0.2-37h-9.4l-6.1,8.2l-7.2,7.3l-4.2,3.4l-4.5,2.9l-5,2.3l-5.2,1.8l-6.6,1.7l-6.7,1.2l-7.4-0.1l-7.4-0.5l-6.8-0.7l-6.6-1.5
	l-6.1-2.6l-5.8-3.4l-7.4-5.8l-6.5-6.7l-5.5-7.5l-9.4,0.1l0.2,29.5l0.2,32.2l0.1,38L1062.4,1095.2z M1062.4,1095.2l13.4,5l13.8,4
	l14.1,2.9l14.2,1.7l16.1,0.2l16-1.7l12.3-2.6l12-3.7l11.6-4.8l0.1-33.5l-0.1-34l-0.1-28l-0.2-37h-9.4l-6.1,8.2l-7.2,7.3l-4.2,3.4
	l-4.5,2.9l-5,2.3l-5.2,1.8l-6.6,1.7l-6.7,1.2l-7.4-0.1l-7.4-0.5l-6.8-0.7l-6.6-1.5l-6.1-2.6l-5.8-3.4l-7.4-5.8l-6.5-6.7l-5.5-7.5
	l-9.4,0.1l0.2,29.5l0.2,32.2l0.1,38L1062.4,1095.2z M626.5,1565.7h17.4l37.7,0.9l37.7,2.2l37.6,3.6l25.7,3.2l25.6,3.7l36.6,5.8
	l36.5,6.3l50.9,9.9l50.6,11l9.5-0.4l-2.5-47.9l-2.2-47.9l-1.8-44.3l-1.5-44.3l-1-38.4l-0.4-38.4l0.3-35.2l0.9-35.2l3.2-39.2
	l4.5-39.1l3.8-25.6l4.2-25.6l5-30l5.7-35l4-29.1l3.5-28.5l3.2-28.4l4.1-38.3l-9.3-1l-18.7-41.3l-19.8-40.9L962,847.7l-16.5-29.9
	l-19.2-28l-14.9-17.3l-16.5-16L877,741.9l-19-13.2l-26-14.9l-27.3-12.4l-28.2-9.8l-28.9-7.2l-2.8,9l-4,13.2l-5.5,12.7l-5.2,9.4
	l-6.1,8.8l-7.1,7.9l-10.7,8.5l-12,6.8l-12.9,5.3l-12.2,3.7l-12.4,2.5l-12.6,1.2h-17.4L626.5,1565.7z M626.5,1575.3h17.4l35.5,1.5
	l35.5,2.7l35.4,4l24.2,3.4l24.1,3.9l34.4,6l34.3,6.5l47.8,10.1l47.5,11.2l9.5-0.4l-2.5-47.9l-2.2-47.9l-1.8-44.3l-1.5-44.3l-1-38.4
	l-0.4-38.4l0.3-35.2l0.9-35.2l3-41.9l4.5-41.7l3.8-27.4l4.2-27.3l5-32.1l5.8-37.5l4-29.1l3.5-28.5l3.2-28.4l4.1-38.3l-9.3-1
	l-17.3-39.2l-18.5-38.8l-14.2-29.1L930.2,824l-17.9-26.6l-14-16.5l-15.5-15.2L866,751.8l-17.9-12.6l-24.5-14.3L797.9,713l-26.6-9.5
	l-27.3-7l-2.8,9l-3.8,12.8l-5.3,12.3l-5,9.1l-5.9,8.5l-6.9,7.6L704,764l-11.6,6.6l-12.4,5.1l-11.8,3.5l-12,2.4l-12.1,1.2h-17.4
	L626.5,1575.3z M626.5,1575.3h17.4l33.5,3.5l33.4,4.6l33.2,5.8l22.6,4.7l22.6,5.1l32.2,7.7l32.1,8.2l44.6,12.4l44.3,13.4l9.5-0.4
	l-2.5-47.9l-2.2-47.9l-1.8-44.3l-1.5-44.3l-1-38.4l-0.4-38.4l0.3-35.2l0.9-35.2l2.9-44.6l4.4-44.4l3.8-29.2l4.2-29.1l5.1-34.1
	l5.8-39.9l4-29.1l3.5-28.5l3.2-28.4l4-38.3l-9.3-1l-16-37l-17.1-36.6L929.1,861l-14.3-26.8L898.2,809l-13-15.6L870.8,779l-15.7-13.2
	l-16.7-12L815.5,740l-24.1-11.4l-25-9.1l-25.6-6.8l-2.8,9l-3.7,12.4l-5.1,11.9l-4.9,8.8l-5.7,8.2l-6.7,7.4l-10,8l-11.3,6.3l-12,4.9
	l-11.4,3.4l-11.6,2.3l-11.7,1.1h-17.4V1575.3z M626.5,1561.9h17.4l37.2-1.9h37.2l17,0.7l17,1l24.3,1.7l24.3,2.1l33.9,3.6l33.8,4.4
	l9.5-0.4l-2.5-47.9l-2.2-47.9l-1.8-44.3l-1.5-44.3l-1-38.4l-0.4-38.4l0.3-35.2l0.9-35.2l3.6-31.1l4.7-31l3.7-20.3l4-20.3l4.8-23.7
	l5.5-27.8l4-29.1l3.5-28.5l3.2-28.4L911,963l-9.3-1l-12.4-27.3l-13.2-27L866,887.5l-11-19.7l-12.7-18.5l-13.4-15.1l-15.2-13.5
	L797.1,809l-17.2-9.8l-18-8.2l-18.7-6.5l-19.1-4.7l-2.8,9l-3.1,10.2l-4.2,9.8l-6.2,10.7l-7.9,9.3l-8.2,6.5l-9.2,5.2l-9.9,4
	l-14.1,3.9l-14.4,1.8h-17.4L626.5,1561.9L626.5,1561.9z M626.5,1572.6h17.4l31.2,2.6l31.1,3.6l31,4.7l21.1,3.9l21.1,4.3l30,6.5
	l29.9,7l41.6,10.6l41.4,11.5l9.5-0.4l-2.5-47.9l-2.2-47.9l-1.8-44.3l-1.5-44.3l-1-38.4l-0.4-38.4l0.3-35.2l0.9-35.2l3-41.9l4.5-41.7
	l3.8-27.4l4.2-27.3l5-32.1l5.8-37.5l4-29.1l3.5-28.5l3.2-28.4l4.1-38.3l-9.3-1l-14.7-34.9L925,892.7l-12.1-25.9l-13.2-25.3
	l-15.4-23.8l-16.4-19.5l-18.7-17.5l-20.6-15.4l-21.4-13l-22.5-10.9l-23.3-8.8l-24-6.6l-2.8,9l-3.6,11.9l-5,11.5l-4.7,8.4l-5.5,7.9
	l-6.4,7.1l-9.7,7.7l-10.8,6.1l-11.6,4.7l-11,3.3l-11.2,2.2L644,807h-17.4L626.5,1572.6L626.5,1572.6z M626.5,1564.6h17.4l39.6-0.4
	l39.5,1.7l18,1.5l18,1.8l25.7,2.9l25.7,3.3l35.9,5.4l35.7,6.2l9.5-0.4l-2.5-47.9l-2.2-47.9l-1.8-44.3l-1.5-44.3l-1-38.4l-0.4-38.4
	l0.3-35.2l0.9-35.2l3.4-33.8l4.6-33.7l3.7-22.1l4-22l4.9-25.8l5.6-30.2l4-29.1l3.5-28.5l3.2-28.4l4.1-38.2l-9.3-1L902,933l-13.7-29
	l-10.6-21.7l-11.5-21.1l-13.4-19.8l-14.2-16.2l-16.1-14.5L805,798l-18.2-10.7l-19.1-8.9l-19.8-7.1l-20.3-5.2l-2.8,9l-3.2,10.6
	l-4.4,10.2l-6.5,11.1l-8.3,9.8l-8.6,6.8l-9.7,5.4l-10.3,4.2l-14.7,4L644,839h-17.4L626.5,1564.6z M626.5,1567.3h17.4l42,1.1
	l41.9,3.4l19.1,2.3l19,2.6l27.2,4.1l27.1,4.5l37.8,7.1l37.6,8l9.5-0.4l-2.5-47.9l-2.2-47.9l-1.8-44.3l-1.5-44.3l-1-38.4l-0.4-38.4
	l0.3-35.2l0.9-35.2l3.3-36.5l4.6-36.4l3.7-23.9l4.1-23.8l4.9-27.9l5.6-32.6l4-29.1l3.5-28.5l3.2-28.4l4.1-38.3l-9.3-1l-13.7-31
	l-14.4-30.8l-11.1-23.1l-12.1-22.5l-14.1-21.2l-14.9-17.3l-16.9-15.5L812.8,787l-19.3-11.4l-20.3-9.5l-21-7.6l-21.5-5.7l-2.8,9
	l-3.3,11l-4.6,10.6l-6.8,11.6l-8.6,10.2l-8.9,7.1l-10,5.6l-10.7,4.4l-15.3,4.2l-15.7,1.9h-17.4L626.5,1567.3L626.5,1567.3z
	 M626.5,1569.9h17.4l44.4,2.7l44.2,5l20.1,3.1l20.1,3.4l28.6,5.3l28.5,5.8l39.7,8.8l39.5,9.8l9.5-0.4l-2.5-47.9l-2.2-47.9l-1.8-44.3
	l-1.5-44.3l-1-38.4l-0.4-38.4l0.3-35.2l0.9-35.2l3.2-39.2l4.5-39.1l3.8-25.6l4.2-25.6l5-30l5.7-35l4-29.1l3.5-28.5l3.2-28.4
	l4.1-38.3l-9.3-1l-14.1-33L913,896.3l-11.6-24.5L888.6,848l-14.7-22.5l-15.7-18.4l-17.8-16.5l-19.6-14.5L800.5,764l-21.4-10.2
	l-22.2-8.2l-22.8-6.1l-2.8,9l-3.4,11.5l-4.8,11l-7.1,12l-8.9,10.6l-9.3,7.4l-10.4,5.9l-11.1,4.5l-15.9,4.4l-16.3,2h-17.4
	L626.5,1569.9z M626.5,1565.7H609l-37.7,0.9l-37.7,2.2l-37.6,3.6l-25.7,3.2l-25.6,3.7l-36.6,5.8l-36.5,6.3l-50.9,9.9l-50.6,11
	l-9.5-0.4l2.5-47.9l2.2-47.9l1.8-44.3l1.5-44.3l1-38.4l0.4-38.4l-0.3-35.2l-0.9-35.2l-3.2-39.2l-4.5-39.1l-3.8-25.6l-4.2-25.6l-5-30
	l-5.7-35l-4-29.1l-3.5-28.5l-3.2-28.4l-4.1-38.3l9.3-1l18.7-41.3l19.8-40.9l15.2-30.7l16.5-29.9l19.2-28l14.9-17.3l16.5-16
	l17.9-14.6l19-13.2l26-14.9l27.3-12.4l28.2-9.8l28.9-7.2l2.8,9l4,13.2l5.5,12.7l5.2,9.4l6.1,8.8l7.1,7.9l10.7,8.5l12,6.8l12.9,5.3
	l12.2,3.7l12.4,2.5l12.6,1.2h17.4v792.4H626.5z M626.5,1575.3H609l-35.5,1.5l-35.5,2.7l-35.4,4l-24.2,3.4l-24.1,3.9l-34.4,6
	l-34.3,6.5l-47.8,10.1l-47.5,11.2l-9.5-0.4l2.5-47.9l2.2-47.9l1.8-44.3l1.5-44.3l1-38.4l0.4-38.4l-0.3-35.2l-0.9-35.2l-3-41.9
	l-4.5-41.7l-3.8-27.4l-4.2-27.3l-5-32.1l-5.8-37.5l-4-29.1l-3.5-28.5l-3.2-28.4l-4.1-38.3l9.3-1l17.3-39.2l18.5-38.8l14.2-29.1
	l15.4-28.4l17.9-26.6l14-16.5l15.5-15.2l16.8-13.9l17.9-12.6l24.5-14.3l25.7-11.9l26.6-9.5l27.3-7l2.8,9l3.8,12.8l5.3,12.3l5,9.1
	l5.9,8.5l6.9,7.6l10.4,8.2l11.6,6.6l12.4,5.1l11.8,3.5l12,2.4l12.1,1.2h17.4L626.5,1575.3z M626.5,1575.3H609l-33.5,3.5l-33.4,4.6
	l-33.2,5.8l-22.6,4.7l-22.6,5.1l-32.2,7.7l-32.1,8.2l-44.6,12.4l-44.3,13.4l-9.5-0.4l2.5-47.9l2.2-47.9l1.8-44.3l1.5-44.3l1-38.4
	l0.4-38.4l-0.3-35.2l-0.9-35.2l-2.9-44.6l-4.4-44.4l-3.8-29.2l-4.2-29.1l-5.1-34.1l-5.8-39.9l-4-29.1l-3.5-28.5l-3.2-28.4l-4-38.2
	l9.3-1l16-37l17.1-36.6l13.1-27.5l14.3-26.8l16.6-25.2l13-15.6l14.4-14.4l15.7-13.2l16.7-12l22.9-13.6l24.1-11.4l25-9.1l25.6-6.8
	l2.8,9l3.7,12.4l5.1,11.9l4.9,8.8l5.7,8.2l6.7,7.4l10,8l11.3,6.3l12,4.9l11.4,3.4l11.6,2.3l11.7,1.1h17.4L626.5,1575.3L626.5,1575.3
	z M626.5,1561.9H609l-37.2-1.9h-37.2l-17,0.7l-17,1l-24.3,1.7l-24.3,2.1l-33.9,3.6l-33.8,4.4l-9.5-0.4l2.5-47.9l2.2-47.9l1.8-44.3
	l1.5-44.3l1-38.4l0.4-38.4l-0.3-35.2l-0.9-35.2l-3.6-31.1l-4.7-31l-3.7-20.3l-4-20.3l-4.8-23.7l-5.5-27.8l-4-29.1l-3.5-28.5
	l-3.2-28.4l-4-38.3l9.3-1l12.4-27.3l13.2-27l10.1-20.3l11-19.7l12.7-18.5l13.4-15.1l15.2-13.5l16.6-11.8l17.2-9.8l18-8.2l18.7-6.5
	l19.1-4.7l2.8,9l3.1,10.2l4.2,9.8l6.2,10.7l7.9,9.3l8.2,6.5l9.2,5.2l9.9,4l14.1,3.9L609,850h17.4L626.5,1561.9L626.5,1561.9z
	 M626.5,1572.6H609l-31.2,2.6l-31.1,3.6l-31,4.7l-21.1,3.9l-21.1,4.3l-30,6.5l-29.9,7l-41.6,10.6l-41.4,11.5l-9.5-0.4l2.5-47.9
	l2.2-47.9l1.8-44.3l1.5-44.3l1-38.4l0.4-38.4l-0.3-35.2l-0.9-35.2l-3-41.9l-4.5-41.7l-3.8-27.4l-4.2-27.3l-5-32.1l-5.8-37.5l-4-29.1
	l-3.5-28.5l-3.2-28.4l-4-38.2l9.3-1l14.7-34.9l15.7-34.5l12.1-25.9l13.2-25.3l15.4-23.8l16.4-19.5l18.7-17.5l20.6-15.4l21.4-13
	l22.5-10.9l23.3-8.8l24-6.6l2.8,9L522,747l5,11.5l4.7,8.4l5.5,7.9l6.4,7.1l9.7,7.7l10.8,6.1l11.6,4.7l11,3.3l11.2,2.2L609,807h17.4
	L626.5,1572.6L626.5,1572.6z M626.5,1564.6H609l-39.6-0.4l-39.5,1.7l-18,1.5l-18,1.8l-25.7,2.9l-25.7,3.3l-35.9,5.4l-35.7,6.2
	l-9.5-0.4l2.5-47.9l2.2-47.9l1.8-44.3l1.5-44.3l1-38.4l0.4-38.4l-0.3-35.2l-0.9-35.2l-3.4-33.8l-4.6-33.7l-3.7-22.1l-4-22l-4.9-25.8
	l-5.6-30.2l-4-29.1l-3.5-28.5l-3.2-28.4l-4-38.2l9.3-1l13-29.2l13.8-28.9l10.6-21.7l11.5-21.1l13.4-19.8l14.2-16.2l16.1-14.5
	L448,798l18.2-10.7l19.1-8.9l19.8-7.1l20.3-5.2l2.8,9l3.2,10.6l4.4,10.2l6.5,11.1l8.3,9.8l8.6,6.8l9.7,5.4l10.3,4.2l14.7,4L609,839
	h17.4L626.5,1564.6L626.5,1564.6z M626.5,1567.3H609l-42,1.1l-41.9,3.4l-19.1,2.3l-19,2.6l-27.2,4.1l-27.1,4.5l-37.8,7.1l-37.6,8
	l-9.5-0.4l2.5-47.9l2.2-47.9l1.8-44.3l1.5-44.3l1-38.4l0.4-38.4l-0.3-35.2l-0.9-35.2l-3.3-36.5l-4.6-36.4l-3.7-23.9l-4.1-23.8
	l-4.9-27.9l-5.6-32.6l-4-29.1l-3.5-28.5l-3.2-28.4l-4.1-38.2l9.3-1L338,931l14.4-30.8l11.1-23.1l12.1-22.5l14.1-21.2l14.9-17.3
	l16.9-15.5l18.6-13.6l19.3-11.4l20.3-9.5l21-7.6l21.5-5.7l2.8,9l3.3,11l4.6,10.6l6.8,11.6l8.6,10.2l8.9,7.1l10,5.6l10.7,4.4
	l15.3,4.2l15.7,1.9h17.4L626.5,1567.3L626.5,1567.3z M626.5,1569.9H609l-44.4,2.7l-44.2,5l-20.1,3.1l-20.1,3.4l-28.6,5.3l-28.5,5.8
	l-39.7,8.8l-39.5,9.8l-9.5-0.4l2.5-47.9l2.2-47.9l1.8-44.3l1.5-44.3l1-38.4l0.4-38.4l-0.2-35.2l-0.9-35.2l-3.2-39.2l-4.5-39.1
	l-3.8-25.6l-4.2-25.6l-5-30l-5.7-35l-4-29.1l-3.5-28.5l-3.2-28.4l-4-38.3l9.3-1l14.1-33l15.1-32.7l11.6-24.5l12.6-23.9l14.7-22.5
	l15.7-18.4l17.8-16.5l19.6-14.5l20.3-12.2l21.4-10.2l22.2-8.2l22.8-6.1l2.8,9l3.4,11.5l4.8,11l7.1,12l8.9,10.6l9.3,7.4l10.4,5.9
	l11.1,4.5l15.9,4.4l16.3,2h17.4v752.3L626.5,1569.9L626.5,1569.9z M311.6,240.9v-9.3l13.3-53.8L311.6,124v-9.3h196.5h118.4h118.4
	h196.5v9.3L928,177.9l13.3,53.8v9.3H744.9H626.5H508L311.6,240.9L311.6,240.9z M319,240.9v-9.3l13.3-53.8L319,124v-9.3h192.4h115.1
	h115.1H934v9.3l-13.3,53.8l13.3,53.8v9.3H741.6H626.5H511.4L319,240.9L319,240.9z M326.4,240.9v-9.3l13.3-53.8L326.4,124v-9.3h188.4
	h111.7h111.7h188.4v9.3l-13.4,53.8l13.3,53.8v9.3H738.2H626.5H514.8L326.4,240.9L326.4,240.9z M363.3,240.9v-9.3l13.3-53.8
	L363.3,124v-9.3h168.3h94.9h94.9h168.3v9.3l-13.3,53.8l13.3,53.8v9.3H721.4h-94.9h-94.9L363.3,240.9L363.3,240.9z M333.8,240.9v-9.3
	l13.3-53.8L333.8,124v-9.3h184.4h108.3h108.4h184.4v9.3L906,177.8l13.3,53.8v9.3H734.8H626.5H518.2L333.8,240.9L333.8,240.9z
	 M355.9,240.9v-9.3l13.3-53.8L355.9,124v-9.3h172.3h98.3h98.3h172.3v9.3l-13.4,53.8l13.3,53.8v9.3H724.8h-98.3h-98.3L355.9,240.9
	L355.9,240.9z M348.5,240.9v-9.3l13.3-53.8L348.5,124v-9.3h176.3h101.6H728h176.3v9.3L891,177.8l13.3,53.8v9.3H728.1H626.5H524.8
	L348.5,240.9L348.5,240.9z M341.2,240.9v-9.3l13.3-53.8L341.2,124v-9.3h180.3h105h105h180.3v9.3l-13.4,53.8l13.3,53.8v9.3H731.5
	h-105h-105L341.2,240.9L341.2,240.9z M626.5,713.1l-8.5,0.4l-8.6-1.1l-7.9-2.3l-6.9-4l-4.2-4.7l-3.1-5.6l-2.2-6.2l-1.8-8.2l-0.6-8.2
	l0.6-8.1l-0.6-8.1l0.6-8.2l1.8-8.2l2.2-6.2l3.1-5.6l4.2-4.7l6.9-4l7.9-2.3l8.6-1.1l8.5,0.4V665V713.1z M626.5,713.1l-8.5,0.4
	l-8.6-1.1l-7.9-2.3l-6.9-4l-4.2-4.7l-3.1-5.6l-2.2-6.2l-1.8-8.2l-0.6-8.2l0.6-8.1l-0.6-8.1l0.6-8.2l1.8-8.2l2.2-6.2l3.1-5.6l4.2-4.7
	l6.9-4l7.9-2.3l8.6-1.1l8.5,0.4V665V713.1z M626.5,713.1l-8.5,0.4l-8.6-1.1l-7.9-2.3l-6.9-4l-4.2-4.7l-3.1-5.6l-2.2-6.2l-1.8-8.2
	l-0.6-8.2l0.6-8.1l-0.6-8.1l0.6-8.2l1.8-8.2l2.2-6.2l3.1-5.6l4.2-4.7l6.9-4l7.9-2.3l8.6-1.1l8.5,0.4V665V713.1z M626.5,713.1
	l-8.5,0.4l-8.6-1.1l-7.9-2.3l-6.9-4l-4.2-4.7l-3.1-5.6l-2.2-6.2l-1.8-8.2l-0.6-8.2l0.6-8.1l-0.6-8.1l0.6-8.2l1.8-8.2l2.2-6.2
	l3.1-5.6l4.2-4.7l6.9-4l7.9-2.3l8.6-1.1l8.5,0.4V665V713.1z M626.5,713.1l-8.5,0.4l-8.6-1.1l-7.9-2.3l-6.9-4l-4.2-4.7l-3.1-5.6
	l-2.2-6.2l-1.8-8.2l-0.6-8.2l0.6-8.1l-0.6-8.1l0.6-8.2l1.8-8.2l2.2-6.2l3.1-5.6l4.2-4.7l6.9-4l7.9-2.3l8.6-1.1l8.5,0.4V665V713.1z
	 M626.5,713.1l-8.5,0.4l-8.6-1.1l-7.9-2.3l-6.9-4l-4.2-4.7l-3.1-5.6l-2.2-6.2l-1.8-8.2l-0.6-8.2l0.6-8.1l-0.6-8.1l0.6-8.2l1.8-8.2
	l2.2-6.2l3.1-5.6l4.2-4.7l6.9-4l7.9-2.3l8.6-1.1l8.5,0.4V665V713.1z M626.5,713.1l-8.5,0.4l-8.6-1.1l-7.9-2.3l-6.9-4l-4.2-4.7
	l-3.1-5.6l-2.2-6.2l-1.8-8.2l-0.6-8.2l0.6-8.1l-0.6-8.1l0.6-8.2l1.8-8.2l2.2-6.2l3.1-5.6l4.2-4.7l6.9-4l7.9-2.3l8.6-1.1l8.5,0.4V665
	V713.1z M626.5,713.1l-8.5,0.4l-8.6-1.1l-7.9-2.3l-6.9-4l-4.2-4.7l-3.1-5.6l-2.2-6.2l-1.8-8.2l-0.6-8.2l0.6-8.1l-0.6-8.1l0.6-8.2
	l1.8-8.2l2.2-6.2l3.1-5.6l4.2-4.7l6.9-4l7.9-2.3l8.6-1.1l8.5,0.4V665V713.1z M45.9,1675.8l2.2-18.1l2.2-17.3l1.9-14.6l2.3-19.2
	l3.9-33.4l3.5-33.5l2.4-26.9l2.1-27l3.4-55.2l3.2-64l0.4-41.3l-0.1-33.4l-0.4-33.4l-0.8-33.4l-1-33.4l-2-75.4l12.6,5.9l13.2,4.5
	l13.6,3l13.5,1.4l13.5-0.2l12.7-1.6l12.5-2.7l16.1-4.9l15.5-6.4l2.1,59l1.1,49.2l1.1,45l0.3,28.9v28.9l-0.9,43.2l-1.5,43.1
	l-1.9,39.1l-2.5,39.1l-3.2,39.4l-3.7,39.4l-4.7,44.7l-5.2,44.7l-9.3-1.1l-109.1,18.9L45.9,1675.8z M44.4,1689.1l2.2-18.1l2.2-17.3
	l1.9-14.6l2.3-19.2l3.9-33.4l3.5-33.5l2.6-27l2.1-27l3.4-55.2l3.2-64l0.7-43.5l0.2-35.2l-0.2-35.1l-0.6-35.1l-0.8-35.1l-1.6-79.4
	l12.6,5.9l13.2,4.5l13.6,3l13.5,1.4l13.5-0.2l12.7-1.6l12.5-2.7l16.1-4.9l15.5-6.4l1.7,62.7l0.8,52.4l0.8,47.8l0.1,30.8l-0.2,30.8
	l-0.9,43.2l-1.5,43.1l-1.9,39.1l-2.5,39l-3.2,39.4l-3.7,39.4l-4.7,44.7l-5.2,44.6l-9.3-1.1l-109.1,18.9L44.4,1689.1z M43,1702.4
	l2.2-18.1l2.2-17.3l1.9-14.6l2.3-19.2l3.9-33.4l3.5-33.5l2.4-26.9l2.1-27l3.4-55.2l3.2-64l1-45.7l0.4-37v-37l-0.5-37l-0.6-36.9
	l-1.2-83.5l12.6,5.9l13.2,4.5l13.6,3l13.5,1.4l13.5-0.2l12.7-1.6l12.5-2.7l16.1-4.9l15.5-6.4l1.4,66.5l0.5,55.5l0.5,50.7l-0.1,32.6
	l-0.5,32.6l-0.9,43.2l-1.5,43.1l-1.9,39.1l-2.5,39.1l-3.2,39.4l-3.7,39.4l-4.7,44.7l-5.2,44.6l-9.3-1.1l-109.1,18.9L43,1702.4z
	 M50.2,1635.7l2.2-18.1l2.2-17.3l1.9-14.6l2.3-19.2l3.9-33.4l3.5-33.5l2.4-26.9l2.1-27l3.4-55.2l3.2-64l-0.5-34.7l-0.7-28l-1-28
	l-2.8-56.1l-3.2-63.3l12.6,5.9l13.2,4.5l13.6,3l13.5,1.4l13.5-0.2l12.7-1.6l12.5-2.7l16.1-4.9l15.5-6.4l3.1,47.8l2.1,39.9l2,36.5
	l1,23.5l0.7,23.5l-0.9,43.2l-1.5,43.1l-1.9,39.1l-2.5,39l-3.2,39.4l-3.7,39.4l-4.6,44.8l-5.2,44.6l-9.3-1.1L59.3,1637L50.2,1635.7z
	 M44.4,1689.1l2.2-18.1l2.2-17.3l1.9-14.6l2.3-19.2l3.9-33.4l3.5-33.5l2.6-27l2.1-27l3.4-55.2l3.2-64l0.7-43.5l0.2-35.2l-0.2-35.1
	l-0.6-35.1l-0.8-35.1l-1.6-79.4l12.6,5.9l13.2,4.5l13.6,3l13.5,1.4l13.5-0.2l12.7-1.6l12.5-2.7l16.1-4.9l15.5-6.4l1.7,62.7l0.8,52.4
	l0.8,47.8l0.1,30.8l-0.2,30.8l-0.9,43.2l-1.5,43.1l-1.9,39.1l-2.5,39l-3.2,39.4l-3.7,39.4l-4.7,44.7l-5.2,44.6l-9.3-1.1l-109.1,18.9
	L44.4,1689.1z M48.8,1649.1L51,1631l2.2-17.3l1.9-14.6l2.3-19.2l3.9-33.4l3.5-33.5l2.4-26.9l2.1-27l3.4-55.2l3.2-64l-0.2-36.9
	l-0.5-29.8l-0.8-29.8l-2.4-59.6l-2.8-67.3l12.6,5.9l13.2,4.5l13.6,3l13.5,1.4l13.5-0.2l12.7-1.6l12.5-2.7l16.1-4.9l15.5-6.4
	l2.8,51.5l1.8,43l1.7,39.3l0.7,25.3l0.5,25.3l-0.9,43.2l-1.5,43.1l-1.9,39.1l-2.5,39.1l-3.2,39.4l-3.7,39.4l-4.7,44.7l-5.2,44.6
	l-9.3-1.1l-109.1,18.9L48.8,1649.1z M47.3,1662.4l2.2-18.1l2.2-17.3l1.9-14.6l2.3-19.2l3.9-33.4l3.5-33.5l2.4-26.9l2.1-27l3.4-55.2
	l3.2-64l0.1-39.1l-0.3-31.6l-0.6-31.6l-2.1-63.2l-2.4-71.4l12.6,5.9l13.2,4.5l13.6,3l13.5,1.4l13.5-0.2l12.7-1.6l12.5-2.7l16.1-4.9
	l15.5-6.4l2.4,55.3l1.5,46.1l1.4,42.1l0.5,27.1l0.2,27.1l-0.9,43.2l-1.5,43.1l-1.9,39.1l-2.5,39l-3.2,39.4l-3.7,39.4l-4.7,44.7
	l-5.2,44.6l-9.3-1.1l-109.1,18.9L47.3,1662.4z M45.9,1675.8l2.2-18.1l2.2-17.3l1.9-14.6l2.3-19.2l3.9-33.4l3.5-33.5l2.4-26.9l2.1-27
	l3.4-55.2l3.2-64l0.4-41.3l-0.1-33.4l-0.4-33.4l-0.8-33.4l-1-33.4l-2-75.4l12.6,5.9l13.2,4.5l13.6,3l13.5,1.4l13.5-0.2l12.7-1.6
	l12.5-2.7l16.1-4.9l15.5-6.4l2.1,59l1.1,49.2l1.1,45l0.3,28.9v28.9l-0.9,43.2l-1.5,43.1l-1.9,39.1l-2.5,39.1l-3.2,39.4l-3.7,39.4
	l-4.7,44.7l-5.2,44.7l-9.3-1.1l-109.1,18.9L45.9,1675.8z M1234.2,227.1l-30.3,0.8l-29.2-0.9l-29-2.9l-25.7-4.3l-25.4-5.6l-19.6-5
	l-19.3-5.8l-16-5.8l-15.8-6.5l-8.4,20.6l-4.7,10.4l-5.3,11.5l-5.9,13l-23.1,31.6L950.9,308L923,335.6l-30.1,25.1l-23.6,16.9
	l-24.6,15.3l-25.6,13.6l-36.7,16.2l-37.6,14.1L690,455.5L634.6,472l2.3,9.1l4.5,2.3l4.3,2.7l4,2.9l3.6,3.4l2.6,3.6l2.1,4l2.3,6.2
	l-0.2,11.1l-0.1,6.5l-0.1,13.6l-0.6,11.1l-0.8,9.4l25.4,3.4l25.2,4.8l24.9,6.1l22.6,6.8l22.2,8l21.7,9.2l31.3,16.4l29.8,19
	l28.4,21.2l27.2,23l25.7,24.6l24.1,26.2l22.3,27.6l4.5,6.8l4.3,6.9l7,12.9l8,16l11.1,24.3l21.2-8.3l21.6-7.2l21.9-6l22.1-5l20-3.9
	l20.2-3.1l26.3-2.4l26.4-0.7l30.3,0.8V506.2V227.1z M1234.2,240.5l-30.3,0.8l-30.5-0.7l-30.4-2.8l-26.9-4.3l-26.7-5.6l-20.5-5
	l-20.3-5.9l-16.9-5.9l-16.6-6.6l-8.4,20.6l-4.7,10.4l-5.3,11.5l-5.9,13l-22.2,29.9L944,318l-26.8,26l-28.9,23.7l-22.6,15.9
	L842.1,398l-24.5,12.8L782.5,426l-35.9,13.1l-52.4,17.4l-53,15.3l2.3,9.1l4.5,2.3l4.3,2.7l4,2.9l3.6,3.4l2.6,3.6l2.1,4l2.3,6.2
	l-0.2,11.1l-0.1,6.5l-0.1,13.6l-0.6,11.1l-0.8,9.4l24.1,3l23.9,4.3l23.7,5.6l21.5,6.2l21.1,7.3l20.6,8.6l29.8,15.2l28.4,17.7
	l27.2,19.8l26,21.5L936,690l23,24.6l21.4,26l4.5,6.8l4.3,6.9l7,12.9l8,16l11.1,24.3l22.3-8.5l22.7-7.3l22.9-6l23.2-5l21-3.9l21.1-3
	l27.5-2.2l27.7-0.5l30.3,0.8V506.1L1234.2,240.5z M1234.2,253.9l-30.3,0.8l-30.8-0.6l-30.7-2.7l-27.2-4.3l-26.9-5.6l-20.8-5
	l-20.5-5.9l-17-5.9l-16.8-6.6l-8.4,20.6l-4.7,10.4l-5.3,11.5l-5.9,13l-21.4,28.2l-23.6,26.5l-25.7,24.5l-27.7,22.3L868.8,390
	l-22.5,13.5l-23.4,11.9l-33.5,14.1l-34.3,12.2l-49.9,16.1L654.7,472l2.3,9.1l4.5,2.3l4.3,2.7l4,2.9l3.6,3.4l2.6,3.6l2.1,4l2.3,6.2
	l-0.2,11.1l-0.1,6.5l-0.1,13.6l-0.6,11.1l-0.8,9.4l22.8,2.6l22.6,3.8l22.4,5l20.3,5.6l20,6.7l19.6,7.8l28.3,14.1l27.1,16.4
	l25.9,18.4l24.8,20.1l23.5,21.5l22,23l20.4,24.3l4.5,6.8l4.3,6.9l7,12.9l8,16l11.1,24.3l22.5-8.6l22.9-7.3l23.2-6.1l23.4-5l21.2-3.9
	l21.3-3l27.8-2.2l27.9-0.4l30.3,0.8V506.2L1234.2,253.9z M1234.2,321l-30.3,0.8l-24.9-1.6l-24.7-3.3l-21.8-4.4L1111,307l-16.5-4.8
	l-16.3-5.5l-13.5-5.4l-13.3-6l-8.4,20.6l-4.7,10.4l-5.3,11.5l-5.9,13l-19,20.7l-20.7,19.1L965.3,398l-23.5,15.5l-18.2,10.2
	l-18.8,8.9l-19.3,7.7l-27.5,8.6l-27.9,7l-40.6,8.9l-40.9,7.3l2.3,9.1l4.5,2.3l4.3,2.7l4,2.9l3.6,3.4l2.6,3.6l2.1,4l2.3,6.2
	l-0.2,11.1l-0.1,6.5l-0.1,13.6l-0.6,11.1l-0.8,9.4l26.5,0.2l26.4,2.4l24,4l23.5,6l22.9,8.2l22.2,10.1l21.4,11.7l27.4,17.8l25.8,19.9
	l24,22l4.5,6.8l4.3,6.9l7,12.9l8,16l11.1,24.3l17.9-7.7l18.2-6.8l18.5-5.8l18.7-4.9l17-3.9l17.1-3.2l22.4-2.8l22.5-1.3l30.3,0.8
	V506.3L1234.2,321z M1234.2,267.4l-30.3,0.8l-31.2-0.6l-31.1-2.7l-27.4-4.3L1087,255l-21-5l-20.7-5.9l-17.2-5.9l-16.9-6.7l-8.4,20.6
	l-4.7,10.4l-5.3,11.5l-5.9,13l-20.6,26.6l-22.7,24.9l-24.6,23l-26.4,20.9l-20.7,14L850.4,409l-22.3,11l-31.9,13l-32.6,11.3
	l-47.5,14.8l-48,12.9l2.3,9.1l4.5,2.3l4.3,2.7l4,2.9l3.6,3.4l2.6,3.6l2.1,4l2.3,6.2l-0.2,11.1l-0.1,6.5l-0.1,13.6l-0.6,11.1
	l-0.8,9.4l21.5,2.2l21.4,3.3l21.2,4.5l19.2,5.1l18.9,6.1l18.5,7.2l26.8,12.9l25.7,15.2l24.6,17l23.6,18.6l22.4,20l21,21.4l19.6,22.6
	l4.5,6.8l4.3,6.9l7,12.9l8,16l11.1,24.3l22.8-8.6l23.2-7.4l23.4-6.1l23.7-5l21.4-3.9l21.6-3l28.1-2.2l28.2-0.4l30.3,0.8V506.2
	L1234.2,267.4z M1234.2,307.6l-30.3,0.8l-25.4-1.6l-25.2-3.3l-22.2-4.4l-22-5.5l-16.9-4.9l-16.7-5.6l-13.8-5.4l-13.6-6l-8.4,20.6
	l-4.7,10.4l-5.3,11.5l-5.9,13l-19.4,22.2L983.2,370l-22.8,18.8l-24.2,16.8l-18.8,11.1l-19.5,9.8l-20.1,8.5l-28.6,9.7l-29.1,8.1
	l-42.3,10.4l-42.7,8.7l2.3,9.1l4.5,2.3l4.3,2.7l4,2.9l3.6,3.4l2.6,3.6l2.1,4l2.3,6.2l-0.2,11.1l-0.1,6.5l-0.1,13.6l-0.6,11.1
	l-0.8,9.4l27.9,1.1l27.8,3.3l25.2,5l24.6,7.1l23.9,9.4l23,11.4l22.2,13l28.4,19.6l26.6,21.8l24.6,24l4.5,6.8l4.3,6.9l7,12.9l8,16
	l11.1,24.3l18.2-7.8l18.6-6.8l18.9-5.8l19.1-5l17.3-3.9l17.5-3.2l22.9-2.8l23-1.3l30.3,0.8V506.1L1234.2,307.6z M1234.2,294.2
	l-30.3,0.8l-28-1.1l-27.9-3l-24.6-4.4l-24.4-5.6l-18.7-4.9l-18.5-5.7l-15.4-5.6l-15.1-6.3l-8.4,20.6l-4.7,10.4l-5.3,11.5l-5.9,13
	l-19.8,23.6l-21.7,22l-23.4,20.2l-25,18.2L897.8,410l-20.2,10.8l-20.8,9.4L827.1,441l-30.3,9.1L752.7,462l-44.3,10l2.3,9.1l4.5,2.3
	l4.3,2.7l4,2.9l3.6,3.4l2.6,3.6l2.1,4l2.3,6.2l-0.2,11.1l-0.1,6.5l-0.1,13.6l-0.6,11.1l-0.8,9.4l29.4,2l29.1,4.3l26.4,6l25.7,8.2
	l24.8,10.5l23.9,12.6l23,14.4l22.2,15.9l21.1,17.2l20,18.5l18.7,19.7l4.5,6.8l4.3,6.9l7,12.9l8,16l11.1,24.3l20.3-8.2l20.7-7.1
	l20.9-5.9l21.2-5l19.2-3.9l19.3-3.1l25.2-2.5l25.3-0.9l30.3,0.8v-212V294.2H1234.2z M1234.2,280.8l-30.3,0.8l-30.6-0.7l-30.5-2.7
	l-27-4.3l-26.7-5.6l-20.6-5l-20.4-5.9l-16.9-5.9l-16.6-6.6l-8.4,20.6l-4.7,10.4l-5.3,11.5l-5.9,13l-20.2,25.1L947.9,349l-24,21.6
	l-25.7,19.5l-20.1,13l-20.8,11.7L835.8,425L805,437l-31.5,10.2l-45.8,13.3L681.6,472l2.3,9.1l4.5,2.3l4.3,2.7l4,2.9l3.6,3.4l2.6,3.6
	l2.1,4l2.3,6.2l-0.2,11.1l-0.1,6.5l-0.1,13.6l-0.6,11.1l-0.8,9.4l20.6,1.6l20.4,2.7l20.3,3.8l27.5,7l26.8,9.3l25.8,11.7l24.8,13.9
	l23.8,15.7l22.9,17.2l21.7,18.6l20.5,19.9l19.1,21.2l4.5,6.8l4.3,6.9l7,12.9l8,16l11.1,24.3l22.4-8.5l22.8-7.3l23-6l23.3-5l21.1-3.9
	l21.2-3l27.7-2.2l27.7-0.4l30.3,0.8V506.3V280.8H1234.2z M18.7,227.1l30.3,0.8l29.2-0.9l29-2.9l25.6-4.3l25.4-5.6l19.6-5l19.3-5.8
	l16-5.8l15.8-6.5l8.4,20.6l4.7,10.4l5.3,11.5l5.9,13l23.1,31.6L302,308l27.9,27.5l30.1,25.1l23.6,16.9l24.6,15.3l25.6,13.6
	l36.7,16.2l37.6,14.1l54.8,18.7l55.5,16.5L616,481l-4.5,2.3l-4.3,2.7l-4,2.9l-3.6,3.4L597,496l-2.1,4l-2.3,6.2l0.2,11.1l0.1,6.5
	l0.1,13.6l0.6,11.1l0.8,9.4l-25.4,3.4l-25.2,4.8l-24.9,6.1l-22.6,6.8l-22.2,8l-21.7,9.2l-31.3,16.4l-29.8,19l-28.4,21.2l-27.2,23
	L310,700.3l-24.1,26.2l-22.3,27.6l-4.5,6.8l-4.3,6.9l-7,12.9l-8,16L228.7,821l-21.2-8.3l-21.6-7.2l-21.9-6l-22.1-5l-20-3.9
	l-20.2-3.1l-26.3-2.4L49,784.6l-30.3,0.8V506.2V227.1z M18.7,240.5l30.3,0.8l30.5-0.7l30.4-2.8l26.9-4.3l26.7-5.6l20.5-5l20.3-5.9
	l16.9-5.9l16.6-6.6l8.4,20.6l4.7,10.4l5.3,11.5l5.9,13l22.2,29.9l24.6,28.1l26.8,26l28.9,23.7l22.6,15.9l23.6,14.4l24.5,12.8
	l35.1,15.1l35.9,13.1l52.4,17.4l53,15.3l-2.3,9.1l-4.5,2.3l-4.3,2.7l-4,2.9l-3.6,3.4l-2.6,3.6l-2.1,4l-2.3,6.2l0.2,11.1l0.1,6.5
	l0.1,13.6l0.6,11.1l0.8,9.4l-24.1,3l-23.9,4.3l-23.7,5.6l-21.5,6.2l-21.1,7.3l-20.6,8.6L423.1,608l-28.4,17.7l-27.2,19.8l-26,21.5
	l-24.6,23.1l-23,24.6l-21.4,26l-4.5,6.8l-4.3,6.9l-7,12.9l-8,16l-11.1,24.3l-22.3-8.5l-22.7-7.3l-22.9-6l-23.2-5l-21-3.9l-21.1-3
	l-27.5-2.2l-27.7-0.5L18.9,772V506.1L18.7,240.5z M18.7,253.9l30.3,0.8l30.8-0.6l30.7-2.7l27.2-4.3l26.9-5.6l20.8-5l20.5-5.9l17-5.9
	l16.8-6.6l8.4,20.6l4.7,10.4l5.3,11.5l5.9,13l21.4,28.2l23.6,26.5l25.7,24.5l27.7,22.3l21.7,14.9l22.5,13.5l23.4,11.9l33.5,14.1
	l34.3,12.2l49.9,16.1l50.5,14.1l-2.3,9.1l-4.5,2.3l-4.3,2.7l-4,2.9l-3.6,3.4l-2.6,3.6l-2.1,4l-2.3,6.2l0.2,11.1l0.1,6.5l0.1,13.6
	l0.6,11.1l0.8,9.4l-22.8,2.6l-22.6,3.8l-22.4,5L486,575l-20,6.7l-19.6,7.8l-28.3,14.1L391,620l-25.9,18.4l-24.8,20.1L317,680.1
	l-22,23l-20.4,24.3l-4.5,6.8l-4.3,6.9l-7,12.9l-8,16l-11.1,24.3l-22.5-8.6l-22.9-7.3l-23.2-6.1l-23.4-5l-21.2-3.9l-21.3-3l-27.8-2.2
	l-27.9-0.4l-30.3,0.8V506.2L18.7,253.9z M18.7,321l30.3,0.8l24.9-1.6l24.7-3.3l21.8-4.4l21.5-5.5l16.5-4.8l16.3-5.5l13.5-5.4l13.3-6
	l8.4,20.6l4.7,10.4l5.3,11.5l5.9,13l19,20.7l20.7,19.1l22.2,17.4l23.5,15.5l18.2,10.2l18.8,8.9l19.3,7.7l27.5,8.6l27.9,7l40.6,8.9
	l40.9,7.3l-2.3,9.1l-4.5,2.3l-4.3,2.7l-4,2.9l-3.6,3.4l-2.6,3.6l-2.1,4l-2.3,6.2l0.2,11.1l0.1,6.5l0.1,13.6l0.6,11.1l0.8,9.4
	l-26.5,0.2l-26.4,2.4l-24,4l-23.5,6l-22.9,8.2L335,588.9l-21.4,11.7l-27.4,17.8l-25.8,19.9l-24,22l-4.5,6.8l-4.3,6.9l-7,12.9l-8,16
	l-11.1,24.3l-17.9-7.7l-18.2-6.8l-18.5-5.8l-18.7-4.9l-17-3.9L94,694.9l-22.4-2.8l-22.5-1.3l-30.3,0.8V506.3L18.7,321z M18.7,267.4
	l30.3,0.8l31.2-0.6l31.1-2.7l27.4-4.3L166,255l21-5l20.7-5.9l17.2-5.9l16.9-6.7l8.4,20.6l4.7,10.4l5.3,11.5l5.9,13l20.6,26.6
	l22.7,24.9l24.6,23l26.4,20.9l20.7,14l21.5,12.6l22.3,11.1l31.9,13l32.6,11.3l47.5,14.8l48,12.9l-2.3,9.1l-4.5,2.3l-4.3,2.7l-4,2.9
	l-3.6,3.4l-2.6,3.6l-2.1,4l-2.3,6.2l0.2,11.1l0.1,6.5l0.1,13.6l0.6,11.1l0.8,9.4l-21.5,2.2l-21.4,3.3l-21.2,4.5l-19.2,5.1l-18.9,6.1
	l-18.5,7.2l-26.8,12.9l-25.7,15.2l-24.6,17l-23.6,18.6l-22.4,20l-21,21.4l-19.6,22.6l-4.5,6.8l-4.3,6.9l-7,12.9l-8,16L241.7,781
	l-22.8-8.6l-23.2-7.4l-23.4-6.1l-23.7-5l-21.4-3.9l-21.6-3l-28.1-2.2l-28.2-0.4L19,745.2v-239L18.7,267.4z M18.7,307.6l30.3,0.8
	l25.4-1.6l25.2-3.3l22.2-4.4l22-5.5l16.9-4.9l16.7-5.6l13.8-5.4l13.6-6l8.4,20.6l4.7,10.4l5.3,11.5l5.9,13l19.4,22.2l21.2,20.6
	l22.8,18.8l24.2,16.8l18.8,11.1l19.5,9.8l20.1,8.5l28.6,9.7l29.1,8.1l42.3,10.4l42.7,8.7l-2.3,9.1l-4.5,2.3l-4.3,2.7l-4,2.9
	l-3.6,3.4l-2.6,3.6l-2.1,4l-2.3,6.2l0.2,11.1l0.1,6.5l0.1,13.6l0.6,11.1l0.8,9.4l-27.9,1.1l-27.8,3.3l-25.2,5l-24.6,7.1l-23.9,9.4
	l-23,11.4l-22.2,13l-28.4,19.6l-26.6,21.8l-24.6,24l-4.5,6.8l-4.3,6.9l-7,12.9l-8,16l-11.1,24.3l-18.2-7.8l-18.6-6.8l-18.9-5.8
	l-19.1-5l-17.3-3.9L94.9,708L72,705.2l-23-1.3l-30.3,0.8V506.1V307.6z M18.7,294.2L49,295l28-1.1l27.9-3l24.6-4.4l24.4-5.6l18.7-4.9
	l18.5-5.7l15.4-5.6l15.1-6.3L230,279l4.7,10.4l5.3,11.5l5.9,13l19.8,23.6l21.7,22l23.4,20.2l25,18.2l19.5,12.1l20.2,10.8l20.8,9.4
	L426,441l30.3,9.1l44.1,11.9l44.4,10.1l-2.3,9.1l-4.5,2.3l-4.3,2.7l-4,2.9l-3.6,3.4l-2.6,3.6l-2.1,4l-2.3,6.2l0.2,11.1l0.1,6.5
	l0.1,13.6l0.6,11.1l0.8,9.4l-29.4,2l-29.1,4.3l-26.4,6l-25.7,8.2L385.4,589l-23.9,12.6l-23,14.4l-22.2,15.9L294.9,649l-20,18.5
	l-18.7,19.7l-4.5,6.8l-4.3,6.9l-7,12.9l-8,16l-11,24.2l-20.3-8.2l-20.7-7.1l-20.9-5.9l-21.2-5L119,724l-19.3-3.1l-25.2-2.5
	l-25.3-0.9l-30.3,0.8v-212L18.7,294.2z M18.7,280.8l30.3,0.8l30.6-0.7l30.5-2.7l27-4.3l26.7-5.6l20.6-5l20.4-5.9l16.9-5.9l16.6-6.6
	l8.4,20.6l4.7,10.4l5.3,11.5l5.9,13l20.2,25.1L305,349l24,21.6l25.7,19.5l20.1,13l20.8,11.7l21.5,10.2l30.9,12l31.5,10.2l45.8,13.3
	l46.2,11.5l-2.3,9.1l-4.5,2.3l-4.3,2.7l-4,2.9l-3.6,3.4l-2.6,3.6l-2.1,4l-2.3,6.2l0.2,11.1l0.1,6.5l0.1,13.6l0.6,11.1l0.8,9.4
	l-20.6,1.6l-20.4,2.7l-20.3,3.8l-27.5,7l-26.8,9.3L405.9,594l-24.8,13.9l-23.8,15.7l-22.9,17.2l-21.7,18.6l-20.5,19.9l-19.1,21.2
	l-4.5,6.8l-4.3,6.9l-7,12.9l-8,16l-11.1,24.3l-22.4-8.5l-22.8-7.3l-23-6l-23.3-5l-21.1-3.9l-21.2-3l-27.7-2.2L49.1,731l-30.3,0.8
	V506.3L18.7,280.8z M192.6,1095.2l-13.4,5l-13.8,4l-14.1,2.9l-14.2,1.7L121,1109l-16-1.7l-12.3-2.6l-12-3.7l-11.6-4.8l-0.1-33.5
	l0.1-34l0.1-28l0.2-37h9.4l6.1,8.2l7.2,7.3l4.2,3.4l4.5,2.9l5,2.3l5.2,1.8l6.6,1.7l6.7,1.2l7.4-0.1l7.4-0.5l6.8-0.7l6.6-1.5l6.1-2.6
	l5.8-3.4l7.4-5.8l6.5-6.7l5.5-7.5l9.4,0.1l-0.2,29.5l-0.2,32.2l-0.1,38L192.6,1095.2z M192.6,1095.2l-13.4,5l-13.8,4l-14.1,2.9
	l-14.2,1.7L121,1109l-16-1.7l-12.3-2.6l-12-3.7l-11.6-4.8l-0.1-33.5l0.1-34l0.1-28l0.2-37h9.4l6.1,8.2l7.2,7.3l4.2,3.4l4.5,2.9
	l5,2.3l5.2,1.8l6.6,1.7l6.7,1.2l7.4-0.1l7.4-0.5l6.8-0.7l6.6-1.5l6.1-2.6l5.8-3.4l7.4-5.8l6.5-6.7l5.5-7.5l9.4,0.1l-0.2,29.5
	l-0.2,32.2l-0.1,38L192.6,1095.2z M192.6,1095.2l-13.4,5l-13.8,4l-14.1,2.9l-14.2,1.7L121,1109l-16-1.7l-12.3-2.6l-12-3.7l-11.6-4.8
	l-0.1-33.5l0.1-34l0.1-28l0.2-37h9.4l6.1,8.2l7.2,7.3l4.2,3.4l4.5,2.9l5,2.3l5.2,1.8l6.6,1.7l6.7,1.2l7.4-0.1l7.4-0.5l6.8-0.7
	l6.6-1.5l6.1-2.6l5.8-3.4l7.4-5.8l6.5-6.7l5.5-7.5l9.4,0.1l-0.2,29.5l-0.2,32.2l-0.1,38L192.6,1095.2z M192.6,1095.2l-13.4,5
	l-13.8,4l-14.1,2.9l-14.2,1.7L121,1109l-16-1.7l-12.3-2.6l-12-3.7l-11.6-4.8l-0.1-33.5l0.1-34l0.1-28l0.2-37h9.4l6.1,8.2l7.2,7.3
	l4.2,3.4l4.5,2.9l5,2.3l5.2,1.8l6.6,1.7l6.7,1.2l7.4-0.1l7.4-0.5l6.8-0.7l6.6-1.5l6.1-2.6l5.8-3.4l7.4-5.8l6.5-6.7l5.5-7.5l9.4,0.1
	l-0.2,29.5l-0.2,32.2l-0.1,38L192.6,1095.2z M192.6,1095.2l-13.4,5l-13.8,4l-14.1,2.9l-14.2,1.7L121,1109l-16-1.7l-12.3-2.6l-12-3.7
	l-11.6-4.8l-0.1-33.5l0.1-34l0.1-28l0.2-37h9.4l6.1,8.2l7.2,7.3l4.2,3.4l4.5,2.9l5,2.3l5.2,1.8l6.6,1.7l6.7,1.2l7.4-0.1l7.4-0.5
	l6.8-0.7l6.6-1.5l6.1-2.6l5.8-3.4l7.4-5.8l6.5-6.7l5.5-7.5l9.4,0.1l-0.2,29.5l-0.2,32.2l-0.1,38L192.6,1095.2z M192.6,1095.2
	l-13.4,5l-13.8,4l-14.1,2.9l-14.2,1.7L121,1109l-16-1.7l-12.3-2.6l-12-3.7l-11.6-4.8l-0.1-33.5l0.1-34l0.1-28l0.2-37h9.4l6.1,8.2
	l7.2,7.3l4.2,3.4l4.5,2.9l5,2.3l5.2,1.8l6.6,1.7l6.7,1.2l7.4-0.1l7.4-0.5l6.8-0.7l6.6-1.5l6.1-2.6l5.8-3.4l7.4-5.8l6.5-6.7l5.5-7.5
	l9.4,0.1l-0.2,29.5l-0.2,32.2l-0.1,38L192.6,1095.2z M192.6,1095.2l-13.4,5l-13.8,4l-14.1,2.9l-14.2,1.7L121,1109l-16-1.7l-12.3-2.6
	l-12-3.7l-11.6-4.8l-0.1-33.5l0.1-34l0.1-28l0.2-37h9.4l6.1,8.2l7.2,7.3l4.2,3.4l4.5,2.9l5,2.3l5.2,1.8l6.6,1.7l6.7,1.2l7.4-0.1
	l7.4-0.5l6.8-0.7l6.6-1.5l6.1-2.6l5.8-3.4l7.4-5.8l6.5-6.7l5.5-7.5l9.4,0.1l-0.2,29.5l-0.2,32.2l-0.1,38L192.6,1095.2z
	 M192.6,1095.2l-13.4,5l-13.8,4l-14.1,2.9l-14.2,1.7L121,1109l-16-1.7l-12.3-2.6l-12-3.7l-11.6-4.8l-0.1-33.5l0.1-34l0.1-28l0.2-37
	h9.4l6.1,8.2l7.2,7.3l4.2,3.4l4.5,2.9l5,2.3l5.2,1.8l6.6,1.7l6.7,1.2l7.4-0.1l7.4-0.5l6.8-0.7l6.6-1.5l6.1-2.6l5.8-3.4l7.4-5.8
	l6.5-6.7l5.5-7.5l9.4,0.1l-0.2,29.5l-0.2,32.2l-0.1,38L192.6,1095.2z M1999.3,1633l-9.4,0.5l-24.5,7.2l-24.4,7.6l-31.5,10.7
	l-31.5,10.9l-33.5,11l-33.8,10l-34.2,8.6l-46.3,8.8l-46.9,5.8l-47.1,2.9l-47.1-2.9l-46.9-5.8l-46.3-8.8l-34.2-8.6l-33.8-10l-33.5-11
	l-31.5-10.9l-31.5-10.7l-24.4-7.6l-24.5-7.2l-9.4-0.5l0.9-16.9l0.9-16.9l0.9-16.7l1-19.2l0.7-13.6l0.6-13.3l0.6-11.9l0.6-13.7
	l2-48.4l1.3-39.5l0.5-19.9l0.5-26.9l0.2-13.2l0.1-13.6v-10.7v-16l-1.2-33.8l-2.3-33.8l-2.8-28.8l-3.6-28.7l-6.6-42.6l-10.7-65.6
	l-4.6-33.2l-3.2-27.3l-2.9-28l-3.9-39.1l9.3-0.9l6.1-24.5l7.8-24.1l9.4-23.5l11-22.9l13.1-23.1l14.8-22.1l16.5-20.8l18.1-19.3
	l28-24.4l30.3-21.8l31.7-20l36-20.7l36.8-19l37.7-16.9l4,8.5l11.8,1.7l11.9,1.2l9.4,0.5l9.4,0.2l19.8,0.1l20.6,0.2l20.6-0.2
	l19.8-0.1l9.4-0.2l9.4-0.5l11.9-1.2l11.8-1.7l4-8.5l37.7,16.9l36.8,19l36,20.7l31.7,20l30.3,21.8l28,24.4l18.1,19.3l16.5,20.8
	l14.8,22.1l13.1,23.1l11,22.9l9.4,23.5l7.8,24.1l6.1,24.5l9.3,0.9l-3.9,39.1l-2.9,28l-3.2,27.3l-4.6,33.2l-10.7,65.6l-6.6,42.6
	l-3.6,28.7l-2.8,28.8l-2.3,33.8l-1.2,33.8v16v10.7l0.1,13.6l0.2,13.2l0.5,26.9l0.5,19.9l1.3,39.5l2,48.4l0.6,13.7l0.6,11.9l0.6,13.3
	l0.7,13.6l1,19.2l0.9,16.7l0.9,16.9L1999.3,1633L1999.3,1633z M1979.2,1645.7l-9.4,0.5l-23.1,7.1l-22.9,7.5l-29.7,10.5l-29.6,10.7
	l-31.5,10.9l-31.8,9.9l-32.2,8.6l-43.7,8.9l-44.3,6.1l-44.5,3.4l-44.5-3.4l-44.3-6.1l-43.7-8.9l-32.2-8.6l-31.8-9.9l-31.5-10.9
	l-29.6-10.7l-29.7-10.5l-22.9-7.5l-23.1-7.1l-9.4-0.5l0.9-16.9l0.9-16.9l0.9-16.7l1-19.2l0.7-13.6l0.6-13.3l0.6-11.9l0.6-13.7
	l2-48.4l1.3-39.5l0.5-19.9l0.5-26.9l0.2-13.2l0.1-13.6v-10.7v-16l-1-35.7l-2.2-35.7l-2.8-30.4l-3.6-30.3l-6.7-45l-10.8-69.4
	l-4.6-33.2l-3.2-27.3l-2.9-28l-3.9-39.1l9.3-0.9l7.9-31l10.6-30.2l13.3-29.2l12.4-22.1l14-21.1l15.5-19.9l17.1-18.5l26.5-23.4
	l28.7-20.9l30-19.1l34.1-19.9l34.8-18.2l35.7-16.3l4,8.5l11.3,1.7l11.4,1.1l9,0.5l9,0.2l19,0.1l19.7,0.2l19.7-0.2l19-0.1l9-0.2
	l9-0.5l11.4-1.1l11.3-1.7l4-8.5l35.7,16.3l34.8,18.2l34.1,19.9l30,19.1l28.7,20.9l26.5,23.4l17.1,18.5l15.5,19.9l14,21.1l12.4,22.1
	l13.3,29.2l10.7,30.2l7.9,31l9.3,0.9l-3.9,39.1l-2.9,28l-3.2,27.3l-4.6,33.2l-10.9,69.4l-6.7,45l-3.6,30.3l-2.8,30.4l-2.2,35.7
	l-1,35.7v16v10.7l0.1,13.6l0.2,13.2l0.5,26.9l0.5,19.9l1.3,39.5l2,48.4l0.6,13.7l0.6,11.9l0.6,13.3l0.7,13.6l1,19.2l0.9,16.7
	l0.9,16.9L1979.2,1645.7L1979.2,1645.7z M1959,1659.2l-9.4,0.5l-21.8,5.1l-21.7,5.5l-28.1,7.9l-28,8.1l-29.8,8.1l-30,7.2l-30.3,6
	l-41,5.6l-41.3,2.9l-41.3,0.4l-41.3-0.4l-41.3-2.9l-41-5.6l-30.3-6l-30-7.2l-29.8-8.1l-28-8.1l-28.1-7.9l-21.7-5.5l-21.8-5.1
	l-9.4-0.5l0.9-16.9l0.9-16.9l0.9-16.7l1-19.2l0.7-13.6l0.6-13.3l0.6-11.9l0.6-13.7l2-48.4l1.3-39.5l0.5-19.9l0.5-26.9l0.2-13.2
	l0.1-13.6v-10.7v-16l-0.9-37.7l-2.1-37.6l-2.7-32.1l-3.7-32l-3.3-23.7l-3.5-23.7l-11-73.2l-4.6-33.2l-3.2-27.3l-2.9-28l-3.9-39.1
	l9.3-0.9l7.3-29.4l9.9-28.7l12.5-27.8l11.5-21l13.1-20.1l14.6-18.9l16-17.6l25-22.3l27-20l28.3-18.3l32.1-19l32.9-17.5l33.8-15.7
	l4,8.5l10.8,1.6l10.9,1.1l17.3,0.8l18.2,0.1l18.9,0.2l18.9-0.2l18.2-0.1l17.3-0.8l10.9-1.1l10.8-1.6l4-8.5l33.8,15.7l32.9,17.5
	l32.1,19l28.3,18.3l27,20l25,22.3l16,17.6l14.6,18.9l13.1,20.1l11.5,21l12.5,27.8l9.9,28.7l7.3,29.4l9.3,0.9l-3.9,39.1l-2.9,28
	l-3.2,27.3l-4.6,33.2l-11,73.2l-3.5,23.7l-3.3,23.7l-3.7,32l-2.7,32.1l-2.1,37.6l-0.9,37.7v16v10.7l0.1,13.6l0.2,13.2l0.5,26.9
	l0.5,19.9l1.3,39.5l2,48.4l0.6,13.7l0.6,11.9l0.6,13.3l0.7,13.6l1,19.2l0.9,16.7l0.9,16.9L1959,1659.2L1959,1659.2z M1885.2,1592.1
	l-9.4,0.5l-16.6,4.9l-16.5,5.2l-21.4,7.2l-21.3,7.4l-34.1,11l-34.6,9.2l-31.4,6l-31.7,3.9l-31.9,2l-31.9-2l-31.7-3.9l-31.4-6
	l-34.6-9.2l-34.1-11l-21.3-7.4l-21.4-7.2l-16.5-5.2l-16.6-4.9l-9.4-0.5l0.9-16.9l0.9-16.9l0.9-16.7l1-19.2l0.7-13.6l0.6-13.3
	l0.6-11.9l0.6-13.7l2-48.4l1.3-39.5l0.5-19.9l0.5-26.9l0.2-13.2l0.1-13.6v-10.7v-16l-1.6-28l-2.6-27.9l-2.9-23.8l-3.6-23.7
	l-6.3-35.2l-10.2-54.2l-4.6-33.2l-3.2-27.3l-2.9-28l-3.9-39.1l9.3-0.9l6-22.5l8-22l10-21.2l12.5-21.2l14.5-19.8l16.5-18l19.5-16.9
	l21.1-15l22-13.7l25-14.2l25.5-13.1l26.2-11.6l4,8.5l8.4,1.4l8.5,1l13.5,0.8l14.2,0.3l14.7,0.4l14.7-0.4l14.2-0.3l13.5-0.8l8.5-1
	l8.4-1.4l4-8.5l26.2,11.6l25.5,13.1l25,14.2l22,13.7l21.1,15l19.5,16.9l16.5,18l14.5,19.8l12.5,21.2l10,21.2l8,22l6,22.5l9.3,0.9
	l-3.9,39.1l-2.9,28l-3.2,27.3l-4.6,33.2l-10.2,54.2l-6.3,35.2l-3.6,23.7l-2.9,23.8l-2.6,27.9l-1.6,28v16v10.7l0.1,13.6l0.2,13.2
	l0.5,26.9l0.5,19.9l1.3,39.5l2,48.4l0.6,13.7l0.6,11.9l0.6,13.3l0.7,13.6l1,19.2l0.9,16.7l0.9,16.9L1885.2,1592.1z M1938.9,1645.7
	l-9.4,0.5l-20.3,5.1l-20.2,5.4l-26.3,7.7l-26.2,7.9l-41.9,11.6l-42.4,9.4l-38.3,5.7l-38.7,3.2l-38.8,0.9l-38.8-0.9l-38.7-3.2
	l-38.3-5.7l-42.4-9.4l-41.9-11.6l-26.2-7.9l-26.3-7.7l-20.2-5.4l-20.3-5.1l-9.4-0.5l0.9-16.9l0.9-16.9l0.9-16.7l1-19.2l0.7-13.6
	l0.6-13.3l0.6-11.9l0.6-13.7l2-48.4l1.3-39.5l0.5-19.9l0.5-26.9l0.2-13.2l0.1-13.6v-10.7v-16l-1-35.7l-2.2-35.7l-2.8-30.4l-3.6-30.3
	l-6.7-45l-10.8-69.4l-4.6-33.2l-3.2-27.3l-2.9-28l-3.9-39.1l9.3-0.9l6.6-27.8l9.1-27.2l11.5-26.3l10.8-19.9l12.2-19l13.6-18l15-16.7
	l23.4-21.3l25.4-19.1l26.6-17.5l30.2-18.2l30.9-16.8l31.8-15.1l4,8.5l10.4,1.6l10.4,1.1l16.5,0.8l17.4,0.2l18.1,0.3l18.1-0.3
	l17.4-0.2l16.5-0.8l10.4-1.1l10.4-1.6l4-8.5l31.8,15.1l30.9,16.8l30.2,18.2l26.6,17.5l25.4,19.1l23.4,21.3l15,16.7l13.6,18l12.2,19
	l10.8,19.9l11.5,26.3l9.1,27.2l6.6,27.8l9.3,0.9l-3.9,39.1l-2.9,28l-3.2,27.3l-4.6,33.2l-10.9,69.4l-6.7,45l-3.6,30.3l-2.8,30.4
	l-2.2,35.7l-1,35.7v16v10.7l0.1,13.6l0.2,13.2l0.5,26.9l0.5,19.9l1.3,39.5l2,48.4l0.6,13.7l0.6,11.9l0.6,13.3l0.7,13.6l1,19.2
	l0.9,16.7l0.9,16.9L1938.9,1645.7L1938.9,1645.7z M1898.6,1605.5l-9.4,0.5l-17.5,4.9l-17.4,5.3l-22.6,7.3l-22.5,7.5l-36,11.1
	l-36.6,9.2l-33.1,5.9l-33.5,3.7l-33.6,1.7l-33.6-1.7l-33.5-3.7l-33.1-5.9l-36.6-9.2l-36-11.1l-22.5-7.5l-22.6-7.3l-17.4-5.3
	l-17.5-4.9l-9.4-0.5l0.9-16.9l0.9-16.9l0.9-16.7l1-19.2l0.7-13.6l0.6-13.3l0.6-11.9l0.6-13.7l2-48.4l1.3-39.5l0.5-19.9l0.5-26.9
	l0.2-13.2l0.1-13.6v-10.7v-16l-1.5-30l-2.4-29.9l-2.9-25.5l-3.6-25.4l-6.4-37.7l-10.3-58l-4.6-33.2l-3.2-27.3l-2.9-28l-3.9-39.1
	l9.3-0.9l6.2-23.9l8.3-23.3l10.4-22.5l13-22.5l15.2-21l17.3-19.2l20.5-18l22.2-16l23.2-14.7l26.3-15.2l26.9-14l27.6-12.5l4,8.5
	l8.9,1.5l9,1l14.2,0.8l15,0.3l15.6,0.4l15.6-0.4l15-0.3l14.2-0.8l9-1l8.9-1.5l4-8.5l27.6,12.5l26.9,14l26.3,15.2l23.1,14.7l22.2,16
	l20.5,18l17.3,19.2l15.2,21l13,22.5l10.4,22.5l8.3,23.3l6.2,23.9l9.3,0.9l-3.9,39.1l-2.9,28l-3.2,27.3l-4.6,33.2l-10.3,58l-6.4,37.7
	l-3.6,25.4l-2.9,25.5l-2.4,29.9l-1.5,30v16v10.7l0.1,13.6l0.2,13.2l0.5,26.9l0.5,19.9l1.3,39.5l2,48.4l0.6,13.7l0.6,11.9l0.6,13.3
	l0.7,13.6l1,19.2l0.9,16.7l0.9,16.9L1898.6,1605.5L1898.6,1605.5z M1912.1,1618.9l-9.4,0.5l-18.5,5l-18.4,5.3l-23.8,7.5l-23.7,7.7
	l-38,11.3l-38.5,9.3l-34.9,5.9l-35.2,3.5l-35.3,1.4l-35.3-1.4l-35.2-3.5l-34.9-5.9l-38.5-9.3l-38-11.3l-23.7-7.7l-23.8-7.5
	l-18.4-5.3l-18.5-5l-9.4-0.5l0.9-16.9l0.9-16.9l0.9-16.7l1-19.2l0.7-13.6l0.6-13.3l0.6-11.9l0.6-13.7l2-48.4l1.3-39.5l0.5-19.9
	l0.5-26.9l0.2-13.2l0.1-13.6v-10.7v-16l-1.3-31.9l-2.3-31.8l-2.8-27.1l-3.6-27l-6.5-40.1l-10.5-61.8l-4.6-33.2l-3.2-27.3l-2.9-28
	l-3.9-39.1l9.3-0.9l6.3-25.2l8.6-24.6l10.8-23.7l13.6-23.8l15.9-22.3l18.1-20.3l21.4-19.1l23.2-17l24.3-15.6l27.6-16.2l28.2-14.9
	l29-13.3l4,8.5l9.4,1.5l9.4,1.1l15,0.8l15.8,0.2l16.4,0.4l16.4-0.4l15.8-0.2l15-0.8l9.4-1.1l9.4-1.5l4-8.5l29,13.3l28.2,14.9
	l27.6,16.2l24.3,15.6l23.2,17l21.4,19.1l18.1,20.3l15.9,22.3l13.6,23.8l10.8,23.7l8.6,24.6l6.3,25.2l9.3,0.9l-3.9,39.1l-2.9,28
	l-3.2,27.3l-4.6,33.2l-10.5,61.8l-6.5,40.1l-3.6,27l-2.8,27.1l-2.4,31.8l-1.3,31.9v16v10.7l0.1,13.6l0.2,13.2l0.5,26.9l0.5,19.9
	l1.3,39.5l2,48.4l0.6,13.7l0.6,11.9l0.6,13.3l0.7,13.6l1,19.2l0.9,16.7l0.9,16.9L1912.1,1618.9L1912.1,1618.9z M1925.5,1632.3
	l-9.4,0.5l-19.4,5l-19.3,5.4l-25,7.6l-25,7.8l-39.9,11.5l-40.5,9.3l-36.6,5.8l-37,3.4l-37,1.1l-37-1.1l-37-3.4l-36.6-5.8l-40.5-9.3
	l-39.9-11.5l-25-7.8l-25-7.6l-19.3-5.4l-19.4-5l-9.4-0.5l0.9-16.9l0.9-16.9l0.9-16.7l1-19.2l0.7-13.6l0.6-13.3l0.6-11.9l0.6-13.7
	l2-48.4l1.3-39.5l0.5-19.9l0.5-26.9l0.2-13.2l0.1-13.6v-10.7v-16l-1.2-33.8l-2.3-33.8l-2.8-28.8l-3.6-28.7l-6.6-42.6l-10.7-65.6
	l-4.6-33.2l-3.2-27.3l-2.9-28l-3.9-39.1l9.3-0.9l6.5-26.5l8.8-25.9l11.1-25l10.4-18.9l11.7-18.1l13.1-17.1l14.4-15.9l22.4-20.2
	l24.3-18L1474,758l28.9-17.2l29.6-15.9l30.4-14.2l4,8.5l9.9,1.6l9.9,1.1l15.8,0.8l16.6,0.2l17.2,0.3l17.2-0.3l16.6-0.2l15.8-0.8
	l9.9-1.1l9.9-1.6l4-8.5l30.4,14.2l29.6,15.9l28.9,17.2l25.5,16.6l24.3,18l22.4,20.2l14.4,15.9l13.1,17.1l11.7,18.1l10.4,18.9
	l11.1,25l8.8,25.9l6.5,26.5l9.3,0.9l-3.9,39.1l-2.9,28l-3.2,27.3l-4.6,33.2l-10.7,65.6l-6.6,42.6l-3.6,28.7l-2.8,28.8l-2.3,33.8
	l-1.2,33.8v16v10.7l0.1,13.6l0.2,13.2l0.5,26.9l0.5,19.9l1.3,39.5l2,48.4l0.6,13.7l0.6,11.9l0.6,13.3l0.7,13.6l1,19.2l0.9,16.7
	l0.9,16.9L1925.5,1632.3L1925.5,1632.3z M1988.2,1278.1v30.2v13.2v11.5l0.1,13.5l0.2,15.4l0.6,32.3l0.7,24.1l1.1,32.9l1.9,45.6
	l0.6,13.7l0.6,11.9l0.7,13.3l1.2,24.8h-245.2h-114.4H1522h-245.2l1.2-24.8l0.6-13.3l0.6-11.9l0.6-13.7l1.9-45.6l1.1-32.9l0.7-24.1
	l0.6-32.3l0.2-15.4l0.1-13.5v-11.5v-13.2v-30.2H1522h114.4h114.4H1988.2L1988.2,1278.1z M1968.2,1290.9v30.2v13.2v11.5l0.1,13.5
	l0.2,15.4l0.6,32.3l0.7,24.1l1.1,32.9l1.9,45.6l0.6,13.7l0.6,11.9l0.7,13.3l1.2,24.8h-231.8h-107.7h-107.7h-231.8l1.2-24.8l0.6-13.3
	l0.6-11.9l0.6-13.7l1.9-45.5l1.1-32.9l0.7-24.1l0.6-32.3l0.2-15.4l0.1-13.5v-11.5v-13.2V1291h224h107.7h107.7L1968.2,1290.9
	L1968.2,1290.9z M1948,1304.3v30.2v13.2v11.5l0.1,13.5l0.2,15.4l0.6,32.3l0.7,24.1l1.1,32.9l1.9,45.5l0.6,13.7l0.6,11.9l0.7,13.3
	l1.2,24.9h-218.4h-101h-101H1317l1.2-24.9l0.6-13.3l0.6-11.9l0.6-13.7l1.9-45.5l1.1-32.9l0.7-24.1l0.6-32.3l0.2-15.4l0.1-13.5v-11.5
	v-13.2v-30.2h210.6h101h101H1948L1948,1304.3z M1874.2,1237.2v30.2v13.2v11.5l0.1,13.5l0.2,15.4l0.6,32.3l0.7,24.1l1.1,32.9
	l1.9,45.5l0.6,13.7l0.6,11.9l0.7,13.3l1.2,24.8h-169h-76.6h-76.6h-169l1.2-24.8l0.6-13.3l0.6-11.9l0.6-13.7l1.9-45.5l1.1-32.9
	l0.7-24.1l0.6-32.3l0.2-15.4l0.1-13.5v-11.5v-13.2v-30.2h161.2h76.6h76.6H1874.2L1874.2,1237.2z M1927.9,1290.9v30.2v13.2v11.5
	l0.1,13.5l0.2,15.4l0.6,32.3l0.7,24.1l1.1,32.9l1.9,45.5l0.6,13.7l0.6,11.9l0.7,13.3l1.2,24.8h-204.9h-94.3h-94.3h-204.9l1.2-24.8
	l0.6-13.3l0.6-11.9l0.6-13.7l1.9-45.5l1.1-32.9l0.7-24.1l0.6-32.3l0.2-15.4l0.1-13.5v-11.5v-13.2v-30.2H1542h94.3h94.3H1927.9
	L1927.9,1290.9z M1887.6,1250.7v30.2v13.2v11.5l0.1,13.5l0.2,15.4l0.6,32.3l0.7,24.1l1.1,32.9l1.9,45.6l0.6,13.7l0.6,11.9l0.7,13.3
	l1.2,24.8h-178h-81h-81h-178l1.2-24.8l0.6-13.3l0.6-11.9l0.6-13.7l1.9-45.6l1.1-32.9l0.7-24.1l0.6-32.3l0.2-15.4l0.1-13.5V1294
	v-13.2v-30.2h170.2h81h81L1887.6,1250.7L1887.6,1250.7z M1901.1,1264.1v30.2v13.2v11.5l0.1,13.5l0.2,15.4l0.6,32.3l0.7,24.1
	l1.1,32.9l1.9,45.6l0.6,13.7l0.6,11.9l0.7,13.3l1.2,24.9h-186.9h-85.4h-85.4h-186.9l1.2-24.9l0.6-13.3l0.6-11.9l0.6-13.7l1.9-45.6
	l1.1-32.9l0.7-24.1l0.6-32.3l0.2-15.4l0.1-13.5v-11.5v-13.2v-30.2H1551h85.4h85.4H1901.1L1901.1,1264.1z M1914.5,1277.5v30.2v13.2
	v11.5l0.1,13.5l0.2,15.4l0.6,32.3l0.7,24.1l1.1,32.9l1.9,45.6l0.6,13.7l0.6,11.9l0.7,13.3l1.2,24.8h-196h-89.9h-89.9h-196l1.2-24.8
	l0.6-13.3l0.6-11.9l0.6-13.7l1.9-45.6l1.1-32.9l0.7-24.1l0.6-32.3l0.2-15.4l0.1-13.5v-11.5v-13.2v-30.2h188.2h89.9h89.9H1914.5
	L1914.5,1277.5z"/>
<path id="alignments" class="st6" d="M0,0v13.4h13.4V0H0z M2032.7,1730.8v13.4h13.4v-13.4H2032.7z"/>
<polygon class="st7" points="1217.8,1695 1218,1694.9 1216.4,1681.6 1216.6,1681.6 1215,1668.3 1215.2,1668.3 1213.5,1654.9 
	1213.7,1654.9 1212.1,1641.6 1212.3,1641.6 1209.3,1616.8 1207.1,1599.5 1205.2,1584.9 1202.8,1565.7 1202,1558.2 1200.2,1538.7 
	1198.1,1511.9 1194.6,1456.7 1191.5,1392.9 1190.5,1347.4 1190.1,1310.6 1190.1,1273.7 1190.6,1236.8 1191.2,1199.9 1192.4,1116.5 
	1193,1105.5 1192.5,1100.7 1192.7,1062.7 1192.6,1028.6 1192.4,1000.7 1192.2,957 1172.7,957.2 1164.9,967.7 1158.3,974.4 
	1154.7,977.3 1150.9,979.8 1146.7,981.8 1142,983.4 1136,985 1130.2,986 1123.6,985.9 1116.5,985.4 1110.2,984.7 1104.5,983.5 
	1099.4,981.3 1094.4,978.3 1087.8,973.1 1081.9,967.1 1074.7,957.2 1055.1,957.3 1055.4,993.6 1055.6,1025.7 1055.7,1063.7 
	1055.6,1099.8 1056,1105.5 1053.6,1174.1 1052.5,1223.4 1051.4,1268.5 1051.1,1297.5 1051.1,1326.5 1052,1369.8 1053.5,1413 
	1055.5,1452.2 1058,1491.4 1061.2,1530.9 1064.9,1570.4 1069.5,1615.2 1070,1619.1 1071,1628.5 1071.4,1632.5 1072.4,1641.9 
	1078.4,1693.2 1093.4,1691.4 1202.5,1710.4 1219.4,1708.3 "/>
<path class="st7" d="M207.6,1262.8l-1-23.5l-2-36.5l-2.1-39.9l-3.1-47.7l-0.3-9.1l0.3-0.7l0.4-5.6l-0.4-0.1l-0.1-19.2v-16.8l0.1-38
	l0.2-32.1l0.3-36.2l-19.6-0.1l-7.2,9.9l-5.9,6l-6.7,5.2l-5,3l-5.1,2.1l-5.7,1.3l-6.3,0.7l-7.1,0.5l-6.6,0.1l-5.8-1l-6.1-1.6
	l-4.7-1.6l-4.2-2l-3.8-2.5l-3.6-2.9l-6.6-6.7l-7.8-10.5L62.8,957l-0.2,43.7l-0.1,28l-0.1,34l0.1,38l0.4,0.2l-0.4,4.7
	c0,0,0.1,0.1,0.2,0.3l-0.3-0.2l0.3,10.8l1.6,79.4l0.8,35.1l0.6,35.1l0.2,35.1l-0.1,35.1l-0.7,43.3l-3.2,63.8l-3.4,55.1l-2.1,26.9
	l-2.4,26.9l-2.5,23.9l-3.5,29.5l-2.3,19.2l-1.9,14.6l-2.2,17.4l-3.1,24.8h0.2l-1.6,13.3h0.2l-1.6,13.3l17,2.1l109.1-18.9l15,1.8
	l6-51.3l1-9.4l0.5-3.9l1-9.4l0.5-3.9l1-9.4l0.5-3.9l1-9.4l0.5-3.9l1-9.4l0.5-3.9l4.7-44.8l3.7-39.5l3.2-39.5l2.5-39.2l2-39.2
	l1.5-43.2l0.9-43.4L207.6,1262.8z"/>
<rect x="241.7" y="1141.4" class="st1" width="378.8" height="31.8"/>
<rect x="632.2" y="1141.4" class="st1" width="378.8" height="31.8"/>
<rect x="241.7" y="1109.6" class="st2" width="378.8" height="31.8"/>
<rect x="632.2" y="1109.6" class="st2" width="378.8" height="31.8"/>
<rect x="241.7" y="1077.8" class="st3" width="378.8" height="31.8"/>
<rect x="632.2" y="1077.8" class="st3" width="378.8" height="31.8"/>
<rect x="1240.9" y="1141.4" class="st1" width="785" height="31.8"/>
<rect x="1240.9" y="1109.6" class="st2" width="785" height="31.8"/>
<rect x="1240.9" y="1077.8" class="st3" width="785" height="31.8"/>
<rect x="601.6" y="704" class="st8" width="49.5" height="1112"/>
</svg>
