<?xml version="1.0" encoding="utf-8"?>
<!-- Generator: Adobe Illustrator 26.0.3, SVG Export Plug-In . SVG Version: 6.00 Build 0)  -->
<svg version="1.1" id="Layer_1" xmlns="http://www.w3.org/2000/svg" xmlns:xlink="http://www.w3.org/1999/xlink" x="0px" y="0px"
	 viewBox="0 0 512 512" style="enable-background:new 0 0 512 512;" xml:space="preserve">
<style type="text/css">
	.st0{fill:#FFFFFF;}
	.st1{fill:#0057B7;}
	.st2{fill:#AA00A8;}
	.st3{fill:#8DA018;}
</style>
<g>
	<path id="base" class="st0" d="M257.6,240c0.1,0.6-1.6,16.5-2.7,24.8c-0.6,4.8-1.1,8.1-2.9,19c-2,12.2-2.6,17-3.4,24
		c-1.1,10-1.1,9.1-1.1,31c0,18.1,0,21.2,0.4,29.5c0.7,16.4,1.3,29.3,1.6,33c0.2,2.8-0.2,3.1-3.2,3l-1.9,0v1.1c0,0.9,0,1.2-0.4,1.5
		c-0.6,0.6-2.8,0.8-4.4,0.4c-0.2-0.1-0.2,0.2-0.2,1.5c0,1.6,0,1.6-0.5,2.1l-0.6,0.5l-1.8,0c-1.7-0.1-2.2-0.2-7.9-1.9
		c-17.9-5.4-35.8-9.7-48.2-11.8c-8.7-1.5-15.5-2.2-20.9-2.5c-1.1,0-1.9-0.1-2.4-0.1c0.2-0.1,0.3-0.1,0.4-0.2l0.5-0.4v-202l-0.5-0.4
		c-0.3-0.2-0.5-0.3-1.3-0.4c0.3-0.1,0.8-0.1,1.7-0.1c0.4,0,0.7,0,1.1,0v-0.2h1.9l3-0.3l2.9-0.6l2.9-0.9l3.1-1.2l2.8-1.6l2.5-1.9
		l1.6-1.8l1.4-2l1.2-2.2l1.3-3l1-3.2l1.2-3.8l8.9,2.3l7.2,2.5l7,3.1l6.6,3.8l4.9,3.4l4.6,3.7l4.2,4.1l3.9,4.5l4.9,7.1l4.2,7.6
		l3.9,7.7l4.9,10.2l4.3,9.5l2.3,0.2h-1.3C256.8,239,257.5,239.5,257.6,240z M155.5,394.8l-0.4-0.5V192.8l0.5-0.5
		c0.2-0.2,0.4-0.3,0.6-0.4c-0.4,0-1.1-0.1-1.9-0.1v-0.2h-2l-2.9-0.3l-3-0.5l-2.9-0.9l-3-1.2l-2.8-1.6l-2.4-2l-1.6-1.8l-1.5-2.1
		L131,179l-1.3-3l-0.9-3.2l-1.3-3.7l-8.9,2.2l-7.2,2.5l-7,3.2l-6.6,3.8l-4.9,3.4l-4.5,3.7l-4.2,4.1l-3.9,4.5l-4.9,7.1l-4.2,7.5
		l-3.8,7.7l-5,10.2l-4.2,9.5l-2.3,0.2h2.3c0,0,0,0,0,0.1c-0.1,0-0.5,0.1-0.8,0.1c-0.4,0-0.8,0.2-1.2,0.4l-0.6,0.4l0,1.5
		c0,1.8,1.8,17.2,2.6,23.8c0.6,4.9,1.3,9.1,3.2,20.8c2.1,12.9,3,19.5,4,29.9c0.3,3,0.3,5.5,0.3,22.5c0,12.8,0,20.9-0.2,24.5
		c-0.1,3-0.4,9.2-0.6,13.8c-0.4,9.6-0.8,18.3-1,22.4c-0.2,4.2-0.2,4.4,0.3,5l0.5,0.5l2,0l2.1,0l-0.1,1c-0.1,1,0,1,0.5,1.5
		c0.4,0.4,0.7,0.5,1.7,0.6c0.6,0,1.6,0,2.1,0l0.9-0.2v1.6c0,2.4,0.1,2.5,2.3,2.5c1.9,0,1.7,0.1,10.9-2.6c14-4.1,26.4-7.2,38.5-9.7
		c9.6-2,21.1-3.5,28-3.8c2.3-0.1,3.2-0.2,3.6-0.3C155.9,395.2,155.8,395.1,155.5,394.8z M509,239.9c-0.1-0.5-1-1-1.8-1
		c-0.4,0-0.5-0.1-0.8-0.9h0.1l-1.1-4.5l-2-6.1l-2.4-6l-2.8-5.9l-3.4-5.9l-3.8-5.6l-4.2-5.3l-4.6-5l-7.1-6.2l-7.7-5.6l-8-5l-9-5.2
		l-9.3-4.8l-11-4.9l-1.4,2.8l-2,0.3l-2.9,0.3l-2.3,0.1l-2.3,0.1l-4.9,0l-5.1,0.1l-5.1-0.1l-5,0l-2.3-0.1l-2.3-0.1l-2.9-0.3l-2-0.3
		l-1.5-2.8l-11,4.9l-9.3,4.8l-9,5.2l-8,5l-7.7,5.6l-7.1,6.2l-4.6,5l-4.2,5.3l-3.8,5.6l-3.4,5.9l-2.8,5.9l-2.4,6l-2,6.1l-1.1,4.5h0.1
		c-0.2,0.7-0.4,0.9-0.8,0.9c-0.6,0-1.5,0.4-1.7,0.7c-0.3,0.5-0.2,1.9,0.4,7.5c1.4,14.1,2.2,20.6,4,31.5c3.9,24,4.6,29.9,5.4,42.2
		c0.3,4.5,0.1,35.2-0.2,43.7c-0.8,18-1,21.7-1.8,38.1l-0.3,5.9l0.4,0.5c0.3,0.4,0.6,0.5,1.2,0.6c3,0.5,3.5,0.6,3.5,1
		c0,1.5,0.7,2.2,2,2.2c0.4,0,1.2,0.1,1.9,0.3l1.2,0.3l0,1c0,0.6,0.2,1.2,0.4,1.4s0.9,0.3,1.8,0.5c4.5,0.5,18.3,4.3,28.1,7.5
		c17.9,6,31.2,8.6,48.9,9.9c3,0.2,3.6,0.2,8.2-0.2c8.3-0.6,15.5-1.6,22.7-3.1c7.9-1.6,13.7-3.2,23.5-6.5c9-3,23.1-6.9,27.9-7.5
		c2.4-0.4,2.6-0.5,2.6-1.9v-1l0.9-0.2c0.5-0.1,1.5-0.3,2.2-0.4c1.6-0.2,1.9-0.5,1.9-1.6v-0.9l1-0.2c0.5-0.1,1.5-0.3,2.1-0.4
		c1.4-0.2,2-0.7,2-1.8c0-0.4-0.3-6-0.6-12.4c-0.6-11.2-0.8-15.5-1.5-31.2c-0.5-10.7-0.5-42.4,0-47.6c1-10.9,1.6-16.1,4.4-32.9
		c2.3-14.4,3.1-20.1,4.2-30.9C508.8,244.5,509.1,240.5,509,239.9z M272.6,201.4l5.5-1.2l5-0.9l5-0.8l6.5-0.6l6.5-0.1l9.2,0.2V55
		l-9.2,0.2l-7.2-0.2l-7.1-0.7l-6.3-1.1l-6.3-1.4l-4.9-1.2l-4.8-1.4l-3.9-1.4l-5.4-2.2l-1.5,3.6l-0.7-0.3l-2.7,6.7l-1.1,2.6l-1.3,2.9
		l-0.9,2.1l-3.9,5.4l-6.3,7.3l-6.9,6.8l-7.4,6.2l-5.8,4.1l-6,3.8l-6.3,3.4l-9,4l-9.3,3.5l-13.6,4.6l-15.4,4.5l1.1,4.6l1.8,0.9l1,0.6
		l0.9,0.6l0.7,0.6l0.5,0.7l0.5,0.8l0.4,1.1l-0.1,2.5l0,1.6l-0.1,3.4l-0.1,2.7l-0.3,3.9l7.9,1.1l6.2,1.2l6.1,1.5l5.6,1.7l5.5,1.9
		l5.3,2.3l7.7,4l7.4,4.7l7,5.1l6.7,5.7l6.4,6.1l5.9,6.4l5.3,6.6l0.1,0.1l1.7,3.1l2,4l3.4,7.4l0.6-0.2l1.6,3.5l6.8-2.6l5.3-1.8
		L272.6,201.4z M18.8,197.9l6.5,0.6l4.9,0.8l5,0.9l5.5,1.2L46,203l5.3,1.8l6.8,2.6l1.6-3.6l0.6,0.2l3.4-7.5l2-3.9l1.7-3.1l0.1-0.1
		l5.3-6.6l5.9-6.4l6.4-6.1l6.7-5.7l7.1-5.2l7.4-4.6l7.7-4l5.3-2.3l5.4-1.9l5.6-1.7l6.1-1.5l6.2-1.2l7.9-1.1l-0.4-3.9l-0.1-2.7V131
		l-0.1-1.6l0-2.4l0.4-1.1l0.4-0.8l0.5-0.6l0.7-0.7l0.9-0.6l0.9-0.6l1.7-0.9l1.2-4.6l-15.4-4.6l-13.6-4.6l-9.3-3.5l-9.1-4l-6.3-3.4
		l-6-3.8L91,89l-7.4-6.2L76.7,76l-6.3-7.4l-4-5.4l-0.9-2.1l-1.4-2.9L63,55.6L60.3,49l-0.7,0.3l-1.4-3.6l-5.5,2.2l-4,1.4L44,50.6
		l-4.8,1.2L33,53.2l-6.4,1L19.5,55l-7.2,0.2L3,55v143l9.2-0.2L18.8,197.9z M237,57.8l-3.3-13.2l3.3-13.2V27H76.2v4.2l3.3,13.2
		l-3.3,13.2V62H237V57.8z M169.1,162l-0.5-2.3l-0.6-1.8l-0.9-1.7l-1.4-1.5l-2.1-1.2l-2.3-0.7l-2.4-0.3l-2.2,0.1l-2.2-0.1l-2.5,0.3
		l-2.3,0.7l-2.1,1.2l-1.4,1.5l-0.9,1.7l-0.6,1.8l-0.5,2.3l-0.2,2.3l0.1,2.1l-0.1,2l0.2,2.3l0.5,2.3l0.6,1.8l0.9,1.7l1.4,1.5l2.1,1.2
		l2.3,0.7l2.5,0.3l2.2-0.1l2.2,0.1l2.4-0.3l2.3-0.7l2.1-1.2l1.4-1.5l0.9-1.7l0.6-1.8l0.5-2.3l0.2-2.3l-0.1-2l0.1-2.1L169.1,162z
		 M498.8,148.1l-0.4-8l-0.1-3.3l-0.1-3l-0.1-3.4l-0.5-11.4l-0.3-8.2l-0.2-6l-0.1-8l0-3.9l0-3.4V74.2H317.5v15.4V93l0,3.9l-0.1,8
		l-0.1,6l-0.3,8.2l-0.5,11.4l-0.1,3.4l-0.1,3l-0.1,3.3l-0.4,8h154.9H498.8z M304.5,423.7l-0.4-3.3h0l-0.4-3.4h0l-0.5-3.4h0l-0.4-3.3
		h0l-0.8-6.2l-0.5-4.3l-0.5-3.6l-0.6-4.8l-0.2-1.9l-0.5-4.9l-0.5-6.7l-0.9-13.8l-0.8-16l-0.2-11.4l-0.1-9.2v-9.2l0.1-9.2l0.1-9.2
		l0.3-20.9l0.1-2.8l-0.1-1.2l0-9.5l0-8.5l0-7l0-10.9l-4.9,0l-2,2.6l-1.6,1.6l-0.9,0.7l-1,0.6l-1,0.5l-1.2,0.4l-1.5,0.4l-1.5,0.2
		l-1.6-0.1l-1.8-0.1l-1.5-0.1l-1.5-0.3l-1.3-0.6l-1.2-0.8l-1.6-1.3l-1.5-1.5l-1.8-2.5h-4.9l0,9.1l0,8.1l0,9.5l0,9l0.1,1.5l-0.6,17.1
		l-0.3,12.3l-0.3,11.3l0,7.2v7.2l0.2,10.8l0.4,10.8l0.5,9.8l0.6,9.8l0.8,9.9l0.9,9.9l1.1,11.2l0.1,1l0.2,2.4l0.1,1l0.2,2.4l1.5,12.9
		l3.8-0.5l27.3,4.8l4.2-0.5L304.5,423.7L304.5,423.7z M51.6,309.8l-0.5-9.1l-0.5-10l-0.8-11.9l-0.1-2.3l0.1-0.2l0.1-1.4h-0.1
		l-0.1-4.8V266l0.1-9.5l0-8.1l0-9l-4.9-0.1l-1.8,2.5l-1.5,1.5l-1.7,1.3l-1.2,0.8l-1.3,0.5l-1.4,0.3l-1.6,0.2l-1.8,0.1l-1.7,0.1
		l-1.4-0.2l-1.6-0.4l-1.1-0.4l-1-0.5l-1-0.6l-0.9-0.7l-1.6-1.7l-2-2.6l-4.9-0.1l0,11l0,7l-0.1,8.5l0.1,9.5l0.1,0l-0.1,1.2l0,0
		l-0.1,0l0.1,2.7l0.4,19.9l0.2,8.8l0.1,8.8l0,8.8l0,8.8l-0.1,10.9l-0.8,16l-0.8,13.8l-0.6,6.7l-0.4,6.5l-0.6,6l-0.9,7.4l-0.5,4.8
		l-0.5,3.6l-0.6,4.4l-0.8,6.2h0l-0.4,3.3h0L8.9,427l4.2,0.5l27.2-4.7l3.8,0.5l1.5-12.8l0.2-2.4l0.1-1l0.2-2.4l0.1-1l0.2-2.4l0.1-1
		l0.2-2.4l0.1-1l0.2-2.4l0.1-1l1.2-11.2l0.9-9.9l0.8-9.9l0.6-9.8l0.5-9.8l0.4-10.8l0.2-10.9l-0.1-6L51.6,309.8z"/>
	<path id="stripe-3" class="st1" d="M113.9,61.9h-5.3V42h5.3V61.9z M60.5,285.4v7.9h89.9v-7.9H60.5z M162.8,285.4v7.9h90v-7.9H162.8
		z M310.2,285.4v8h196.2v-8H310.2z"/>
	<path id="stripe-2" class="st2" d="M108.5,61.9h-5.3V42h5.3V61.9z M12.2,55.4L3,55v143l9.2-0.2l6.5,0.1l2.5,0.2l0-143.3l-1.8,0.2
		L12.2,55.4z M310.2,55l-9.2,0.2l-7.2-0.2l-1.3-0.1v143.4l2-0.2l6.5-0.1l9.2,0.2V55z M60.5,277.4v8h89.9v-8H60.5z M162.8,277.4v8h90
		v-8H162.8z M310.2,277.4v8h196.2v-8H310.2z"/>
	<path id="stripe-1" class="st3" d="M119.2,61.9h-5.4V42h5.4V61.9z M60.5,277.4h89.9v-7.9H60.5V277.4z M162.8,277.4h90v-7.9h-90
		V277.4z M310.2,269.5v8h196.2v-8H310.2z"/>
	<rect class="st0" width="34.7" height="113.9"/>
	<rect x="477.3" y="34.2" class="st0" width="34.7" height="113.9"/>
</g>
</svg>
