<?xml version="1.0" encoding="utf-8"?>
<!-- Generator: Adobe Illustrator 26.0.3, SVG Export Plug-In . SVG Version: 6.00 Build 0)  -->
<svg version="1.1" id="Layer_1" xmlns="http://www.w3.org/2000/svg" xmlns:xlink="http://www.w3.org/1999/xlink" x="0px" y="0px"
	 viewBox="0 0 1024 1024" style="enable-background:new 0 0 1024 1024;" xml:space="preserve">
<style type="text/css">
	.st0{fill:#FFFFFF;}
	.st1{fill:#0057B7;}
	.st2{fill:#AA00A8;}
	.st3{fill:#8DA018;}
</style>
<path id="base" class="st0" d="M515.2,479.9c0.3,1.2-3.2,32.9-5.4,49.6c-1.2,9.5-2.2,16.3-5.8,38.1c-4,24.5-5.3,34-6.9,48.1
	c-2.2,20-2.1,18.1-2.1,61.9c0,36.3,0,42.4,0.8,59.1c1.4,32.9,2.6,58.7,3.1,66.1c0.4,5.5-0.4,6.1-6.4,5.9l-3.8-0.1v2.2
	c0,1.9-0.1,2.4-0.8,3.1c-1.2,1.2-5.6,1.5-8.8,0.7c-0.5-0.1-0.5,0.4-0.4,3.1c0.1,3.2,0.1,3.2-1,4.3l-1.1,1.1L473,823
	c-3.3-0.2-4.5-0.5-15.7-3.8c-35.8-10.7-71.6-19.4-96.4-23.5c-17.4-2.9-30.9-4.5-41.7-5c-2.2-0.1-3.7-0.2-4.9-0.2
	c0.3-0.1,0.5-0.2,0.8-0.4l0.9-0.7v-404l-0.9-0.8c-0.5-0.4-1.1-0.6-2.6-0.7c0.6-0.1,1.6-0.2,3.4-0.2c0.7,0,1.4,0,2.1,0v-0.4h3.9
	l5.9-0.6l5.9-1.1l5.8-1.8l6.1-2.5l5.6-3.2l4.9-3.9l3.2-3.6l2.8-4.1l2.5-4.4l2.6-6l1.9-6.5l2.4-7.5l17.7,4.5l14.4,5l13.9,6.3
	l13.3,7.6l9.7,6.8l9.2,7.4l8.4,8.2l7.7,9l9.8,14.3l8.4,15.2l7.7,15.4l9.9,20.5l8.6,18.9l4.6,0.5h-2.6
	C513.6,478,515,478.9,515.2,479.9z M311,789.5l-0.8-0.9V385.5l1-0.9c0.4-0.4,0.7-0.6,1.3-0.7c-0.9-0.1-2.1-0.2-3.9-0.2v-0.4h-3.9
	l-5.9-0.6l-5.9-1.1l-5.8-1.8l-6.1-2.5l-5.6-3.2l-4.9-3.9l-3.2-3.6l-2.9-4.1L262,358l-2.6-6l-1.9-6.5l-2.5-7.4l-17.7,4.4l-14.4,5
	l-13.9,6.4l-13.3,7.6l-9.7,6.7l-9.1,7.4l-8.5,8.2l-7.7,8.9l-9.8,14.3l-8.4,15.1l-7.6,15.4l-10,20.5l-8.5,19l-4.6,0.5h4.6
	c0,0.1-0.1,0.1-0.1,0.1c-0.2,0.1-0.9,0.3-1.6,0.3c-0.7,0-1.6,0.4-2.3,0.9l-1.2,0.8l0.1,3c0.1,3.6,3.5,34.4,5.2,47.6
	c1.3,9.8,2.6,18.2,6.4,41.6c4.2,25.7,5.9,39.1,7.9,59.8c0.6,6.1,0.6,11.1,0.6,45.1c0,25.5-0.1,41.8-0.4,49
	c-0.2,5.9-0.8,18.4-1.1,27.5c-0.8,19.2-1.6,36.6-2.1,44.8c-0.5,8.5-0.5,8.8,0.6,10.1l0.9,1.1l4.1-0.1l4.2-0.1l-0.2,2
	c-0.2,1.9-0.1,2.1,0.9,3.1c0.9,0.8,1.4,1.1,3.4,1.3c1.2,0.1,3.1,0.1,4.1-0.1l1.9-0.4v3.3c0,4.7,0.2,4.9,4.6,5.1
	c3.8,0.1,3.4,0.2,21.9-5.2c27.9-8.2,52.7-14.4,76.9-19.4c19.2-3.9,42.2-7.1,56-7.6c4.7-0.2,6.3-0.3,7.2-0.6
	C311.7,790.3,311.6,790.1,311,789.5z M1017.9,479.8c-0.2-1.1-1.9-2-3.6-2c-0.8,0-1.1-0.2-1.6-1.7h0.2l-2.2-9l-3.9-12.2l-4.8-12
	l-5.6-11.7l-6.7-11.8l-7.6-11.2l-8.4-10.6l-9.2-9.9l-14.2-12.4l-15.4-11.1l-16-10l-18.1-10.4l-18.6-9.6l-21.9-9.8l-2.7,5.5l-4.1,0.6
	l-5.8,0.6l-4.6,0.2l-4.6,0.1l-9.8,0.1l-10.2,0.1l-10.2-0.1l-9.9-0.1l-4.6-0.1l-4.6-0.2l-5.8-0.6l-4.1-0.6l-2.9-5.5l-21.9,9.8
	l-18.6,9.6l-18.1,10.4l-16,10l-15.4,11.1l-14.2,12.4l-9.2,9.9l-8.4,10.6l-7.6,11.2l-6.7,11.8l-5.6,11.7l-4.8,12l-3.9,12.2l-2.2,9
	h0.2c-0.5,1.5-0.8,1.7-1.5,1.7c-1.3,0-3.1,0.8-3.4,1.4c-0.6,1.1-0.4,3.8,0.8,15.1c2.8,28.2,4.5,41.1,8,63
	c7.7,47.9,9.2,59.8,10.8,84.5c0.6,9.1,0.2,70.4-0.5,87.4c-1.6,36.1-1.9,43.4-3.6,76.2l-0.6,11.8l0.8,1c0.6,0.8,1.2,1.1,2.5,1.3
	c5.9,1,6.9,1.3,6.9,2.1c0,2.9,1.4,4.4,4,4.4c0.8,0,2.4,0.2,3.8,0.6l2.4,0.6l0.1,2.1c0.1,1.2,0.4,2.4,0.7,2.7s1.8,0.6,3.6,0.9
	c8.9,1.1,36.6,8.6,56.2,15.1c35.8,11.9,62.4,17.3,97.8,19.8c6,0.4,7.3,0.4,16.4-0.4c16.6-1.3,31.1-3.3,45.4-6.3
	c15.7-3.2,27.4-6.4,46.9-12.9c18-6,46.3-13.7,55.8-15.1c4.8-0.8,5.2-1.1,5.2-3.8v-1.9l1.8-0.4c1.1-0.2,3-0.6,4.4-0.8
	c3.2-0.5,3.8-1,3.8-3.3V821l2.1-0.4c1.1-0.2,3.1-0.6,4.3-0.8c2.8-0.4,3.9-1.4,3.9-3.6c0-0.8-0.6-11.9-1.2-24.8
	c-1.2-22.5-1.6-30.9-3-62.4c-0.9-21.4-0.9-84.7,0-95.3c1.9-21.8,3.2-32.3,8.7-65.7c4.6-28.8,6.2-40.2,8.4-61.8
	C1017.5,489,1018.2,481,1017.9,479.8z M545.2,402.9l10.9-2.5l9.9-1.9l9.9-1.5l12.9-1.1l13-0.3l18.5,0.5v-286l-18.5,0.4l-14.4-0.4
	l-14.3-1.4l-12.6-2.1l-12.6-2.8l-9.7-2.4l-9.5-2.9l-7.8-2.8l-10.8-4.5l-3,7.3l-1.4-0.6l-5.4,13.4l-2.2,5.2l-2.6,5.8l-1.9,4.2
	l-7.8,10.7l-12.6,14.6l-13.8,13.6l-14.9,12.4l-11.6,8.3l-12.1,7.6l-12.6,6.7l-18.1,8l-18.6,7l-27.3,9.3l-30.8,9.1l2.3,9.1l3.5,1.8
	l1.9,1.2l1.8,1.2l1.4,1.3l1,1.4l0.9,1.6l0.8,2.3l-0.1,4.9l-0.1,3.3l-0.1,6.7l-0.2,5.4l-0.6,7.8l15.7,2.1l12.4,2.4l12.3,3l11.2,3.4
	l10.9,3.9l10.6,4.6l15.4,8.1l14.7,9.4L443,329l13.4,11.4l12.7,12.1l11.9,12.9l10.6,13.2l0.2,0.3l3.4,6.3l3.9,7.9L506,408l1.1-0.4
	l3.2,7.1l13.5-5.3l10.6-3.5L545.2,402.9z M37.5,395.9l12.9,1.1l9.9,1.5l9.9,1.9l10.9,2.5L92,406l10.6,3.6l13.5,5.3l3.2-7.2l1.1,0.4
	l6.9-14.9l3.9-7.9l3.4-6.3l0.2-0.3l10.6-13.1l11.9-12.9l12.7-12.1l13.4-11.4l14.1-10.4l14.7-9.3l15.4-8.1l10.6-4.6l10.9-3.9
	l11.2-3.4l12.3-3l12.4-2.4l15.8-2.2l-0.7-7.8l-0.2-5.4V262l-0.1-3.2l-0.1-4.9l0.9-2.3l0.8-1.6l1-1.3l1.4-1.4l1.8-1.2l1.9-1.2
	l3.4-1.8l2.4-9.1l-30.8-9.2l-27.3-9.3l-18.6-7l-18.2-8l-12.6-6.7l-12.1-7.6l-11.7-8.3l-14.8-12.4l-13.8-13.6l-12.6-14.7l-7.9-10.7
	l-1.9-4.2l-2.7-5.8l-2.2-5.2l-5.4-13.4l-1.4,0.6l-2.9-7.3l-10.9,4.4l-7.9,2.8l-9.5,2.9l-9.7,2.4l-12.5,2.8l-12.7,2.1L38.9,110
	l-14.4,0.4L6,110.1v286l18.5-0.5L37.5,395.9z M474,115.5L467.4,89l6.6-26.5v-8.4H152.4v8.4L159,89l-6.6,26.5v8.4H474V115.5z
	 M338.1,324l-1-4.6l-1.2-3.6l-1.8-3.4l-2.7-3l-4.2-2.5l-4.6-1.4l-4.9-0.6l-4.4,0.2l-4.4-0.2l-4.9,0.6l-4.6,1.4l-4.2,2.5l-2.7,3
	l-1.8,3.4l-1.2,3.6l-1,4.6l-0.4,4.6l0.3,4.1l-0.3,4.1l0.4,4.6l1,4.6l1.2,3.6l1.8,3.4l2.7,3l4.2,2.5l4.6,1.4l4.9,0.6l4.4-0.2l4.4,0.2
	l4.9-0.6l4.6-1.4l4.2-2.5l2.7-3l1.8-3.4l1.2-3.6l1-4.6l0.4-4.6l-0.3-4.1l0.3-4.1L338.1,324z M997.7,296.2l-0.8-15.9l-0.3-6.6l-0.3-6
	l-0.3-6.8l-0.9-22.8l-0.6-16.4l-0.4-12l-0.3-16.1l-0.1-7.7l-0.1-6.7v-30.8H635v30.8v6.7l-0.1,7.7l-0.3,16.1l-0.3,12l-0.6,16.4
	l-0.9,22.8l-0.3,6.8l-0.3,6l-0.3,6.6l-0.8,15.9h309.7H997.7z M609,847.4l-0.8-6.6h0.1l-0.8-6.7h0.1l-0.9-6.7h0.1l-0.8-6.6h0.1
	l-1.5-12.4l-1.1-8.6l-0.9-7.3l-1.2-9.6l-0.4-3.8l-0.9-9.8l-1.1-13.4l-1.8-27.6l-1.6-31.9l-0.5-22.8l-0.2-18.4v-18.4l0.2-18.5
	l0.3-18.4l0.6-41.7l0.3-5.5l-0.2-2.4l0.1-19l-0.1-17.1l-0.1-13.9l-0.1-21.9l-9.8,0.1l-3.9,5.2l-3.3,3.3l-1.8,1.4l-1.9,1.2l-2.1,1
	l-2.4,0.8l-3,0.8l-2.9,0.5l-3.3-0.1l-3.6-0.2l-3.1-0.3l-2.9-0.6l-2.6-1.1l-2.5-1.5l-3.3-2.6l-2.9-3l-3.6-4.9h-9.8l0.1,18.2l0.1,16.1
	l0.1,19l-0.1,18l0.2,2.9l-1.2,34.3l-0.6,24.6l-0.6,22.6l-0.1,14.5v14.5l0.4,21.6l0.8,21.6l1,19.6l1.2,19.6l1.6,19.8l1.8,19.8
	l2.3,22.4l0.2,1.9l0.5,4.7l0.2,2l0.5,4.7l3,25.7l7.5-0.9l54.6,9.5l8.4-1.1L609,847.4L609,847.4z M103.3,619.6l-1-18.2l-1.1-19.9
	l-1.6-23.8l-0.1-4.6l0.1-0.4l0.2-2.8h-0.2l-0.1-9.6v-8.4l0.1-19l0.1-16.1l0.1-18.1l-9.8-0.1l-3.6,5l-2.9,3l-3.4,2.6l-2.5,1.5
	l-2.6,1.1l-2.8,0.6l-3.2,0.4l-3.6,0.2l-3.3,0.1l-2.9-0.5l-3.1-0.8l-2.3-0.8l-2.1-1l-1.9-1.2l-1.8-1.4l-3.3-3.4l-3.9-5.2l-9.7-0.1
	L31,500.6l-0.1,14l-0.1,17l0.1,19l0.2,0.1l-0.2,2.4l0.1,0.1l-0.2-0.1l0.2,5.4l0.8,39.7l0.4,17.6l0.3,17.6l0.1,17.6l-0.1,17.5
	l-0.3,21.7l-1.6,31.9l-1.7,27.6l-1.1,13.4l-0.8,13l-1.2,12L24,802.9l-1.1,9.6l-1,7.3l-1.1,8.7l-1.6,12.4h0.1l-0.8,6.6h0.1l-0.8,6.6
	l8.5,1.1l54.5-9.4l7.5,0.9l3-25.6l0.5-4.7l0.2-1.9l0.5-4.7l0.2-1.9l0.5-4.7l0.2-1.9l0.5-4.7l0.2-2l0.5-4.7l0.2-1.9l2.4-22.4
	l1.9-19.8l1.6-19.8l1.2-19.6l1-19.6l0.8-21.6l0.4-21.7l-0.3-12.1L103.3,619.6z"/>
<path id="stripe-3" class="st1" d="M227.8,123.9h-10.7V84.1h10.7V123.9z M120.9,570.7v15.9h179.9v-15.9H120.9z M325.6,570.7v15.9
	h179.9v-15.9H325.6z M620.4,570.7v15.9h392.5v-15.9H620.4z"/>
<path id="stripe-2" class="st2" d="M217.1,123.9h-10.7V84.1h10.7V123.9z M24.5,110.7L6,110.1v286l18.5-0.5l13,0.3l5,0.5l0.1-286.6
	l-3.7,0.4L24.5,110.7z M620.5,110.1l-18.5,0.4l-14.4-0.4l-2.7-0.3v286.8l4.1-0.5l13-0.3l18.5,0.5V110.1z M120.9,554.8v15.9h179.9
	v-15.9H120.9z M325.6,554.8v15.9h179.9v-15.9H325.6z M620.4,554.8v15.9h392.5v-15.9H620.4z"/>
<path id="stripe-1" class="st3" d="M238.5,123.9h-10.7V84.1h10.7V123.9z M120.9,554.8h179.9v-15.9H120.9V554.8z M325.6,554.8h179.9
	v-15.9H325.6V554.8z M620.4,538.9v15.9h392.5v-15.9H620.4z"/>
</svg>
