<?xml version="1.0" encoding="utf-8"?>
<!-- Generator: Adobe Illustrator 26.0.3, SVG Export Plug-In . SVG Version: 6.00 Build 0)  -->
<svg version="1.1" id="Layer_1" xmlns:svg="http://www.w3.org/2000/svg"
	 xmlns="http://www.w3.org/2000/svg" xmlns:xlink="http://www.w3.org/1999/xlink" x="0px" y="0px" viewBox="0 0 1024 1024"
	 style="enable-background:new 0 0 1024 1024;" xml:space="preserve">
<style type="text/css">
	.st0{fill-rule:evenodd;clip-rule:evenodd;fill:#F2F2F2;}
	.st1{fill:#0A8B9B;}
	.st2{fill:#24AEBB;}
	.st3{fill:#83E9ED;}
	.st4{fill:#036F7E;}
</style>
<path id="base" class="st0" d="M104.2,631.1l-0.5-11.7l-1-18.2l-1-19.9l-1.5-23.8l-0.1-4.5l0.1-0.3l0.2-2.8l-0.2,0l0-9.6v-8.4l0-19
	l0.1-16l0.1-18.1l-9.8,0l-3.6,4.9l-2.9,3l-3.3,2.6l-2.5,1.5l-2.5,1l-2.8,0.6l-3.1,0.3l-3.5,0.2l-3.3,0l-2.9-0.5l-3-0.8l-2.3-0.8
	l-2.1-1l-1.9-1.2l-1.8-1.4l-3.3-3.3l-3.9-5.2l-9.6-0.1l-0.1,21.8l0,14l0,17l0,19l0.2,0.1l-0.2,2.3c0,0,0,0,0.1,0.1l-0.1-0.1l0.1,5.4
	l0.8,39.7l0.4,17.5l0.3,17.5l0.1,17.5l0,17.5L33,689.5l-1.6,31.9l-1.7,27.5l-1,13.4l-0.4,4.4l-0.7,8.3l-0.1,0.7l-1.2,11.8l0,0.1
	l-1.5,12.8l-0.2,1.9l-1.1,9.6l-0.5,4.1l-0.4,3.2l-1,8.2l-0.1,0.5l-1.5,12.1l0,0.2h0.1l-0.8,6.4l0,0.2h0.1L19,848l-0.7,5.6l0,0.2
	l8.5,1l4.8-0.8l17-2.9l1.9-0.3l30.8-5.3l7.5,0.9l3-25.6l0.5-4.7l0.2-1.9l0.5-4.7l0.2-1.9l0.5-4.7l0.2-1.9l0.5-4.7l0.2-1.9l0.5-4.7
	l0.2-1.9l2.2-21.2L98,765l1-11l0,0l0.8-8.7l1.6-19.7l1.2-19.6l1-19.6l0.7-21.6l0.4-21.7L104.2,631.1z M609.9,853.5l-0.8-6.5l0,0
	l0.1,0l0-0.2l-0.8-6.5h0.1l0-0.2l-0.8-6.5h0.1l0-0.2l-0.6-4.6L607,827h0.1l-0.3-2.8l-0.4-3.8h0.1l-0.5-4l-1-8.4l-0.9-7.2l-0.2-1.5
	l-0.9-7.3l-0.5-4.3l-0.5-4.2l-0.1-1.1l-0.4-3.7l-0.3-3.6l-0.6-6.2l-1-13.4l-1.7-27.6l-1.5-31.9l-0.5-22.7l-0.2-18.4v-18.4l0.2-18.4
	l0.3-18.4l0.6-41.7l0.3-5.5l-0.2-2.4l0.1-19l0-17l-0.1-13.9l-0.1-21.8l-9.7,0.1l-3.9,5.2l-3.3,3.3l-1.8,1.4l-1.9,1.2l-2.1,1
	l-2.3,0.8l-3,0.8l-2.9,0.5l-3.3,0l-3.5-0.2l-3.1-0.3l-2.8-0.6l-2.5-1.1l-2.5-1.5l-3.3-2.6l-2.9-3l-3.6-4.9l-9.8,0.1l0.1,18.1l0.1,16
	l0,19l0,18l0.2,2.8l-1.2,34.3l-0.5,24.6l-0.5,22.5l-0.1,14.5v14.5l0.4,21.6l0.7,21.6l1,19.6l1.2,19.6l0.7,8.2l0.9,11.5l0.2,2.6
	l0.4,3.9l0.6,6.9l0.5,5.6l0.1,0.8l2.3,22.4l0.2,1.9l0.5,4.7l0.2,2l0.5,4.7l3,25.6l7.5-0.9l30.8,5.4l1.9,0.3l16.9,2.9l4.9,0.8l0,0
	l8.4-1L609.9,853.5z M997.5,291.4l0-0.8l-0.5-10.5l-0.3-6.6l-0.3-5.9l-0.3-6.8l-0.9-22.7l-0.5-16.4l-0.3-12l-0.3-16.1l-0.1-7.7
	l0-6.7v-30.8H635.3v30.8l0,6.7l-0.1,7.7l-0.3,16.1l-0.3,12l-0.5,16.4l-0.9,22.7l-0.3,6.8l-0.3,5.9l-0.3,6.6l-0.8,15.9h366.4
	L997.5,291.4z M474.4,54H152.9v8.4l6.6,26.5l-6.5,26.5v8.4h321.4v-8.4l-6.5-26.5l6.5-26.5V54z M282.9,224.6l-27.3-9.3l-18.6-7
	l-18.1-8l-12.5-6.7l-12.1-7.5l-11.6-8.3l-14.8-12.4L154,151.8l-12.6-14.6l-7.9-10.7l-1.9-4.2l-2.6-5.7l-2.2-5.2l-5.4-13.3l-1.4,0.5
	l-3-7.3l-10.9,4.4L98,98.4l-9.5,2.8l-9.6,2.4l-12.5,2.7l-12.6,2.1L39.4,110L25,110.4L6.5,110v285.9l18.5-0.5l13,0.3l5,0.4l7.9,0.7
	l9.9,1.5l9.9,1.9l10.9,2.5l10.8,3.1l10.6,3.5l13.4,5.3l3.2-7.1l1.1,0.4l6.8-14.9l3.9-7.9l3.4-6.3l0.2-0.3l10.6-13.1l11.8-12.9
	l12.7-12.1l13.4-11.3l14-10.4l14.7-9.3l15.4-8l10.6-4.5l10.9-3.9l11.1-3.3l12.3-3l12.4-2.4l15.8-2.1l-0.6-7.8l-0.2-5.4l0-6.7l0-3.2
	l-0.1-4.9l0.8-2.3l0.8-1.6l1-1.3l1.4-1.3l1.7-1.2l1.9-1.2l3.4-1.8l2.3-9.1L282.9,224.6z M602.2,110.5l-14.4-0.4l-2.7-0.3l-11.6-1.1
	l-12.6-2.1l-12.5-2.7l-9.6-2.4l-9.5-2.8l-7.8-2.8l-10.9-4.5l-3,7.3l-1.4-0.5l-5.4,13.3l-2.2,5.2l-2.6,5.7l-1.9,4.2l-7.8,10.6
	l-12.6,14.6l-13.7,13.6l-14.8,12.4l-11.6,8.3l-12.1,7.5l-12.5,6.7l-18.1,8l-18.6,7l-27.3,9.3l-30.7,9.1l2.3,9.1l3.4,1.8l1.9,1.2
	l1.7,1.2l1.4,1.3l1,1.3l0.8,1.6l0.8,2.3l-0.1,4.9l0,3.3l0,6.7l-0.2,5.4l-0.6,7.8l15.7,2.1l12.4,2.4l12.3,3l11.1,3.3l10.9,3.9
	l10.6,4.5l15.4,8l14.7,9.3l14,10.4l13.4,11.3l12.7,12.1l11.8,12.9l10.6,13.1l0.2,0.3l3.4,6.3l3.9,7.9l6.8,14.9l1.1-0.4l3.2,7.1
	l13.4-5.3l10.6-3.5l10.7-2.9l10.9-2.5l9.9-1.9l9.9-1.5l8.8-0.8l4.1-0.4l13-0.3l18.5,0.5V110L602.2,110.5z M1017.7,479.8
	c-0.2-1.1-1.9-2-3.6-2c-0.8,0-1.1-0.2-1.6-1.9h0.5l-0.5-2.2l-1.7-6.9l-0.5-1.6l-3.2-9.9l-0.2-0.7l-2.8-7l-2-5l-2.7-5.6l-2.9-6
	l-6.7-11.8L987,415l-4.8-7.1l-3.8-4.8l-4.6-5.8l-0.5-0.5l-4.7-5.1l-4-4.3l-5.7-5l-8.5-7.4l-1.7-1.2l-7.7-5.5L935,364l-5-3.1
	l-9.9-6.2l-1.1-0.7l-10-5.8l-8.1-4.6l-18.5-9.5l-21.9-9.8l-2.6,5.5l-4,0.6l-5.8,0.5l-4.6,0.2l-4.6,0.1l-9.8,0l-10.2,0.1l-10.2-0.1
	l-9.8,0l-4.6-0.1l-4.6-0.2l-5.8-0.5l-4-0.6l-3-5.5l-21.9,9.8l-7.2,3.7l-11.3,5.8l-1,0.6l-5.2,3l-12,6.9l-0.7,0.4l-10.1,6.3L702,364
	l-6,4.3l-9.4,6.7l-0.7,0.6l-9.2,8l-4.3,3.8l-1.2,1.3l-8,8.6l-3,3.8l-5.4,6.8l-7.5,11.2l-6.7,11.8l-5.5,11.6l-4.7,12l-3.9,12.2l0,0.1
	l-2.2,8.9h0.3c-0.1,0.4-0.3,0.7-0.4,1c-0.3,0.6-0.7,0.7-1.2,0.7c-1.3,0-3,0.7-3.4,1.4c-0.5,1-0.4,3.8,0.7,15.1
	c2.8,28.2,4.5,41.1,8,63c7.7,47.9,9.2,59.8,10.8,84.5c0.6,9,0.2,70.4-0.5,87.3c-1.6,36-1.9,43.3-3.6,76.2l-0.6,11.8l0.7,1
	c0.5,0.7,1.2,1,2.4,1.3c5.9,1,6.9,1.3,6.9,2.1c0,2.9,1.3,4.4,4,4.4c0.7,0,2.4,0.2,3.8,0.5l1.1,0.3l1.3,0.3l0.1,1.9l0,0.2
	c0.1,1.2,0.3,2.3,0.6,2.6c0.2,0.2,0.8,0.4,1.6,0.5c0.6,0.1,1.2,0.2,2,0.3c3.7,0.4,10.5,2,18.6,4.1c11.7,3,26,7.1,37.6,11
	c4.9,1.6,9.6,3.1,14.2,4.5c0.4,0.1,0.7,0.2,1.1,0.3c28.5,8.6,52.3,12.8,82.4,14.9c6,0.4,7.3,0.4,16.4-0.3
	c16.6-1.3,31.1-3.3,45.4-6.3c13.6-2.8,24.2-5.6,39.5-10.5c0.8-0.3,1.7-0.5,2.6-0.8c1.6-0.5,3.2-1,4.8-1.6c1.9-0.6,4-1.3,6.1-2
	c2.6-0.8,5.2-1.6,8-2.5c2-0.6,4-1.2,6.1-1.8c6.4-1.9,12.9-3.6,18.6-5.1c4.4-1.1,8.4-2.1,11.6-2.8c2.1-0.5,3.9-0.8,5.3-1
	c4.7-0.7,5.2-1.1,5.2-3.8V827l1.8-0.4c1-0.2,3-0.5,4.3-0.8c3.2-0.5,3.7-1,3.7-3.3v-1.8l2-0.4c1.1-0.2,3-0.6,4.3-0.7
	c2.8-0.3,3.9-1.3,3.9-3.5c0-0.8-0.5-11.9-1.2-24.7c-1.2-22.5-1.6-30.9-2.9-62.3c-0.9-21.4-0.9-84.7,0-95.3
	c1.9-21.7,3.2-32.3,8.6-65.6c3.2-19.9,4.9-31.5,6.4-43.8c0-0.3,0.1-0.5,0.1-0.8c0.6-5.3,1.2-10.8,1.9-17.2c0.8-7.3,1.3-13,1.7-17.1
	v0C1017.7,483.4,1017.9,480.5,1017.7,479.8z M515.6,479.9C515.6,479.9,515.6,479.9,515.6,479.9C515.6,479.8,515.5,479.8,515.6,479.9
	c-0.3-1.3-2.2-2.4-4-2.4h-1.4l0,0h4.8l-4.6-0.5l-8.5-18.9l-9.9-20.5l-7.6-15.4l-8.4-15.1l-7.8-11.4l-2-2.9l-0.2-0.2l-7.5-8.7
	l-8.4-8.2l-9.1-7.4l-9.7-6.7l-13.3-7.6l-13.9-6.3l-14.4-5l-17.6-4.4l-2.3,7.5l-1.9,6.4l-2.6,6l-2.4,4.4l-2.8,4.1l-1.1,1.2l-2.2,2.4
	l-4.9,3.9l-5.6,3.1l-2.1,0.9l-4,1.6l-5.8,1.7l-5.9,1.1l-2.1,0.2v-24.3l1.5-0.5l4.2-2.5l2.7-3l1.8-3.4l1.2-3.5l1-4.5l0.3-4.6l-0.3-4
	l0.3-4l-0.3-4.6l-1-4.5l-1.2-3.5l-1.8-3.4l-2.7-3l-4.2-2.5l-4.6-1.3l-4.8-0.6l-4.4,0.2l-4.4-0.2l-4.8,0.6l-4.6,1.3l-4.2,2.5l-2.7,3
	l-1.8,3.4l-1.2,3.5l-1,4.5l-0.3,4.6l0.3,4l-0.3,4l0.3,4.6l1,4.5l1.2,3.5l1.8,3.4l2.7,3l4.2,2.5l1.4,0.4v24.3l-2.1-0.2l-0.5-0.1
	l-5.4-1l-5.8-1.7l-3.7-1.5l-2.4-1l-5.6-3.1l-1.6-1.3l-3.3-2.6l-3.2-3.6l-0.9-1.3l-1.9-2.8l-2.4-4.4l-1-2.3l-1.6-3.7l0-0.1l-1.9-6.4
	l-2.2-7.5l-17.7,4.4l-14.4,5l-13.9,6.3l-13.3,7.6l-9.7,6.7l-9.1,7.4l-8.4,8.2l-7.7,8.9l-9.8,14.3l-8.4,15.1l-0.4,0.8L142,424
	l-6.7,13.5l-9.9,20.5l-8.5,18.8l-0.1,0.1l-1.8,0.2l-2.8,0.3h4.5c-0.2,0.1-0.9,0.3-1.5,0.3c-0.4,0-0.9,0.1-1.5,0.4
	c-0.3,0.1-0.6,0.3-0.8,0.5l-1.2,0.8l0,3c0.1,3.5,3.5,34.4,5.2,47.6c1.3,9.8,2.6,18.2,6.4,41.6c4.1,25.7,5.9,39.1,7.8,59.8
	c0.5,6.1,0.6,11.1,0.6,45.1c0,25.5-0.1,41.7-0.4,49c-0.2,5.9-0.8,18.3-1.1,27.5c-0.8,19.2-1.6,36.6-2.1,44.7
	c-0.5,8.5-0.5,8.8,0.6,10.1l0.9,1.1l4.1-0.1l4.1-0.1l-0.2,2c-0.2,1.9-0.1,2.1,0.8,3c0.8,0.8,1.4,1.1,3.3,1.3
	c1.2,0.1,3.1,0.1,4.1-0.1l1.8-0.3v3.3c0,4.6,0.2,4.9,4.6,5.1c3.8,0.1,3.4,0.2,21.9-5.2c27.9-8.1,52.7-14.4,76.9-19.3
	c16.5-3.4,35.8-6.2,49.6-7.3v116.5h24.7V790.9c9.6,0.7,21.3,2.2,35.4,4.6c0.5,0.1,1,0.2,1.5,0.2c0.7,0.1,1.4,0.2,2.1,0.4
	c2.3,0.4,4.7,0.9,7.2,1.3c3.4,0.7,7,1.4,10.6,2.2c3.4,0.7,6.9,1.5,10.5,2.3c0.5,0.1,1,0.2,1.5,0.3c0.9,0.2,1.8,0.4,2.8,0.6
	c3.6,0.8,7.2,1.7,11,2.6c1,0.3,2.1,0.5,3.1,0.8c0.5,0.1,1.1,0.3,1.6,0.4c4.3,1.1,8.6,2.2,13,3.4c1.7,0.4,3.3,0.9,5,1.3
	c1.7,0.5,3.3,0.9,5,1.4c0.4,0.1,0.9,0.2,1.3,0.4c1.1,0.3,2.2,0.6,3.3,0.9c1.8,0.5,3.6,1,5.5,1.5c3.7,1.1,7.5,2.2,11.3,3.3
	c2.1,0.6,3.8,1.1,5.3,1.6c0.2,0.1,0.5,0.1,0.7,0.2c0.3,0.1,0.7,0.2,1,0.3c0,0,0,0,0,0c0.8,0.2,1.6,0.4,2.2,0.6c0,0,0,0,0,0
	c0.1,0,0.3,0.1,0.4,0.1c0,0,0.1,0,0.1,0c0.4,0.1,0.7,0.2,1,0.3c0.1,0,0.3,0.1,0.4,0.1c0.5,0.1,0.9,0.2,1.4,0.3c0,0,0.1,0,0.1,0
	c0.2,0,0.3,0,0.5,0.1c0.2,0,0.4,0.1,0.6,0.1c0.1,0,0.2,0,0.3,0c0.6,0.1,1.1,0.1,1.7,0.1l3.6,0.1l1.1-1.1c1.1-1.1,1.1-1.1,1-4.3
	c-0.1-2.7,0-3.1,0.4-3c0.2,0.1,0.4,0.1,0.6,0.1c0,0,0.1,0,0.1,0c0.2,0,0.4,0.1,0.7,0.1c0,0,0,0,0,0c0.2,0,0.4,0.1,0.6,0.1
	c0.1,0,0.1,0,0.2,0c0.2,0,0.4,0,0.7,0c2.5,0.1,4.9-0.3,5.8-1.1c0.7-0.7,0.8-1.2,0.8-3.1v-2.2l3.7,0.1c6,0.2,6.7-0.4,6.4-5.9
	c-0.5-7.4-1.7-33.2-3.1-66c-0.7-16.7-0.8-22.8-0.8-59.1c0-43.8,0-41.8,2.1-61.9c1.5-14,2.9-23.5,6.9-48.1
	c3.5-21.8,4.5-28.6,5.8-38.1C512.4,512.9,515.7,482.1,515.6,479.9z"/>
<path id="stripe-4" class="st1" d="M626.2,467l-6.9,4l4.6,5.9l6.5,8.3l57.1-41.8l-32,99.6l3.9,26.2L710.8,418L626.2,467z
	 M1013.6,523.4l-60.4-62.2l-9.4,5.6l50.9,52.5l-118,31l23.8-27l-2.5,12.5l81.6-22.3l-35-33.6l-21.1,30.5l19.1-11.9l3.5-2.5
	l13.7,13.1l-46.9,12.8l7.6-37.5l-74.6,83.8l167.7-44.1l0.7-0.2L1013.6,523.4z M818.8,582l-5.2-30.3l34.3-34.3L793,531.2L815,534
	l-15.8,15l7.3,47.2l193.9-49.7l7.6-12.5L818.8,582z M724.3,513.5l159.9-107.6l-94.8-62.6l-33.6-8l104.8,70.3l-108.1,76.3l9.8-20.1
	l78.8-55.2l-133.9-45.9l-20.6-7.1l-14.5,6.5l24,8.1l93.6,31.6l11.2,3.8l16.4,5.5l-65,47.3L724.3,513.5z M898.9,431.7L719.7,555.6
	l28.8-3l-41.1,24.7l-41.6-6.1l-2.7,9l21.3,4.1l-2.3,14c0,0,8.4,12.3,8.4,12.5c0,0,3.8-24.8,3.8-24.8l15.5,2.9l88.5-51l-38.8,3
	L894.1,450l7.9,16.4l4.7-19.9L898.9,431.7z M212.7,477l7.6,36.6l-47-12.5l13.7-12.8l3.5,2.4l19.1,11.6l-21.2-29.7l-35,32.7
	l81.6,21.8l-2.5-12.2l23.8,26.4l-118-30.2l51-51.2l-9.4-5.4l-61,61.2l168.4,43.1L212.7,477z M125.1,525.3l7.7,12.3l169.5,42.3v-10.7
	L125.1,525.3z M285.2,509.2l17,16.6v-12.4L285.2,509.2z M272.5,400.2l26-17.8l1-0.7c-4.4-0.6-7.9-1.5-11.9-3
	c-1.1-0.4-2.1-0.8-3.1-1.2l-0.9,0.6l-34.8,22.4l53.3,35v-14.8L272.5,400.2z M292,401.2l10.2,7v-10.4L292,401.2z M234.2,425.6
	l-7.8,14.5l4.7,19.4l7.9-16l63.2,41.6v-13.6L234.2,425.6z M515.6,479.9C515.6,479.9,515.6,479.9,515.6,479.9c0-0.1,0-0.1,0-0.1
	c-0.3-1.2-2.2-2.3-3.9-2.3h-1.4l-2.4-5.4c-2.6-5.7-5.6-12.3-8.8-19v0l-60.6-35.1l51.5,151.2l3.9-26.2l-31.9-99.6l53.7,39.4
	C515.5,481.3,515.6,480.3,515.6,479.9z M356.1,531.1l-30.1-7.6V542l9.6,9.6l-5.2,30.3l-4.4-1.1v11l16.6,4.3l7.3-47.2l-15.8-15
	L356.1,531.1z M331.9,409.2l16.4-5.5l11.2-3.8h0l84.4-28.5c-3.4-2.7-6.9-5.3-10.5-7.7l-107.4,36.8v18.8l60.9,42.6l9.8,20.1
	L325.9,432v15l98.9,66.5l-27.9-57.1L331.9,409.2z M486.1,580.1l-2.7-9l-41.6,6.1l-41.1-24.7l28.8,3L325.9,484v13.8l63.7,43l-38.8-3
	l88.5,51l15.5-2.9c0,0,3.8,24.8,3.8,24.8c0-0.2,8.4-12.5,8.4-12.5l-2.3-14L486.1,580.1z"/>
<path id="stripe-3" class="st2" d="M609.9,853.5l-0.7-5.6l-13.7-20.2l-28.8-42.4l-2.5,20.3l26.1,38.8l3.2,4.7l3.1,4.6l0,0l4.8,0.8
	l0,0l8.5-1L609.9,853.5z M554.9,796.4l-7,44.2l12.8-8l3.3-26.9l2.5-20.1C566.6,785.7,555.8,795.7,554.9,796.4z M61.6,785.4
	l-28.8,42.4L19,848l-0.7,5.6l0,0.2l8.5,1l4.8-0.8l3.1-4.6l3.2-4.7l26.1-38.8L61.6,785.4z M73.3,796.4c-0.9-0.7-11.7-10.7-11.7-10.7
	l2.5,20.1l3.3,26.9l12.8,8L73.3,796.4z M674.5,712.1l-7,44.2l12.8-8l5.8-47C686.2,701.4,675.4,711.4,674.5,712.1z M640.9,821.6
	l-4.4,16.1l16.6,21.5l9.7-1.6L640.9,821.6z M666.3,812.2l2.4,21.1l-17.9-25.2l-7.9,3l10.2,15.5l1.4,2.2l2.2,3.4l20.6,31.5v-34
	l51.8,22.4l0.8,0.3l0.3,0l25.2-2.6L666.3,812.2z M657.5,785.4l-4.4,11l135.1,52.7l39.6,0.8L657.5,785.4z M742.3,760.6l-22.8-2.2
	l133.3,90.7h25.4L742.3,760.6z M986,694.3l-31.9-47.1l8.3,61.9l-132.9,85.4L766.6,751l22.2-3.4l42.1-78.8l-86.9,68.7l27.5-8l19.9-16
	l-12.8,25.4l-42.1,7.5l91.4,61.6l143.5-94.2l-1.7-22.9l11.4,21.1L986,694.3z M957.9,627.5l25,44.9l1.9-26.8L957.9,627.5z
	 M982.9,623.6l-39.6-30.4l-7,48.9l-65.8-10.7l-33.9,6.6l111.1,18.1l5-43.5l34.7,28.6L982.9,623.6z M1012.4,473.7l-9.6-2.4l13.1,19.8
	l1.3-2.1v0l7.3-12.2L1012.4,473.7z M1007,455.4l-50.6-7.6l47.1,58.5l10-4.9L981,460.9l29.2,4.4l13.2,2l0.6-2.4v-6.9L1007,455.4z
	 M1002.7,408.3l-24.3-5.1l-15.8-3.3l9.7,12.7L987,415l15.3,2.6l8.8-1.1l-6.9,21.4l-4.9-0.9l-32.1-5.9l-15.7,8l52.5,8.6l8.9,1.4
	l11.1-34.7v-8.9L1002.7,408.3z M800.8,403.7l-7.9-6.3l-3.3,2.5L766.1,418l-11.1-18.6l-69-23.7l-31.8-10.9l4.5,21.6l-10.1-8.5
	l-8.6,6.3l20.3,17l16.4,13.8l-5.4-26.2l-1.5-7.5l7.1,2.5l68.4,23.9l18,28l38-31.6L800.8,403.7z M170.7,696.1l8.3-60.3l-31.9,45.9
	l5,17.3l11.4-20.5l-1.7,22.3l139.8,89.5h0c0.2,0,0.4,0,0.7-0.1v-11.7L170.7,696.1z M302.1,656.8l0.1,0.2L302.1,656.8L302.1,656.8z
	 M148.3,634.2l1.9,26.1l24.9-43.8L148.3,634.2z M262.7,620.4l-65.8,10.5l-7-47.7l-39.6,29.6l-4.5,17.2l34.7-27.9l5,42.5l111.1-17.7
	L262.7,620.4z M122.9,466c-0.1,0.3-0.2,0.5-0.4,0.8c-2.3,5.1-4.5,9.5-4.7,9.6c-0.2,0.1-0.6,0.2-1,0.3c-0.2,0-0.4,0-0.6,0
	c-0.3,0-0.8,0.1-1.3,0.3c-0.2,0.1-0.4,0.2-0.6,0.3c-0.1,0.1-0.3,0.2-0.4,0.3l-0.4,0.2l0.1,0.2l3.4,5.6l13.1-19.4L122.9,466z
	 M131.5,447.9c-1.6,3.4-3.2,6.8-4.7,9.9l25.4-3.7l-32.6,39.4l10,4.8l47.1-57.1L131.5,447.9z M165.8,425l-25.3,4.6
	c-1.6,3.3-3.4,6.9-5.2,10.6l46.3-7.4L165.8,425z M159.4,396.8c-2.5,3.6-5,7.4-7.5,11.6l8.8-1.5l9.7-12.4L159.4,396.8z M474.6,712.1
	c-0.9-0.7-11.7-10.7-11.7-10.7l5.8,47l12.8,8L474.6,712.1z M463,820.5c0.2,0.1,0.5,0.1,0.7,0.2c0.3,0.1,0.7,0.2,1,0.3c0,0,0,0,0,0
	c0.8,0.2,1.6,0.4,2.2,0.6c0,0,0,0,0,0c0.1,0,0.3,0.1,0.4,0.1c0,0,0.1,0,0.1,0c0.4,0.1,0.7,0.2,1,0.3c0.1,0,0.3,0.1,0.4,0.1
	c0.5,0.1,0.9,0.2,1.4,0.3c0,0,0.1,0,0.1,0c0.2,0,0.3,0.1,0.5,0.1c0.2,0,0.4,0.1,0.6,0.1c0.1,0,0.2,0,0.3,0c0.6,0.1,1.1,0.1,1.7,0.1
	l3.6,0.1l1.1-1.1c1.1-1.1,1.1-1.1,1-4.3c-0.1-2.7,0-3.1,0.4-3c0.2,0.1,0.4,0.1,0.6,0.1c0,0,0.1,0,0.1,0c0.2,0,0.4,0.1,0.7,0.1
	c0,0,0,0,0,0c0.2,0,0.4,0.1,0.6,0.1c0.1,0,0.1,0,0.2,0c0.2,0,0.4,0,0.7,0l0.3-2.7L463,820.5z M491.6,785.4l-65.3,24.7
	c1.7,0.4,3.3,0.9,5,1.3c1.7,0.5,3.3,0.9,5,1.4c0.4,0.1,0.9,0.2,1.3,0.4c1.1,0.3,2.2,0.6,3.3,0.9c1.8,0.5,3.6,1,5.5,1.5l49.5-19.3
	L491.6,785.4z M406.7,760.6l-52,33.8c2.1,0.3,4.3,0.7,6.6,1.1c0.5,0.1,1,0.2,1.5,0.2c0.7,0.1,1.4,0.2,2.1,0.4
	c2.3,0.4,4.7,0.9,7.2,1.3l57.5-39.1L406.7,760.6z M370.5,738.8l-12.9-25.4l19.9,16l27.5,8l-79-62.5v8.5l34.3,64.1l22.2,3.4l-56.5,39
	v0.8c5.3,0.4,11.3,1,17.9,1.9l68.8-46.4L370.5,738.8z M474.4,406l-1.8,8.9l4.8-4C476.3,409.2,475.4,407.5,474.4,406z M453.5,379.7
	c-0.2-0.2-0.4-0.4-0.6-0.6l-58.7,20.2L383,417.9l-23.5-18.1h0l-3.3-2.5l-7.9,6.3l-0.4,0.3l38,31.6l18-28l57.1-20
	C458.7,384.9,456.2,382.3,453.5,379.7z"/>
<path id="stripe-2" class="st3" d="M672.6,221.3l-7,44.2l12.8-8l5.8-47C684.3,210.6,673.5,220.6,672.6,221.3z M655.6,294.7l-0.6,1.4
	h4.3L655.6,294.7z M740.4,269.9l-22.8-2.3l41.8,28.4h21.2L740.4,269.9z M984.1,203.6l-31.9-47.1l8.3,61.9l-120.9,77.7h18.8l111-72.9
	l-1.7-22.9l11.4,21.1L984.1,203.6z M786.9,256.8L829,178l-86.9,68.8l27.5-8l19.9-16l-12.8,25.4l-42.1,7.5l59.8,40.4h22.1l-51.7-35.8
	L786.9,256.8z M973.1,148.3h-10.7l18.6,33.4l1.9-26.8L973.1,148.3z M984.8,148.3h-2.1l2.7,2.2L984.8,148.3z M942.3,148.3l-8,3.2
	l-19.5-3.2h-74.4l105.3,17.1l2-17.1l0.3-2.2L942.3,148.3z M776.4,148.3h-9.9l1.5,11.1l-46.8,35.1l1.7-22l38.2-14.6l-1.6-9.6H747
	l0.6,2.4L712,163.1l-3.1,56.2l74.5-56.2L776.4,148.3z M719.7,148.3l-7.6,7.4l12.9-7.4H719.7z M977.2,586.8l20.3,12.3v-22.9
	L977.2,586.8z M1001,567.1l-1.5-10.3l-65.9,21.3l60,38.8l0.4-11.1L960,581.4L1001,567.1z M775.7,597.6l-11.4,11.3l5.7,41.2
	l-46.8,35.1l1.7-22l38.2-14.6l-7.3-42.9L714,646.5l32.2-18.6l3.2,13.6L714,653.9l-3.2,56.1l74.5-56.1L775.7,597.6z M1003.7,387.5
	l-24.4-9.5l5.3-14.2l3.3-5.6l-13-8.1l-9.4,33.2l47,19.4L1003.7,387.5z M747.4,337.7l-12.2-8.5l-9.9,8l9.8,6.9l11.1,7.8l-16.3-4.9
	l-20.8-6.2l-5.7,8.8l13.8,4.7l105.5,35.7L747.4,337.7z M886.8,478.2l4.2,9.4l47.2-12.2l-24.7-81L721.3,534.2l-14.5-2l34.1-79.6
	l14.8-10.6l-2.9-7.6l-16.2-7.7l4.3,12.6l-10.1,8.1l-0.5,1.1l-39.6,92.4l18.1,2.4L691.3,556l-8.2-1.5l54.7-142.9l-57.5-20.2l4.2,21.1
	l-30.6,19.3l8-18.8l-13.4,4.9l-16.1,43.6l64.2-44.7l-0.5-8.8l24.8,10l-53.1,144.8l27.9,4.2l210.5-153.3l16,54.7l-24.5,6.2l-6.5-11.6
	l-87,56.2l63-11.5l-41.6,45.7l9.6,5.4l62.3-66.2l-44.1,7.7L886.8,478.2z M135.6,566.6v22.3l20.3-12L135.6,566.6z M133.7,547.6
	l-1.5,10l40.9,14l-33.9,23.7l0.4,10.8l60.1-37.8L133.7,547.6z M302.2,538.8l-36.4-39l36.4,6.5v-12l-60.4-38.1l-6.5,11.3l-24.4-6
	l16-53.3l75.3,53.5v-13.7l-82.6-58.6l-24.8,79l47.2,11.9l4.2-9.2l33.2,21.7l-44-7.5l62.3,64.5l4.4-2.4l5.2-2.8L302.2,538.8z
	 M435.1,653.8l-35.5-12.4l3.2-13.6l32.3,18.6l-41.8-40.8l-7.3,42.9l38.2,14.6l1.7,22l-46.8-35.1l5.7-41.2l-11.4-11.3l-9.5,56.3
	l74.4,56.1L435.1,653.8z M417.1,354.1c-2.9-1.5-5.6-2.8-8.3-4l-5.9,1.8l3.8-2.7c-4.6-2-9.1-3.7-14.1-5.2l-33.1,23l0,0l-1,0.7
	L343.7,378l-1.6,1.1h0l-15.8,11l96.8-32.8C421.1,356.2,419.1,355.1,417.1,354.1z M453,408l-0.5,8.8l43.4,30.3
	c-3.7-7.7-7.4-15.2-10.6-21.4l-20.7-13.1l3.2-16.3l0.1-0.6l0.8-4.2l-3,1.1l-0.6,0.2l-53.9,18.9L466,554.5l-8.2,1.5l-17.4-12.7
	l18.1-2.4l-39.7-92.4l-0.4-1.1l-10.1-8.1l4.3-12.6l-16.2,7.7l-2.9,7.6l14.8,10.6l34.1,79.6l-14.5,2h0l-101.8-74.1v14.1L453.4,567
	l27.9-4.2l-53.1-144.8L453,408z M325.9,507v8.8l18.9,3.5L325.9,507z M217.5,84v39.7h10.7V84H217.5z"/>
<path id="stripe-1" class="st4" d="M998.6,290.5l-1.1,0.2l-20.3,3l3.7-12l-10.7-34.8l2.7-2.1l11.7,18.3l-0.7-23.8l-9-11l-14.4,14
	l11.7,40l-2.9,13.8h22.9l5.4-4.6L998.6,290.5L998.6,290.5L998.6,290.5z M955.9,296.1h7.1l1.3-5.9L955.9,296.1z M958.1,250.7
	l-7.4,24.7l-31.1,20.6h18.2l23-15.4L958.1,250.7z M875.7,296.1h23.5l45.7-28.4l8.9-20.8L875.7,296.1z M924.6,187.8l-40.4-1.5
	l17.5,11.2l16.4,1.9L846,247.7l13.8-33l24.5-0.4L869,203.6l-19.1,1L817.3,277l110.5-68.1L924.6,187.8z M943.3,173.2l-66.3-5l1.5-7
	c0,0-28.7-9.2-29.8-9.6l15.8,14.9l-2.3,11.4l71,5.3l5.4,28.2L821,287.2l23.6-1.4l106-71L943.3,173.2z M870.4,186.9l-21-1.1l8-18.1
	l-28.7-17.1l0-2.2H813l1.5,7.7l27.1,15.4l-41.3,84.6l3.5,21.5l40.4-81.3l46,1.9L870.4,186.9z M693.1,148.3l-0.7,0.6l0-0.6h-10.5
	l1.8,24.2l11.9-24.2H693.1z M789.5,171.9l-94.8,68l10.8-76.8L677,192.3l-1.4,17.1l15.8-17.6l-10.2,75.9L789.5,171.9z M821.8,170.6
	L802.3,155l-12.5,4.4l13.2,10.8L666.8,291.8l11.8,4.2h27.6l-19.8-8.2L821.8,170.6z M712.4,273l1,15.4l10,7.6h22.4L712.4,273z
	 M609.1,847.1l0-0.2l0.1,0l0,0l-0.8-6.5l0-0.2h0.1l-0.8-6.5l0-0.2h0.1l-0.5-4.3v0l-0.1-0.3l-2.9-13.6l1.6,1.1l0,0l-1-8.6l-0.9-6.9
	l0,0l-17.2-11.7l8.8,38.7l2.9,12.8l-8.1,3.9l-12.3,5.9l-0.3,0.1l-1.5,0.7l3.4-0.4l0.7-0.1l13.2-1.6l5.3-0.6l0.9,5.6l1.7,0.3l8.4-1
	l0,0L609.1,847.1z M601.6,775.6l-0.7-0.4l-0.5-0.3l-7.1-23.1h0l-0.3-1l-0.1,0.9l-2.7,28.3l12.1,7.9l0.2,0.1L601.6,775.6z
	 M529.9,753.6l-1,0.6l1.7,13.8l0.4-0.3l0.8-0.5l9-20.3L529.9,753.6z M545.1,750.7l-7.4,24.1l-5.6,3.6l-0.1,0.1l0.7,5.5l0.1,0.6
	l0.5,4.9l14.6-9.6L545.1,750.7z M551.3,789.1l-17,11.6l0.6,6.3l0.2,1.9l0.5,4.7l0.2,2l0.5,4.7l3,25.6l7.5-0.9l3,0.5l-10.3-5
	L551.3,789.1z M50.6,850.7l-0.3-0.2L38,844.6l-8.1-3.9l2.9-12.8l8.8-38.7l-16.8,11.4l-0.4,0.3l-0.9,6.9l-1,8.6l0.5-0.3l1.2-0.8
	l-2.6,12.2l-0.4,1.7v0l-0.5,4.3h0.1l-0.8,6.6h0.1l0,0.2l-0.8,6.4l0,0l0.1,0l0,0.2l-0.8,6.5l0,0l8.4,1l1.7-0.3l0.9-5.6l5.3,0.6
	l13.2,1.6l0.7,0.1l3.4,0.4L50.6,850.7z M35.4,751.6l-0.1-0.9l-0.3,1h0l-7.1,23.1l-0.3,0.2l-0.9,0.6L25.7,788l0.5-0.3l11.8-7.7
	L35.4,751.6z M99,754l-11.6-7.1l9,20.3l1.2,0.7l0.2-1.7l1.5-12L99,754z M90.6,774.8l-7.4-24.1l-2.7,29.2l14.6,9.6l0.5-4.9l0.7-6.1
	L90.6,774.8z M76.9,789.1l11.7,51.5l-10.3,5l3-0.5l7.5,0.9l3-25.6l0.5-4.7l0.2-2L93,809l0.2-1.9l0.6-6.3L76.9,789.1z M685.9,840.6
	v17l24.5-6.1L685.9,840.6z M916.6,849.4l-2.2-6.8l-10.9,8.8l10.5-1.2l2.7-0.3L916.6,849.4z M935.5,843.4l-3.9-13.7l-4,16.1l-1.4,5.6
	h11.7L935.5,843.4z M994.8,832.2l-12.4-4.8l-9.8-3.8l4.3-22l23.8-20.4l-21.5,3.2l3.7-12.1l-10.7-34.8l2.7-2.1l11.7,18.3l-0.8-23.8
	l-8.9-11l-14.4,14l11.7,40l-11.7,55.9l9.4,4.9l31.5,16.2L994.8,832.2z M960.2,836.5l-5.6-2.8l11.7-52.9L891,833.4l-32-20.8l10.5-6.4
	l20.3,14l72.9-48.9l-2.7-29.9l-7.4,24.7l-63.2,41.8l-9.7-7.9l67.1-41.7l8.9-20.9l-118.1,74.6l53,34.8l58.1-39.1l-7.2,33.9l-1.8,8.6
	l12.9,1.2l1.5-9.4l22.6,2.7L960.2,836.5z M926.5,678.6l-40.4-1.5l17.6,11.1l16.3,2l-72.1,48.3l13.8-33l24.5-0.5l-15.4-10.6l-19.1,1
	l-32.6,72.4l110.5-68.1L926.5,678.6z M945.2,663.9l-66.3-5l1.5-7c0,0-28.7-9.2-29.8-9.6l15.8,14.9l-2.3,11.4l71,5.3l5.4,28.2
	L823,777.9l23.6-1.4l106-71L945.2,663.9z M933.5,619.9l-125-14.2l7.8,41.1l27.1,15.4l-41.3,84.6l3.5,21.5L846,687l46,1.9l-19.7-11.3
	l-21-1l8-18.2l-28.6-17.1l-0.4-22.4l101.2,11.4L933.5,619.9z M932.1,587.2l-8.9,15.4l-50.3-5.6l36.7-10.2l17.3-15l-115.4,29.5
	l122.1,13.4L932.1,587.2z M667.5,590.4l9.9,58.2v-48.6L667.5,590.4z M713.4,606.5L699.1,622l19.6-5.9l-24.2,23.6l-1.5-18.5
	l-11.4-11.9l4.1,54.1l90.1-79.3L713.4,606.5z M791.5,662.6l-94.8,68.1l10.8-76.8L678.9,683l-1.4,17.2l15.8-17.6L683,758.4
	L791.5,662.6z M715.4,779.2l30.6,23.2l-57.7-23.8l135.5-117.3l-19.5-15.5l-12.5-94.9l-89.5,50.9l77.6-33.6l11.9,82l13.3,10.8
	L668.8,782.6l152.8,55.1l-107.2-73.9L715.4,779.2z M1020.8,369.9l-24.7-8.8l-5,15.3l31.7,15.2L1020.8,369.9z M928.6,337.2l-19.7,11
	l-19.3,10.8l-30.8-21.7l-16.4,3l47,32.5l30.7-18.1l19.9-11.7L928.6,337.2z M635.8,490.4l6.1,10.1l14.3-13.1l-6.2,24.2l6.3,14.8
	l17.9-64.9L635.8,490.4z M991.8,430l-12.5-12.6l-29.5-3.9l5.5-19l-0.1,0.4l18.1,1.8l7.7,0.8l-12.5-5.9l-10.9-5.1l1.2-4.2l13.8-47.2
	L930,360.9L890,384.9l-66.2-43l-15.1,1.1l81.7,55.7l50.6-30.5l11-6.6l-3.3,12.1l-9.1,33.8l-6.9-25.8l-7.2,21.8l13.9,46.1l9.3-31.7
	l-1.2,5.5L991.8,430z M170.7,719.4l-14.4-13.7l-9,10.7l-0.7,23.2l11.7-17.8l2.7,2l-10.7,34l3.7,11.7l-21.4-3.1l23.8,19.9l4.2,21.4
	l-16.8,6.3c1.2,0.1,2.6,0,3.5-0.2l1.8-0.3v3.3c0,4.2,0.2,4.9,3.5,5l18.1-9.1L159,758.4L170.7,719.4z M177.3,723.8l8.9,20.3
	l67.1,40.7l-9.7,7.7l-63.2-40.8l-7.4-24.1l-2.7,29.2l67.1,43.8c5.1-1.1,10.1-2.2,15.2-3.2c0.5-0.1,1-0.2,1.5-0.3l9.4-6.3l6,3.5
	c6.2-1,12.4-1.9,18.2-2.7L177.3,723.8z M222.7,804.2l-55.9-38l11.3,50c3.6-1,7.2-2.1,10.7-3.1l-4.5-20.7l23.7,15.5
	C213,806.6,217.9,805.3,222.7,804.2z M281.2,682.7l-19.1-1l-15.4,10.4l24.5,0.4l13.8,32.1l-72.1-47l16.4-1.9l17.5-10.9l-40.4,1.5
	l-3.3,20.5l99,59.5v-18.1L281.2,682.7z M192.5,689.3l5.5-27.5l71-5.2l-2.4-11.1l15.8-14.5c-1.2,0.4-29.8,9.4-29.8,9.4l1.5,6.8
	l-66.3,4.9l-7.4,40.5l106,69.3l15.7,0.9v-4.5L192.5,689.3z M302.2,630.2l-28.4,16.5l8,17.7l-21,1l-19.7,11l46-1.9l15.1,29.7v-28.8
	l-12.6-25.1l12.6-7V630.2z M199.6,609.2l2.2,10.1l100.5-11.1v-10.4L199.6,609.2z M206.2,562.2l17.4,14.6l36.6,10l-50.3,5.5l-9-15
	l-1.3,26.8l102.6-11.1v-6.9L206.2,562.2z M261.1,352.5l-1.5-0.6l-9.7-3.9l-6.4,6.7l-15.8-8.6c-4.4,1.7-8.6,3.5-12.8,5.5l28.9,16.6
	l17.5-12.5l0.9-0.7C261.8,354.1,261.4,353.3,261.1,352.5z M207.8,398.2l-7.3-21.2l-6.9,25.2l-8.8-31.9c-2.8,2.2-5.6,4.6-8.2,7
	c-0.6,0.6-1.3,1.2-1.9,1.8l0.8,2.7l-6.2,2.8c-1.9,2.1-3.8,4.4-5.7,6.7l14.3-1.4l5.4,18.1l-29.5,3.8l-8.4,8.2l-2.9,2.9l-1.2,1.2
	l0.7-0.1l1.5-0.2l42.3-6.1l-1.2-5.5l9.3,31L207.8,398.2z M267.5,364.6l-1,0.6L243.1,380L204,357.2c-3.9,2.2-7.6,4.5-11.2,7
	l49.9,29.3l31.3-20.8l0.9-0.6C272.1,370,269.7,367.5,267.5,364.6z M325.9,759.2v6.2l3.8,2.4L325.9,759.2z M325.9,777.7L325.9,777.7
	l0.1,0.1L325.9,777.7z M325.9,703.7V733l17.5,35.3l3.5-21.5L325.9,703.7z M325.9,607.3v43.3l6.8-3.9l7.8-41.1L325.9,607.3z
	 M325.9,598.2v4.3l11.6-1.3L325.9,598.2z M471.7,600v48.6l9.9-58.2L471.7,600z M456.1,621.1l-1.4,18.5L430.4,616L450,622l-14.3-15.6
	L373.4,584l90.1,79.3l4.1-54.1L456.1,621.1z M471.7,700.1l-1.5-17.2l-28.6-29.1l10.8,76.8l-94.8-68.1l108.5,95.8l-10.2-75.9
	L471.7,700.1z M344,660.9l13.2-10.8l11.9-82l77.6,33.6l-89.5-50.9l-12.4,94.9l-18.9,15.1l-0.6,0.5l0.6,0.5l134.9,116.8l-57.7,23.8
	l30.6-23.2l0.9-15.4l-52,35.8c3.4,0.7,6.9,1.5,10.5,2.3c0.5,0.1,1,0.2,1.5,0.3c0.9,0.2,1.8,0.4,2.8,0.6c3.6,0.8,7.2,1.7,11,2.6
	c1,0.3,2.1,0.5,3.1,0.8c0.5,0.1,1.1,0.3,1.6,0.4l67.1-24.2L344,660.9z M513.2,490.4l-38.5-28.8l17.9,64.9l6.4-14.8l-6.2-24.2
	l14.3,13.1L513.2,490.4z M602.2,110.5l-14.4-0.4l-2.7-0.3v286.6l4.1-0.5l13-0.3l18.5,0.5V110L602.2,110.5z M39.4,110.1L25,110.5
	l-18.5-0.4V396l18.5-0.5l13,0.3l5,0.5v-0.2l0-286.4L39.4,110.1z M228.2,84.1v39.7h10.7V84.1H228.2z M206.8,84.1v39.7h10.7V84.1
	H206.8z"/>
</svg>
