<?xml version="1.0" encoding="utf-8"?>
<!-- Generator: Adobe Illustrator 26.0.3, SVG Export Plug-In . SVG Version: 6.00 Build 0)  -->
<svg version="1.1" id="Layer_1" xmlns="http://www.w3.org/2000/svg" xmlns:xlink="http://www.w3.org/1999/xlink" x="0px" y="0px"
	 viewBox="0 0 1200 1200" style="enable-background:new 0 0 1200 1200;" xml:space="preserve">
<style type="text/css">
	.st0{fill:#FFFFFF;}
	.st1{fill:#0057B7;}
	.st2{fill:#AA00A8;}
	.st3{fill:#8DA018;}
</style>
<g>
	<path id="base" class="st0" d="M603.8,562.4c0.4,1.4-3.8,38.6-6.3,58.1c-1.4,11.1-2.6,19.1-6.8,44.6c-4.7,28.7-6.2,39.8-8.1,56.4
		c-2.6,23.4-2.5,21.2-2.5,72.5c0,42.5,0,49.7,0.9,69.3c1.6,38.6,3,68.8,3.6,77.5c0.5,6.4-0.5,7.1-7.5,6.9l-4.5-0.1v2.6
		c0,2.2-0.1,2.8-0.9,3.6c-1.4,1.4-6.6,1.8-10.3,0.8c-0.6-0.1-0.6,0.5-0.5,3.6c0.1,3.8,0.1,3.8-1.2,5l-1.3,1.3l-4.2-0.1
		c-3.9-0.2-5.3-0.6-18.4-4.5c-42-12.5-83.9-22.7-113-27.5c-20.4-3.4-36.2-5.3-48.9-5.9c-2.6-0.1-4.3-0.2-5.7-0.2
		c0.4-0.1,0.6-0.2,0.9-0.5l1.1-0.8V451.6l-1.1-0.9c-0.6-0.5-1.3-0.7-3-0.8c0.7-0.1,1.9-0.2,4-0.2c0.8,0,1.6,0,2.5,0v-0.5h4.6
		l6.9-0.7l6.9-1.3l6.8-2.1l7.1-2.9l6.6-3.8l5.7-4.6l3.8-4.2l3.3-4.8l2.9-5.2l3-7l2.2-7.6l2.8-8.8l20.7,5.3l16.9,5.9l16.3,7.4
		l15.6,8.9l11.4,8l10.8,8.7l9.8,9.6l9,10.5l11.5,16.8l9.8,17.8l9,18l11.6,24l10.1,22.1l5.4,0.6h-3
		C601.9,560.2,603.5,561.2,603.8,562.4z M364.5,925.2l-0.9-1.1V451.8l1.2-1.1c0.5-0.5,0.8-0.7,1.5-0.8c-1.1-0.1-2.5-0.2-4.6-0.2
		v-0.5h-4.6l-6.9-0.7l-6.9-1.3l-6.8-2.1l-7.1-2.9l-6.6-3.8l-5.7-4.6l-3.8-4.2l-3.4-4.8l-2.8-5.3l-3-7l-2.2-7.6l-2.9-8.7l-20.7,5.2
		l-16.9,5.9l-16.3,7.5l-15.6,8.9l-11.4,7.9l-10.7,8.7l-10,9.6l-9,10.4L176.8,477l-9.8,17.7l-8.9,18l-11.7,24l-10,22.3l-5.4,0.6h5.4
		c0,0.1-0.1,0.1-0.1,0.1c-0.2,0.1-1.1,0.4-1.9,0.4s-1.9,0.5-2.7,1.1l-1.4,0.9l0.1,3.5c0.1,4.2,4.1,40.3,6.1,55.8
		c1.5,11.5,3,21.3,7.5,48.8c4.9,30.1,6.9,45.8,9.3,70.1c0.7,7.1,0.7,13,0.7,52.9c0,29.9-0.1,49-0.5,57.4c-0.2,6.9-0.9,21.6-1.3,32.2
		c-0.9,22.5-1.9,42.9-2.5,52.5c-0.6,10-0.6,10.3,0.7,11.8l1.1,1.3l4.8-0.1l4.9-0.1l-0.2,2.3c-0.2,2.2-0.1,2.5,1.1,3.6
		c1.1,0.9,1.6,1.3,4,1.5c1.4,0.1,3.6,0.1,4.8-0.1l2.2-0.5v3.9c0,5.5,0.2,5.7,5.4,6c4.5,0.1,4,0.2,25.7-6.1
		c32.7-9.6,61.8-16.9,90.1-22.7c22.5-4.6,49.5-8.3,65.6-8.9c5.5-0.2,7.4-0.4,8.4-0.7C365.3,926.1,365.2,925.9,364.5,925.2z
		 M1192.9,562.3c-0.2-1.3-2.2-2.3-4.2-2.3c-0.9,0-1.3-0.2-1.9-2h0.2l-2.6-10.5l-4.6-14.3l-5.6-14.1l-6.6-13.7l-7.9-13.8l-8.9-13.1
		l-9.8-12.4l-10.8-11.6l-16.6-14.5l-18-13l-18.8-11.7l-21.2-12.2l-21.8-11.2l-25.7-11.5l-3.2,6.4l-4.8,0.7l-6.8,0.7l-5.4,0.2
		l-5.4,0.1l-11.5,0.1l-12,0.1l-12-0.1l-11.6-0.1l-5.4-0.1l-5.4-0.2l-6.8-0.7l-4.8-0.7l-3.4-6.4l-25.7,11.5l-21.8,11.2l-21.2,12.2
		l-18.8,11.7l-18,13l-16.6,14.5L777,465.9l-9.8,12.4l-8.9,13.1l-7.9,13.8l-6.6,13.7l-5.6,14.1l-4.6,14.3l-2.6,10.5h0.2
		c-0.6,1.8-0.9,2-1.8,2c-1.5,0-3.6,0.9-4,1.6c-0.7,1.3-0.5,4.5,0.9,17.7c3.3,33,5.3,48.2,9.4,73.8c9,56.1,10.8,70.1,12.7,99
		c0.7,10.7,0.2,82.5-0.6,102.4c-1.9,42.3-2.2,50.9-4.2,89.3l-0.7,13.8l0.9,1.2c0.7,0.9,1.4,1.3,2.9,1.5c6.9,1.2,8.1,1.5,8.1,2.5
		c0,3.4,1.6,5.2,4.7,5.2c0.9,0,2.8,0.2,4.5,0.7l2.8,0.7l0.1,2.5c0.1,1.4,0.5,2.8,0.8,3.2c0.4,0.4,2.1,0.7,4.2,1.1
		c10.4,1.3,42.9,10.1,65.9,17.7c42,13.9,73.1,20.3,114.6,23.2c7,0.5,8.6,0.5,19.2-0.5c19.5-1.5,36.4-3.9,53.2-7.4
		c18.4-3.8,32.1-7.5,55-15.1c21.1-7,54.3-16.1,65.4-17.7c5.6-0.9,6.1-1.3,6.1-4.5v-2.2l2.1-0.5c1.3-0.2,3.5-0.7,5.2-0.9
		c3.8-0.6,4.5-1.2,4.5-3.9v-2.2l2.5-0.5c1.3-0.2,3.6-0.7,5-0.9c3.3-0.5,4.6-1.6,4.6-4.2c0-0.9-0.7-13.9-1.4-29.1
		c-1.4-26.4-1.9-36.2-3.5-73.1c-1.1-25.1-1.1-99.3,0-111.7c2.2-25.5,3.8-37.9,10.2-77c5.4-33.8,7.3-47.1,9.8-72.4
		C1192.4,573,1193.2,563.7,1192.9,562.3z M638.9,472.1l12.8-2.9l11.6-2.2l11.6-1.8l15.1-1.3l15.2-0.4l21.7,0.6V129l-21.7,0.5
		l-16.9-0.5l-16.8-1.6l-14.8-2.5l-14.8-3.3l-11.4-2.8l-11.1-3.4l-9.1-3.3l-12.7-5.3l-3.5,8.6l-1.6-0.7l-6.3,15.7l-2.6,6.1l-3,6.8
		l-2.2,4.9l-9.1,12.5l-14.8,17.1l-16.2,15.9l-17.5,14.5l-13.6,9.7l-14.2,8.9l-14.8,7.9l-21.2,9.4l-21.8,8.2l-32,10.9L367.3,274
		l2.7,10.7l4.1,2.1l2.2,1.4l2.1,1.4l1.6,1.5l1.2,1.6l1.1,1.9l0.9,2.7l-0.1,5.7l-0.1,3.9l-0.1,7.9l-0.2,6.3l-0.7,9.1l18.4,2.5
		l14.5,2.8l14.4,3.5l13.1,4l12.8,4.6l12.4,5.4l18,9.5l17.2,11l16.3,12.1l15.7,13.4l14.9,14.2l13.9,15.1l12.4,15.5l0.2,0.4l4,7.4
		l4.6,9.3l8.1,17.5l1.3-0.5l3.8,8.3l15.8-6.2l12.4-4.1L638.9,472.1z M43.9,463.9l15.1,1.3l11.6,1.8l11.6,2.2l12.8,2.9l12.8,3.6
		l12.4,4.2l15.8,6.2l3.8-8.4l1.3,0.5l8.1-17.5l4.6-9.3l4-7.4l0.2-0.4l12.4-15.4l13.9-15.1l14.9-14.2l15.7-13.4l16.5-12.2l17.2-10.9
		l18-9.5l12.4-5.4l12.8-4.6l13.1-4l14.4-3.5l14.5-2.8l18.5-2.6l-0.8-9.1l-0.2-6.3V307l-0.1-3.8l-0.1-5.7l1.1-2.7l0.9-1.9l1.2-1.5
		l1.6-1.6l2.1-1.4l2.2-1.4l4-2.1l2.8-10.7l-36.1-10.8l-32-10.9l-21.8-8.2l-21.3-9.4l-14.8-7.9l-14.2-8.9l-13.7-9.7l-17.3-14.5
		L179.8,178L165,160.8l-9.3-12.5l-2.2-4.9l-3.2-6.8l-2.6-6.1l-6.3-15.7l-1.6,0.7l-3.4-8.6l-12.8,5.2l-9.3,3.3l-11.1,3.4l-11.4,2.8
		l-14.6,3.3l-14.9,2.5l-16.8,1.6l-16.9,0.5L7,129v335.2l21.7-0.6L43.9,463.9z M555.5,135.4l-7.7-31.1l7.7-31.1v-9.8H178.6v9.8
		l7.7,31.1l-7.7,31.1v9.8h376.9V135.4z M396.2,379.7l-1.2-5.4l-1.4-4.2l-2.1-4l-3.2-3.5l-4.9-2.9L378,358l-5.7-0.7l-5.2,0.2
		l-5.2-0.2l-5.7,0.7l-5.4,1.6l-4.9,2.9l-3.2,3.5l-2.1,4l-1.4,4.2l-1.2,5.4l-0.5,5.4l0.4,4.8l-0.4,4.8l0.5,5.4l1.2,5.4l1.4,4.2l2.1,4
		l3.2,3.5l4.9,2.9l5.4,1.6l5.7,0.7l5.2-0.2l5.2,0.2l5.7-0.7l5.4-1.6l4.9-2.9l3.2-3.5l2.1-4l1.4-4.2l1.2-5.4l0.5-5.4l-0.4-4.8
		l0.4-4.8L396.2,379.7z M1169.2,347.1l-0.9-18.6l-0.4-7.7l-0.4-7l-0.4-8l-1.1-26.7l-0.7-19.2l-0.5-14.1l-0.4-18.9l-0.1-9l-0.1-7.9
		v-36.1H744.1V210v7.9l-0.1,9l-0.4,18.9l-0.4,14.1l-0.7,19.2l-1.1,26.7l-0.4,8l-0.4,7l-0.4,7.7l-0.9,18.6h362.9H1169.2z M713.7,993
		l-0.9-7.7h0.1l-0.9-7.9h0.1l-1.1-7.9h0.1l-0.9-7.7h0.1l-1.8-14.5l-1.3-10.1l-1.1-8.6l-1.4-11.2l-0.5-4.5l-1.1-11.5l-1.3-15.7
		l-2.1-32.3l-1.9-37.4l-0.6-26.7l-0.2-21.6v-21.6l0.2-21.7l0.4-21.6l0.7-48.9l0.4-6.4l-0.2-2.8l0.1-22.3l-0.1-20l-0.1-16.3
		l-0.1-25.7l-11.5,0.1l-4.6,6.1l-3.9,3.9l-2.1,1.6l-2.2,1.4l-2.5,1.2l-2.8,0.9l-3.5,0.9l-3.4,0.6l-3.9-0.1l-4.2-0.2l-3.6-0.4
		l-3.4-0.7l-3-1.3l-2.9-1.8l-3.9-3l-3.4-3.5l-4.2-5.7h-11.5l0.1,21.3l0.1,18.9l0.1,22.3l-0.1,21.1l0.2,3.4l-1.4,40.2l-0.7,28.8
		l-0.7,26.5l-0.1,17v17l0.5,25.3l0.9,25.3l1.2,23l1.4,23l1.9,23.2l2.1,23.2l2.7,26.3l0.2,2.2l0.6,5.5l0.2,2.3l0.6,5.5l3.5,30.1
		l8.8-1.1l64,11.1l9.8-1.3L713.7,993L713.7,993z M121.1,726.1l-1.2-21.3l-1.3-23.3l-1.9-27.9l-0.1-5.4l0.1-0.5l0.2-3.3h-0.2
		l-0.1-11.2v-9.8l0.1-22.3l0.1-18.9L117,561l-11.5-0.1l-4.2,5.9l-3.4,3.5l-4,3l-2.9,1.8l-3,1.3l-3.3,0.7l-3.8,0.5l-4.2,0.2l-3.9,0.1
		l-3.4-0.6l-3.6-0.9l-2.7-0.9l-2.5-1.2l-2.2-1.4l-2.1-1.6l-3.9-4l-4.6-6.1L36.4,561l-0.1,25.7L36.2,603L36.1,623l0.1,22.3l0.2,0.1
		l-0.2,2.8l0.1,0.1l-0.2-0.1l0.2,6.3l0.9,46.5l0.5,20.6l0.4,20.6l0.1,20.6l-0.1,20.5l-0.4,25.4l-1.9,37.4l-2,32.3l-1.3,15.7
		l-0.9,15.2l-1.4,14.1l-2.1,17.3l-1.3,11.2l-1.2,8.6l-1.3,10.2l-1.9,14.5h0.1l-0.9,7.7h0.1l-0.9,7.7l10,1.3l63.9-11l8.8,1.1l3.5-30
		l0.6-5.5l0.2-2.2l0.6-5.5l0.2-2.2l0.6-5.5l0.2-2.2l0.6-5.5l0.2-2.3l0.6-5.5l0.2-2.2l2.8-26.2l2.2-23.2l1.9-23.2l1.4-23l1.2-23
		l0.9-25.3l0.5-25.4l-0.4-14.2L121.1,726.1z"/>
	<path id="stripe-3" class="st1" d="M267,145.2h-12.5V98.6H267V145.2z M141.7,668.8v18.6h210.8v-18.6H141.7z M381.6,668.8v18.6
		h210.8v-18.6H381.6z M727,668.8v18.6h460v-18.6H727z"/>
	<path id="stripe-2" class="st2" d="M254.4,145.2h-12.5V98.6h12.5V145.2z M28.7,129.7L7,129v335.2l21.7-0.6l15.2,0.4l5.9,0.6
		l0.1-335.9l-4.3,0.5L28.7,129.7z M727.1,129l-21.7,0.5l-16.9-0.5l-3.2-0.4v336.1l4.8-0.6l15.2-0.4l21.7,0.6L727.1,129L727.1,129z
		 M141.7,650.2v18.6h210.8v-18.6H141.7z M381.6,650.2v18.6h210.8v-18.6H381.6z M727,650.2v18.6h460v-18.6H727z"/>
	<path id="stripe-1" class="st3" d="M279.5,145.2H267V98.6h12.5V145.2z M141.7,650.2h210.8v-18.6H141.7V650.2z M381.6,650.2h210.8
		v-18.6H381.6V650.2z M727,631.5v18.6h460v-18.6H727z"/>
</g>
</svg>
